<svg xmlns="http://www.w3.org/2000/svg" xmlns:xlink="http://www.w3.org/1999/xlink" contentStyleType="text/css" height="1038px" preserveAspectRatio="none" style="width:1164px;height:1038px;background:#FFFFFF;" version="1.1" viewBox="0 0 1164 1038" width="1164px" zoomAndPan="magnify"><defs/><g><rect fill="#FFFFFF" height="209.6001" style="stroke:#181818;stroke-width:1.0;" width="10" x="217.1482" y="109.7999"/><rect fill="#FFFFFF" height="583.8001" style="stroke:#181818;stroke-width:1.0;" width="10" x="217.1482" y="377"/><rect fill="#FFFFFF" height="114.8" style="stroke:#181818;stroke-width:1.0;" width="10" x="437.2964" y="174.9999"/><rect fill="#FFFFFF" height="40.6" style="stroke:#181818;stroke-width:1.0;" width="10" x="442.2964" y="212.5999"/><rect fill="#FFFFFF" height="524.6001" style="stroke:#181818;stroke-width:1.0;" width="10" x="437.2964" y="406.6"/><rect fill="#FFFFFF" height="465.4001" style="stroke:#181818;stroke-width:1.0;" width="10" x="696.4576" y="436.2"/><rect fill="#FFFFFF" height="40.6" style="stroke:#181818;stroke-width:1.0;" width="10" x="701.4576" y="473.8"/><rect fill="#FFFFFF" height="76.2" style="stroke:#181818;stroke-width:1.0;" width="10" x="701.4576" y="661"/><rect fill="#FFFFFF" height="76.2" style="stroke:#181818;stroke-width:1.0;" width="10" x="701.4576" y="781.8"/><rect fill="#FFFFFF" height="898.2003" style="stroke:#000000;stroke-width:1.5;" width="1155.7657" x="3" y="70.5999"/><rect fill="#FFFFFF" height="336.6" style="stroke:#000000;stroke-width:1.5;" width="505.9369" x="642.8288" y="536.4"/><line style="stroke:#181818;stroke-width:0.5;stroke-dasharray:5.0,5.0;" x1="221.6414" x2="221.6414" y1="53.5999" y2="327.4"/><line style="stroke:#A80036;stroke-width:1.0;stroke-dasharray:1.0,4.0;" x1="221.6414" x2="221.6414" y1="327.4" y2="355.4"/><line style="stroke:#181818;stroke-width:0.5;stroke-dasharray:5.0,5.0;" x1="221.6414" x2="221.6414" y1="355.4" y2="985.8001"/><line style="stroke:#181818;stroke-width:0.5;stroke-dasharray:5.0,5.0;" x1="442.0666" x2="442.0666" y1="53.5999" y2="327.4"/><line style="stroke:#A80036;stroke-width:1.0;stroke-dasharray:1.0,4.0;" x1="442.0666" x2="442.0666" y1="327.4" y2="355.4"/><line style="stroke:#181818;stroke-width:0.5;stroke-dasharray:5.0,5.0;" x1="442.0666" x2="442.0666" y1="355.4" y2="985.8001"/><line style="stroke:#181818;stroke-width:0.5;stroke-dasharray:5.0,5.0;" x1="700.8288" x2="700.8288" y1="53.5999" y2="327.4"/><line style="stroke:#A80036;stroke-width:1.0;stroke-dasharray:1.0,4.0;" x1="700.8288" x2="700.8288" y1="327.4" y2="355.4"/><line style="stroke:#181818;stroke-width:0.5;stroke-dasharray:5.0,5.0;" x1="700.8288" x2="700.8288" y1="355.4" y2="985.8001"/><line style="stroke:#181818;stroke-width:0.5;stroke-dasharray:5.0,5.0;" x1="1053.5202" x2="1053.5202" y1="584.9" y2="985.8001"/><rect fill="#E2E2F0" height="30.7999" rx="2.5" ry="2.5" style="stroke:#181818;stroke-width:0.5;" width="91.0137" x="176.6414" y="21.7999"/><text fill="#000000" font-family="sans-serif" font-size="14" lengthAdjust="spacing" textLength="77.0137" x="183.6414" y="41.8059">:UMLProject</text><rect fill="#E2E2F0" height="30.7999" rx="2.5" ry="2.5" style="stroke:#181818;stroke-width:0.5;" width="91.0137" x="176.6414" y="984.8001"/><text fill="#000000" font-family="sans-serif" font-size="14" lengthAdjust="spacing" textLength="77.0137" x="183.6414" y="1004.8061">:UMLProject</text><rect fill="#E2E2F0" height="47.5999" rx="2.5" ry="2.5" style="stroke:#181818;stroke-width:0.5;" width="110.4596" x="387.0666" y="5"/><text fill="#000000" font-family="sans-serif" font-size="14" lengthAdjust="spacing" textLength="96.4596" x="394.0666" y="25.0059">currentDiagram</text><text fill="#000000" font-family="sans-serif" font-size="14" lengthAdjust="spacing" textLength="91.7836" x="396.4046" y="41.8059">:*UMLDiagram</text><rect fill="#E2E2F0" height="47.5999" rx="2.5" ry="2.5" style="stroke:#181818;stroke-width:0.5;" width="110.4596" x="387.0666" y="984.8001"/><text fill="#000000" font-family="sans-serif" font-size="14" lengthAdjust="spacing" textLength="96.4596" x="394.0666" y="1004.8061">currentDiagram</text><text fill="#000000" font-family="sans-serif" font-size="14" lengthAdjust="spacing" textLength="91.7836" x="396.4046" y="1021.606">:*UMLDiagram</text><rect fill="#E2E2F0" height="30.7999" rx="2.5" ry="2.5" style="stroke:#181818;stroke-width:0.5;" width="97.2576" x="652.8288" y="21.7999"/><text fill="#000000" font-family="sans-serif" font-size="14" lengthAdjust="spacing" textLength="83.2576" x="659.8288" y="41.8059">:Components</text><rect fill="#E2E2F0" height="30.7999" rx="2.5" ry="2.5" style="stroke:#181818;stroke-width:0.5;" width="97.2576" x="652.8288" y="984.8001"/><text fill="#000000" font-family="sans-serif" font-size="14" lengthAdjust="spacing" textLength="83.2576" x="659.8288" y="1004.8061">:Components</text><rect fill="#E2E2F0" height="30.7999" rx="2.5" ry="2.5" style="stroke:#181818;stroke-width:0.5;" width="111.2576" x="998.5202" y="984.8001"/><text fill="#000000" font-family="sans-serif" font-size="14" lengthAdjust="spacing" textLength="97.2576" x="1005.5202" y="1004.8061">ass:Association</text><rect fill="#FFFFFF" height="209.6001" style="stroke:#181818;stroke-width:1.0;" width="10" x="217.1482" y="109.7999"/><rect fill="#FFFFFF" height="583.8001" style="stroke:#181818;stroke-width:1.0;" width="10" x="217.1482" y="377"/><rect fill="#FFFFFF" height="114.8" style="stroke:#181818;stroke-width:1.0;" width="10" x="437.2964" y="174.9999"/><rect fill="#FFFFFF" height="40.6" style="stroke:#181818;stroke-width:1.0;" width="10" x="442.2964" y="212.5999"/><rect fill="#FFFFFF" height="524.6001" style="stroke:#181818;stroke-width:1.0;" width="10" x="437.2964" y="406.6"/><rect fill="#FFFFFF" height="465.4001" style="stroke:#181818;stroke-width:1.0;" width="10" x="696.4576" y="436.2"/><rect fill="#FFFFFF" height="40.6" style="stroke:#181818;stroke-width:1.0;" width="10" x="701.4576" y="473.8"/><rect fill="#FFFFFF" height="76.2" style="stroke:#181818;stroke-width:1.0;" width="10" x="701.4576" y="661"/><rect fill="#FFFFFF" height="76.2" style="stroke:#181818;stroke-width:1.0;" width="10" x="701.4576" y="781.8"/><path d="M3,70.5999 L212.6972,70.5999 L212.6972,78.1999 L202.6972,88.1999 L3,88.1999 L3,70.5999 " fill="#FFD700" style="stroke:#000000;stroke-width:1.5;"/><rect fill="none" height="898.2003" style="stroke:#000000;stroke-width:1.5;" width="1155.7657" x="3" y="70.5999"/><text fill="#000000" font-family="sans-serif" font-size="13" font-weight="bold" lengthAdjust="spacing" textLength="164.6972" x="18" y="83.6769">addAssociationToDiagram</text><polygon fill="#181818" points="205.1482,105.7999,215.1482,109.7999,205.1482,113.7999,209.1482,109.7999" style="stroke:#181818;stroke-width:1.0;"/><line style="stroke:#181818;stroke-width:1.0;" x1="0" x2="211.1482" y1="109.7999" y2="109.7999"/><text fill="#000000" font-family="sans-serif" font-size="13" font-weight="bold" lengthAdjust="spacing" textLength="7.228" x="7" y="104.2769">1</text><text fill="#000000" font-family="sans-serif" font-size="13" lengthAdjust="spacing" textLength="151.7232" x="18.228" y="104.2769">startAddAssociation(point)</text><path d="M117,122.7999 L117,147.7999 L211,147.7999 L211,132.7999 L201,122.7999 L117,122.7999 " fill="#FF0000" style="stroke:#181818;stroke-width:0.5;"/><path d="M201,122.7999 L201,132.7999 L211,132.7999 L201,122.7999 " fill="#FF0000" style="stroke:#181818;stroke-width:0.5;"/><text fill="#000000" font-family="sans-serif" font-size="13" lengthAdjust="spacing" textLength="73.6841" x="123" y="139.8769">by Controller</text><polygon fill="#181818" points="425.2964,170.9999,435.2964,174.9999,425.2964,178.9999,429.2964,174.9999" style="stroke:#181818;stroke-width:1.0;"/><line style="stroke:#181818;stroke-width:1.0;" x1="227.1482" x2="431.2964" y1="174.9999" y2="174.9999"/><text fill="#000000" font-family="sans-serif" font-size="13" font-weight="bold" lengthAdjust="spacing" textLength="7.228" x="234.1482" y="169.4769">2</text><text fill="#000000" font-family="sans-serif" font-size="13" lengthAdjust="spacing" textLength="151.7232" x="245.3762" y="169.4769">startAddAssociation(point)</text><line style="stroke:#181818;stroke-width:1.0;" x1="447.2964" x2="494.2964" y1="199.5999" y2="199.5999"/><line style="stroke:#181818;stroke-width:1.0;" x1="494.2964" x2="494.2964" y1="199.5999" y2="212.5999"/><line style="stroke:#181818;stroke-width:1.0;" x1="453.2964" x2="494.2964" y1="212.5999" y2="212.5999"/><polygon fill="#181818" points="463.2964,208.5999,453.2964,212.5999,463.2964,216.5999,459.2964,212.5999" style="stroke:#181818;stroke-width:1.0;"/><text fill="#000000" font-family="sans-serif" font-size="13" font-weight="bold" lengthAdjust="spacing" textLength="7.228" x="459.2964" y="194.0769">3</text><text fill="#000000" font-family="sans-serif" font-size="13" lengthAdjust="spacing" textLength="97.9161" x="470.5244" y="194.0769">startPoint = point</text><line style="stroke:#181818;stroke-width:1.0;stroke-dasharray:2.0,2.0;" x1="452.2964" x2="494.2964" y1="252.1999" y2="252.1999"/><line style="stroke:#181818;stroke-width:1.0;stroke-dasharray:2.0,2.0;" x1="494.2964" x2="494.2964" y1="252.1999" y2="265.1999"/><line style="stroke:#181818;stroke-width:1.0;stroke-dasharray:2.0,2.0;" x1="447.2964" x2="494.2964" y1="265.1999" y2="265.1999"/><polygon fill="#181818" points="457.2964,261.1999,447.2964,265.1999,457.2964,269.1999,453.2964,265.1999" style="stroke:#181818;stroke-width:1.0;"/><text fill="#000000" font-family="sans-serif" font-size="13" font-weight="bold" lengthAdjust="spacing" textLength="7.228" x="459.2964" y="246.6769">4</text><text fill="#000000" font-family="sans-serif" font-size="13" lengthAdjust="spacing" textLength="3.614" x="470.5244" y="246.6769">&#160;</text><polygon fill="#181818" points="238.1482,285.7999,228.1482,289.7999,238.1482,293.7999,234.1482,289.7999" style="stroke:#181818;stroke-width:1.0;"/><line style="stroke:#181818;stroke-width:1.0;stroke-dasharray:2.0,2.0;" x1="232.1482" x2="441.2964" y1="289.7999" y2="289.7999"/><text fill="#000000" font-family="sans-serif" font-size="13" font-weight="bold" lengthAdjust="spacing" textLength="7.228" x="244.1482" y="284.2769">5</text><text fill="#000000" font-family="sans-serif" font-size="13" lengthAdjust="spacing" textLength="3.614" x="255.3762" y="284.2769">&#160;</text><polygon fill="#181818" points="11,315.4,1,319.4,11,323.4,7,319.4" style="stroke:#181818;stroke-width:1.0;"/><line style="stroke:#181818;stroke-width:1.0;stroke-dasharray:2.0,2.0;" x1="5" x2="221.1482" y1="319.4" y2="319.4"/><text fill="#000000" font-family="sans-serif" font-size="13" font-weight="bold" lengthAdjust="spacing" textLength="7.228" x="17" y="313.877">6</text><text fill="#000000" font-family="sans-serif" font-size="13" lengthAdjust="spacing" textLength="3.614" x="28.228" y="313.877">&#160;</text><polygon fill="#181818" points="205.1482,373,215.1482,377,205.1482,381,209.1482,377" style="stroke:#181818;stroke-width:1.0;"/><line style="stroke:#181818;stroke-width:1.0;" x1="0" x2="211.1482" y1="377" y2="377"/><text fill="#000000" font-family="sans-serif" font-size="13" font-weight="bold" lengthAdjust="spacing" textLength="7.228" x="7" y="371.477">7</text><text fill="#000000" font-family="sans-serif" font-size="13" lengthAdjust="spacing" textLength="179.9202" x="18.228" y="371.477">endAddAssociation(type, point)</text><polygon fill="#181818" points="425.2964,402.6,435.2964,406.6,425.2964,410.6,429.2964,406.6" style="stroke:#181818;stroke-width:1.0;"/><line style="stroke:#181818;stroke-width:1.0;" x1="227.1482" x2="431.2964" y1="406.6" y2="406.6"/><text fill="#000000" font-family="sans-serif" font-size="13" font-weight="bold" lengthAdjust="spacing" textLength="7.228" x="234.1482" y="401.077">8</text><text fill="#000000" font-family="sans-serif" font-size="13" lengthAdjust="spacing" textLength="179.9202" x="245.3762" y="401.077">endAddAssociation(type, point)</text><polygon fill="#181818" points="684.4576,432.2,694.4576,436.2,684.4576,440.2,688.4576,436.2" style="stroke:#181818;stroke-width:1.0;"/><line style="stroke:#181818;stroke-width:1.0;" x1="447.2964" x2="690.4576" y1="436.2" y2="436.2"/><text fill="#000000" font-family="sans-serif" font-size="13" font-weight="bold" lengthAdjust="spacing" textLength="7.228" x="454.2964" y="430.677">9</text><text fill="#000000" font-family="sans-serif" font-size="13" lengthAdjust="spacing" textLength="218.9332" x="465.5244" y="430.677">addAssociation(type, startPoint, point)</text><line style="stroke:#181818;stroke-width:1.0;" x1="706.4576" x2="753.4576" y1="460.8" y2="460.8"/><line style="stroke:#181818;stroke-width:1.0;" x1="753.4576" x2="753.4576" y1="460.8" y2="473.8"/><line style="stroke:#181818;stroke-width:1.0;" x1="712.4576" x2="753.4576" y1="473.8" y2="473.8"/><polygon fill="#181818" points="722.4576,469.8,712.4576,473.8,722.4576,477.8,718.4576,473.8" style="stroke:#181818;stroke-width:1.0;"/><text fill="#000000" font-family="sans-serif" font-size="13" font-weight="bold" lengthAdjust="spacing" textLength="14.456" x="718.4576" y="455.277">10</text><text fill="#000000" font-family="sans-serif" font-size="13" lengthAdjust="spacing" textLength="300.2354" x="736.9137" y="455.277">parents = [findGadget(startPoint), findGadget(point)]</text><line style="stroke:#181818;stroke-width:1.0;stroke-dasharray:2.0,2.0;" x1="711.4576" x2="753.4576" y1="513.4" y2="513.4"/><line style="stroke:#181818;stroke-width:1.0;stroke-dasharray:2.0,2.0;" x1="753.4576" x2="753.4576" y1="513.4" y2="526.4"/><line style="stroke:#181818;stroke-width:1.0;stroke-dasharray:2.0,2.0;" x1="706.4576" x2="753.4576" y1="526.4" y2="526.4"/><polygon fill="#181818" points="716.4576,522.4,706.4576,526.4,716.4576,530.4,712.4576,526.4" style="stroke:#181818;stroke-width:1.0;"/><text fill="#000000" font-family="sans-serif" font-size="13" font-weight="bold" lengthAdjust="spacing" textLength="14.456" x="718.4576" y="507.877">11</text><text fill="#000000" font-family="sans-serif" font-size="13" lengthAdjust="spacing" textLength="3.614" x="736.9137" y="507.877">&#160;</text><path d="M642.8288,536.4 L708.0438,536.4 L708.0438,544 L698.0438,554 L642.8288,554 L642.8288,536.4 " fill="#FFD700" style="stroke:#000000;stroke-width:1.5;"/><rect fill="none" height="336.6" style="stroke:#000000;stroke-width:1.5;" width="505.9369" x="642.8288" y="536.4"/><text fill="#000000" font-family="sans-serif" font-size="13" font-weight="bold" lengthAdjust="spacing" textLength="20.215" x="657.8288" y="549.477">opt</text><text fill="#000000" font-family="sans-serif" font-size="11" font-weight="bold" lengthAdjust="spacing" textLength="136.289" x="723.0438" y="548.619">[both parents are not null]</text><polygon fill="#181818" points="986.5202,571.6001,996.5202,575.6001,986.5202,579.6001,990.5202,575.6001" style="stroke:#181818;stroke-width:1.0;"/><line style="stroke:#181818;stroke-width:1.0;stroke-dasharray:2.0,2.0;" x1="706.4576" x2="992.5202" y1="575.6001" y2="575.6001"/><text fill="#000000" font-family="sans-serif" font-size="13" font-weight="bold" lengthAdjust="spacing" textLength="14.456" x="713.4576" y="570.0771">12</text><text fill="#000000" font-family="sans-serif" font-size="13" lengthAdjust="spacing" textLength="186.4072" x="731.9137" y="570.0771">createAssociation(type, parents)</text><rect fill="#E2E2F0" height="30.7999" rx="2.5" ry="2.5" style="stroke:#181818;stroke-width:0.5;" width="111.2576" x="998.5202" y="554"/><text fill="#000000" font-family="sans-serif" font-size="14" lengthAdjust="spacing" textLength="97.2576" x="1005.5202" y="574.006">ass:Association</text><path d="M711,600.8 L711,625.8 L792,625.8 L792,610.8 L782,600.8 L711,600.8 " fill="#FF0000" style="stroke:#181818;stroke-width:0.5;"/><path d="M782,600.8 L782,610.8 L792,610.8 L782,600.8 " fill="#FF0000" style="stroke:#181818;stroke-width:0.5;"/><text fill="#000000" font-family="sans-serif" font-size="13" lengthAdjust="spacing" textLength="60.6841" x="717" y="617.877">by Creator</text><line style="stroke:#181818;stroke-width:1.0;" x1="706.4576" x2="753.4576" y1="648" y2="648"/><line style="stroke:#181818;stroke-width:1.0;" x1="753.4576" x2="753.4576" y1="648" y2="661"/><line style="stroke:#181818;stroke-width:1.0;" x1="712.4576" x2="753.4576" y1="661" y2="661"/><polygon fill="#181818" points="722.4576,657,712.4576,661,722.4576,665,718.4576,661" style="stroke:#181818;stroke-width:1.0;"/><text fill="#000000" font-family="sans-serif" font-size="13" font-weight="bold" lengthAdjust="spacing" textLength="14.456" x="718.4576" y="642.477">13</text><text fill="#000000" font-family="sans-serif" font-size="13" lengthAdjust="spacing" textLength="206.6352" x="736.9137" y="642.477">adjustAssociationPath(*association)</text><path d="M716,679 L716,704 L1138,704 L1138,689 L1128,679 L716,679 " fill="#FEFFDD" style="stroke:#181818;stroke-width:0.5;"/><path d="M1128,679 L1128,689 L1138,689 L1128,679 " fill="#FEFFDD" style="stroke:#181818;stroke-width:0.5;"/><text fill="#000000" font-family="sans-serif" font-size="13" lengthAdjust="spacing" textLength="401.7657" x="722" y="696.077">adjust the pathing of newly created association to prevent overlapping</text><line style="stroke:#181818;stroke-width:1.0;stroke-dasharray:2.0,2.0;" x1="711.4576" x2="753.4576" y1="736.2" y2="736.2"/><line style="stroke:#181818;stroke-width:1.0;stroke-dasharray:2.0,2.0;" x1="753.4576" x2="753.4576" y1="736.2" y2="749.2"/><line style="stroke:#181818;stroke-width:1.0;stroke-dasharray:2.0,2.0;" x1="706.4576" x2="753.4576" y1="749.2" y2="749.2"/><polygon fill="#181818" points="716.4576,745.2,706.4576,749.2,716.4576,753.2,712.4576,749.2" style="stroke:#181818;stroke-width:1.0;"/><text fill="#000000" font-family="sans-serif" font-size="13" font-weight="bold" lengthAdjust="spacing" textLength="14.456" x="718.4576" y="730.677">14</text><text fill="#000000" font-family="sans-serif" font-size="13" lengthAdjust="spacing" textLength="3.614" x="736.9137" y="730.677">&#160;</text><line style="stroke:#181818;stroke-width:1.0;" x1="706.4576" x2="753.4576" y1="768.8" y2="768.8"/><line style="stroke:#181818;stroke-width:1.0;" x1="753.4576" x2="753.4576" y1="768.8" y2="781.8"/><line style="stroke:#181818;stroke-width:1.0;" x1="712.4576" x2="753.4576" y1="781.8" y2="781.8"/><polygon fill="#181818" points="722.4576,777.8,712.4576,781.8,722.4576,785.8,718.4576,781.8" style="stroke:#181818;stroke-width:1.0;"/><text fill="#000000" font-family="sans-serif" font-size="13" font-weight="bold" lengthAdjust="spacing" textLength="14.456" x="718.4576" y="763.277">15</text><text fill="#000000" font-family="sans-serif" font-size="13" lengthAdjust="spacing" textLength="235.9243" x="736.9137" y="763.277">components = append(components, ass)</text><path d="M716,799.8 L716,824.8 L937,824.8 L937,809.8 L927,799.8 L716,799.8 " fill="#FEFFDD" style="stroke:#181818;stroke-width:0.5;"/><path d="M927,799.8 L927,809.8 L937,809.8 L927,799.8 " fill="#FEFFDD" style="stroke:#181818;stroke-width:0.5;"/><text fill="#000000" font-family="sans-serif" font-size="13" lengthAdjust="spacing" textLength="200.8892" x="722" y="816.8771">append is a golang built-in function</text><line style="stroke:#181818;stroke-width:1.0;stroke-dasharray:2.0,2.0;" x1="711.4576" x2="753.4576" y1="857.0001" y2="857.0001"/><line style="stroke:#181818;stroke-width:1.0;stroke-dasharray:2.0,2.0;" x1="753.4576" x2="753.4576" y1="857.0001" y2="870.0001"/><line style="stroke:#181818;stroke-width:1.0;stroke-dasharray:2.0,2.0;" x1="706.4576" x2="753.4576" y1="870.0001" y2="870.0001"/><polygon fill="#181818" points="716.4576,866.0001,706.4576,870.0001,716.4576,874.0001,712.4576,870.0001" style="stroke:#181818;stroke-width:1.0;"/><text fill="#000000" font-family="sans-serif" font-size="13" font-weight="bold" lengthAdjust="spacing" textLength="14.456" x="718.4576" y="851.4771">16</text><text fill="#000000" font-family="sans-serif" font-size="13" lengthAdjust="spacing" textLength="3.614" x="736.9137" y="851.4771">&#160;</text><polygon fill="#181818" points="458.2964,897.6001,448.2964,901.6001,458.2964,905.6001,454.2964,901.6001" style="stroke:#181818;stroke-width:1.0;"/><line style="stroke:#181818;stroke-width:1.0;stroke-dasharray:2.0,2.0;" x1="452.2964" x2="700.4576" y1="901.6001" y2="901.6001"/><text fill="#000000" font-family="sans-serif" font-size="13" font-weight="bold" lengthAdjust="spacing" textLength="14.456" x="464.2964" y="896.0771">17</text><text fill="#000000" font-family="sans-serif" font-size="13" lengthAdjust="spacing" textLength="3.614" x="482.7524" y="896.0771">&#160;</text><polygon fill="#181818" points="238.1482,927.2001,228.1482,931.2001,238.1482,935.2001,234.1482,931.2001" style="stroke:#181818;stroke-width:1.0;"/><line style="stroke:#181818;stroke-width:1.0;stroke-dasharray:2.0,2.0;" x1="232.1482" x2="441.2964" y1="931.2001" y2="931.2001"/><text fill="#000000" font-family="sans-serif" font-size="13" font-weight="bold" lengthAdjust="spacing" textLength="14.456" x="244.1482" y="925.6771">18</text><text fill="#000000" font-family="sans-serif" font-size="13" lengthAdjust="spacing" textLength="3.614" x="262.6042" y="925.6771">&#160;</text><polygon fill="#181818" points="11,956.8001,1,960.8001,11,964.8001,7,960.8001" style="stroke:#181818;stroke-width:1.0;"/><line style="stroke:#181818;stroke-width:1.0;stroke-dasharray:2.0,2.0;" x1="5" x2="221.1482" y1="960.8001" y2="960.8001"/><text fill="#000000" font-family="sans-serif" font-size="13" font-weight="bold" lengthAdjust="spacing" textLength="14.456" x="17" y="955.2771">19</text><text fill="#000000" font-family="sans-serif" font-size="13" lengthAdjust="spacing" textLength="3.614" x="35.456" y="955.2771">&#160;</text><!--SRC=[bPJ1JiCm38RlVGfhkspJs0DK0Wc1n0Ma7U047BmsQuEoE4gTeRqzpbRMb1NOUcbZ9T__s_rR34msR5RAPoYFMB3U8YiWcrMUWXjNP4eOVzPQYbYMjqr3XKRMP9_fNcFbSPDTtS0eVtbwN7hwK0MFScWOFT_sjaySQSlJp9AGZ5epqBf_3CPUbJciTd17bZqP8wv0hlwkg5O4xvNbri2RpMUoertzBG_jzJVYR95bfC8rxEb7k5SSlCsIn_QsM2m6fgLi-SCixvoQGsBvuX6SmJnp3FaTRHnPsTG85uUWtIXE10xc4yG0qs6qqCWONzVQbWzOLeed7NGwXwH-47ZlARJZxTN8SI-zA-BwA2Kta2I23SRqJWtuZOQnQVAaxn7CPf13uPLyB0D3FgXCJyZxy7jTrMtwKvqk_P5AFllFruyvGdmv7w7XnCyIkPxCi2jSPEaR25mhwObhRQkuoQfFiskRBo6X0nCuhxPo6cYhl47dvCo9vj3hEYSenN4XMH6sX7pIrURHogKDxY6W9H4WOK5fS1MquIjjOHri4RlwpNvQ4iZ_NtzK-kKV-WK0]--></g></svg>
