<svg xmlns="http://www.w3.org/2000/svg" xmlns:xlink="http://www.w3.org/1999/xlink" contentStyleType="text/css" height="569px" preserveAspectRatio="none" style="width:891px;height:569px;background:#FFFFFF;" version="1.1" viewBox="0 0 891 569" width="891px" zoomAndPan="magnify"><defs/><g><rect fill="#FFFFFF" height="381.8001" style="stroke:#181818;stroke-width:1.0;" width="10" x="170.1922" y="109.7999"/><rect fill="#FFFFFF" height="287" style="stroke:#181818;stroke-width:1.0;" width="10" x="343.3844" y="174.9999"/><rect fill="#FFFFFF" height="227.8" style="stroke:#181818;stroke-width:1.0;" width="10" x="516.5766" y="204.5999"/><rect fill="#FFFFFF" height="76.2" style="stroke:#181818;stroke-width:1.0;" width="10" x="521.5766" y="319.5999"/><rect fill="#FFFFFF" height="429.0001" style="stroke:#000000;stroke-width:1.5;" width="882.5667" x="3" y="70.5999"/><line style="stroke:#181818;stroke-width:0.5;stroke-dasharray:5.0,5.0;" x1="174.6853" x2="174.6853" y1="53.5999" y2="516.5999"/><line style="stroke:#181818;stroke-width:0.5;stroke-dasharray:5.0,5.0;" x1="348.1546" x2="348.1546" y1="53.5999" y2="516.5999"/><line style="stroke:#181818;stroke-width:0.5;stroke-dasharray:5.0,5.0;" x1="520.9477" x2="520.9477" y1="53.5999" y2="516.5999"/><line style="stroke:#181818;stroke-width:0.5;stroke-dasharray:5.0,5.0;" x1="821.9431" x2="821.9431" y1="243.4999" y2="516.5999"/><rect fill="#E2E2F0" height="30.7999" rx="2.5" ry="2.5" style="stroke:#181818;stroke-width:0.5;" width="91.0137" x="129.6853" y="21.7999"/><text fill="#000000" font-family="sans-serif" font-size="14" lengthAdjust="spacing" textLength="77.0137" x="136.6853" y="41.8059">:UMLProject</text><rect fill="#E2E2F0" height="30.7999" rx="2.5" ry="2.5" style="stroke:#181818;stroke-width:0.5;" width="91.0137" x="129.6853" y="515.5999"/><text fill="#000000" font-family="sans-serif" font-size="14" lengthAdjust="spacing" textLength="77.0137" x="136.6853" y="535.6059">:UMLProject</text><rect fill="#E2E2F0" height="47.5999" rx="2.5" ry="2.5" style="stroke:#181818;stroke-width:0.5;" width="110.4596" x="293.1546" y="5"/><text fill="#000000" font-family="sans-serif" font-size="14" lengthAdjust="spacing" textLength="96.4596" x="300.1546" y="25.0059">currentDiagram</text><text fill="#000000" font-family="sans-serif" font-size="14" lengthAdjust="spacing" textLength="91.7836" x="302.4926" y="41.8059">:*UMLDiagram</text><rect fill="#E2E2F0" height="47.5999" rx="2.5" ry="2.5" style="stroke:#181818;stroke-width:0.5;" width="110.4596" x="293.1546" y="515.5999"/><text fill="#000000" font-family="sans-serif" font-size="14" lengthAdjust="spacing" textLength="96.4596" x="300.1546" y="535.6059">currentDiagram</text><text fill="#000000" font-family="sans-serif" font-size="14" lengthAdjust="spacing" textLength="91.7836" x="302.4926" y="552.4058">:*UMLDiagram</text><rect fill="#E2E2F0" height="30.7999" rx="2.5" ry="2.5" style="stroke:#181818;stroke-width:0.5;" width="97.2576" x="472.9477" y="21.7999"/><text fill="#000000" font-family="sans-serif" font-size="14" lengthAdjust="spacing" textLength="83.2576" x="479.9477" y="41.8059">:Components</text><rect fill="#E2E2F0" height="30.7999" rx="2.5" ry="2.5" style="stroke:#181818;stroke-width:0.5;" width="97.2576" x="472.9477" y="515.5999"/><text fill="#000000" font-family="sans-serif" font-size="14" lengthAdjust="spacing" textLength="83.2576" x="479.9477" y="535.6059">:Components</text><rect fill="#E2E2F0" height="30.7999" rx="2.5" ry="2.5" style="stroke:#181818;stroke-width:0.5;" width="106.6236" x="768.9431" y="515.5999"/><text fill="#000000" font-family="sans-serif" font-size="14" lengthAdjust="spacing" textLength="92.6236" x="775.9431" y="535.6059">gadget:Gadget</text><rect fill="#FFFFFF" height="381.8001" style="stroke:#181818;stroke-width:1.0;" width="10" x="170.1922" y="109.7999"/><rect fill="#FFFFFF" height="287" style="stroke:#181818;stroke-width:1.0;" width="10" x="343.3844" y="174.9999"/><rect fill="#FFFFFF" height="227.8" style="stroke:#181818;stroke-width:1.0;" width="10" x="516.5766" y="204.5999"/><rect fill="#FFFFFF" height="76.2" style="stroke:#181818;stroke-width:1.0;" width="10" x="521.5766" y="319.5999"/><path d="M3,70.5999 L183.7982,70.5999 L183.7982,78.1999 L173.7982,88.1999 L3,88.1999 L3,70.5999 " fill="#FFD700" style="stroke:#000000;stroke-width:1.5;"/><rect fill="none" height="429.0001" style="stroke:#000000;stroke-width:1.5;" width="882.5667" x="3" y="70.5999"/><text fill="#000000" font-family="sans-serif" font-size="13" font-weight="bold" lengthAdjust="spacing" textLength="135.7982" x="18" y="83.6769">addGadgetToDiagram</text><polygon fill="#181818" points="158.1922,105.7999,168.1922,109.7999,158.1922,113.7999,162.1922,109.7999" style="stroke:#181818;stroke-width:1.0;"/><line style="stroke:#181818;stroke-width:1.0;" x1="0" x2="164.1922" y1="109.7999" y2="109.7999"/><text fill="#000000" font-family="sans-serif" font-size="13" font-weight="bold" lengthAdjust="spacing" textLength="7.228" x="7" y="104.2769">1</text><text fill="#000000" font-family="sans-serif" font-size="13" lengthAdjust="spacing" textLength="132.9642" x="18.228" y="104.2769">addGadget(type, point)</text><path d="M70,122.7999 L70,147.7999 L164,147.7999 L164,132.7999 L154,122.7999 L70,122.7999 " fill="#FF0000" style="stroke:#181818;stroke-width:0.5;"/><path d="M154,122.7999 L154,132.7999 L164,132.7999 L154,122.7999 " fill="#FF0000" style="stroke:#181818;stroke-width:0.5;"/><text fill="#000000" font-family="sans-serif" font-size="13" lengthAdjust="spacing" textLength="73.6841" x="76" y="139.8769">by Controller</text><polygon fill="#181818" points="331.3844,170.9999,341.3844,174.9999,331.3844,178.9999,335.3844,174.9999" style="stroke:#181818;stroke-width:1.0;"/><line style="stroke:#181818;stroke-width:1.0;" x1="180.1922" x2="337.3844" y1="174.9999" y2="174.9999"/><text fill="#000000" font-family="sans-serif" font-size="13" font-weight="bold" lengthAdjust="spacing" textLength="7.228" x="187.1922" y="169.4769">2</text><text fill="#000000" font-family="sans-serif" font-size="13" lengthAdjust="spacing" textLength="132.9642" x="198.4202" y="169.4769">addGadget(type, point)</text><polygon fill="#181818" points="504.5766,200.5999,514.5766,204.5999,504.5766,208.5999,508.5766,204.5999" style="stroke:#181818;stroke-width:1.0;"/><line style="stroke:#181818;stroke-width:1.0;" x1="353.3844" x2="510.5766" y1="204.5999" y2="204.5999"/><text fill="#000000" font-family="sans-serif" font-size="13" font-weight="bold" lengthAdjust="spacing" textLength="7.228" x="360.3844" y="199.0769">3</text><text fill="#000000" font-family="sans-serif" font-size="13" lengthAdjust="spacing" textLength="132.9642" x="371.6124" y="199.0769">addGadget(type, point)</text><polygon fill="#181818" points="756.9431,230.1999,766.9431,234.1999,756.9431,238.1999,760.9431,234.1999" style="stroke:#181818;stroke-width:1.0;"/><line style="stroke:#181818;stroke-width:1.0;stroke-dasharray:2.0,2.0;" x1="526.5766" x2="762.9431" y1="234.1999" y2="234.1999"/><text fill="#000000" font-family="sans-serif" font-size="13" font-weight="bold" lengthAdjust="spacing" textLength="7.228" x="533.5766" y="228.6769">4</text><text fill="#000000" font-family="sans-serif" font-size="13" lengthAdjust="spacing" textLength="147.4072" x="544.8046" y="228.6769">createGadget(type, point)</text><rect fill="#E2E2F0" height="30.7999" rx="2.5" ry="2.5" style="stroke:#181818;stroke-width:0.5;" width="106.6236" x="768.9431" y="212.5999"/><text fill="#000000" font-family="sans-serif" font-size="14" lengthAdjust="spacing" textLength="92.6236" x="775.9431" y="232.6059">gadget:Gadget</text><path d="M531,259.3998 L531,284.3998 L612,284.3998 L612,269.3998 L602,259.3998 L531,259.3998 " fill="#FF0000" style="stroke:#181818;stroke-width:0.5;"/><path d="M602,259.3998 L602,269.3998 L612,269.3998 L602,259.3998 " fill="#FF0000" style="stroke:#181818;stroke-width:0.5;"/><text fill="#000000" font-family="sans-serif" font-size="13" lengthAdjust="spacing" textLength="60.6841" x="537" y="276.4769">by Creator</text><line style="stroke:#181818;stroke-width:1.0;" x1="526.5766" x2="573.5766" y1="306.5999" y2="306.5999"/><line style="stroke:#181818;stroke-width:1.0;" x1="573.5766" x2="573.5766" y1="306.5999" y2="319.5999"/><line style="stroke:#181818;stroke-width:1.0;" x1="532.5766" x2="573.5766" y1="319.5999" y2="319.5999"/><polygon fill="#181818" points="542.5766,315.5999,532.5766,319.5999,542.5766,323.5999,538.5766,319.5999" style="stroke:#181818;stroke-width:1.0;"/><text fill="#000000" font-family="sans-serif" font-size="13" font-weight="bold" lengthAdjust="spacing" textLength="7.228" x="538.5766" y="301.0769">5</text><text fill="#000000" font-family="sans-serif" font-size="13" lengthAdjust="spacing" textLength="255.4503" x="549.8046" y="301.0769">components = append(components, gadget)</text><path d="M536,337.5999 L536,362.5999 L715,362.5999 L715,347.5999 L705,337.5999 L536,337.5999 " fill="#FEFFDD" style="stroke:#181818;stroke-width:0.5;"/><path d="M705,337.5999 L705,347.5999 L715,347.5999 L705,337.5999 " fill="#FEFFDD" style="stroke:#181818;stroke-width:0.5;"/><text fill="#000000" font-family="sans-serif" font-size="13" lengthAdjust="spacing" textLength="158.2492" x="542" y="354.6769">append is a built-in function</text><line style="stroke:#181818;stroke-width:1.0;stroke-dasharray:2.0,2.0;" x1="531.5766" x2="573.5766" y1="394.7999" y2="394.7999"/><line style="stroke:#181818;stroke-width:1.0;stroke-dasharray:2.0,2.0;" x1="573.5766" x2="573.5766" y1="394.7999" y2="407.7999"/><line style="stroke:#181818;stroke-width:1.0;stroke-dasharray:2.0,2.0;" x1="526.5766" x2="573.5766" y1="407.7999" y2="407.7999"/><polygon fill="#181818" points="536.5766,403.7999,526.5766,407.7999,536.5766,411.7999,532.5766,407.7999" style="stroke:#181818;stroke-width:1.0;"/><text fill="#000000" font-family="sans-serif" font-size="13" font-weight="bold" lengthAdjust="spacing" textLength="7.228" x="538.5766" y="389.2769">6</text><text fill="#000000" font-family="sans-serif" font-size="13" lengthAdjust="spacing" textLength="3.614" x="549.8046" y="389.2769">&#160;</text><polygon fill="#181818" points="364.3844,428.3999,354.3844,432.3999,364.3844,436.3999,360.3844,432.3999" style="stroke:#181818;stroke-width:1.0;"/><line style="stroke:#181818;stroke-width:1.0;stroke-dasharray:2.0,2.0;" x1="358.3844" x2="520.5766" y1="432.3999" y2="432.3999"/><text fill="#000000" font-family="sans-serif" font-size="13" font-weight="bold" lengthAdjust="spacing" textLength="7.228" x="370.3844" y="426.8769">7</text><text fill="#000000" font-family="sans-serif" font-size="13" lengthAdjust="spacing" textLength="3.614" x="381.6124" y="426.8769">&#160;</text><polygon fill="#181818" points="191.1922,457.9999,181.1922,461.9999,191.1922,465.9999,187.1922,461.9999" style="stroke:#181818;stroke-width:1.0;"/><line style="stroke:#181818;stroke-width:1.0;stroke-dasharray:2.0,2.0;" x1="185.1922" x2="347.3844" y1="461.9999" y2="461.9999"/><text fill="#000000" font-family="sans-serif" font-size="13" font-weight="bold" lengthAdjust="spacing" textLength="7.228" x="197.1922" y="456.4769">8</text><text fill="#000000" font-family="sans-serif" font-size="13" lengthAdjust="spacing" textLength="3.614" x="208.4202" y="456.4769">&#160;</text><polygon fill="#181818" points="11,487.5999,1,491.5999,11,495.5999,7,491.5999" style="stroke:#181818;stroke-width:1.0;"/><line style="stroke:#181818;stroke-width:1.0;stroke-dasharray:2.0,2.0;" x1="5" x2="174.1922" y1="491.5999" y2="491.5999"/><text fill="#000000" font-family="sans-serif" font-size="13" font-weight="bold" lengthAdjust="spacing" textLength="7.228" x="17" y="486.0769">9</text><text fill="#000000" font-family="sans-serif" font-size="13" lengthAdjust="spacing" textLength="3.614" x="28.228" y="486.0769">&#160;</text><!--SRC=[bPB1JiCm38RlVGghlOngVO58S1aI5v0um8rBsgHPK1j7dWFQsvDqWQv56YEdsFhz-RTb6HXT65jDXOnVsR7zaAm1NM48WwyC3WggpxsDIQdKWrH6ymlUMsb8ZWK0D7TGYjUdnsV2TzrnAMRTXezURy6ZTNoJjE0mSWRTCs2_B8EAj1BG7c67ZWc78Ng2_9RArB4BHDfnzl7cH1qLEIe1BfhuXbvcJ7FjSFJeekXm9JJRNTGr2MMcEd4gBw6k4wyZ7RTz3N9Q75cppvixRp1lBk6G_l2p7YpQ-0dW5gJtsgdDdDl2oVk_J8dC0Ni02Msm0pVMGHzSFB5uNMiKQGwqJAzIPs7-9lplc_m2]--></g></svg>
