<svg xmlns="http://www.w3.org/2000/svg" xmlns:xlink="http://www.w3.org/1999/xlink" contentStyleType="text/css" height="633px" preserveAspectRatio="none" style="width:993px;height:633px;background:#FFFFFF;" version="1.1" viewBox="0 0 993 633" width="993px" zoomAndPan="magnify"><defs/><g><rect fill="#FFFFFF" height="446.0002" style="stroke:#181818;stroke-width:1.0;" width="10" x="149.9251" y="109.7999"/><rect fill="#FFFFFF" height="351.2002" style="stroke:#181818;stroke-width:1.0;" width="10" x="364.1064" y="174.9999"/><rect fill="#FFFFFF" height="240.8001" style="stroke:#181818;stroke-width:1.0;" width="10" x="578.2876" y="255.7999"/><rect fill="#FFFFFF" height="40.6" style="stroke:#181818;stroke-width:1.0;" width="10" x="583.2876" y="293.4"/><rect fill="#FFFFFF" height="29.6" style="stroke:#181818;stroke-width:1.0;" width="10" x="928.054" y="437.4"/><rect fill="#FFFFFF" height="493.2002" style="stroke:#000000;stroke-width:1.5;" width="984.4059" x="3" y="70.5999"/><line style="stroke:#181818;stroke-width:0.5;stroke-dasharray:5.0,5.0;" x1="154.4183" x2="154.4183" y1="53.5999" y2="580.8001"/><line style="stroke:#181818;stroke-width:0.5;stroke-dasharray:5.0,5.0;" x1="368.8766" x2="368.8766" y1="53.5999" y2="580.8001"/><line style="stroke:#181818;stroke-width:0.5;stroke-dasharray:5.0,5.0;" x1="582.6588" x2="582.6588" y1="53.5999" y2="580.8001"/><line style="stroke:#181818;stroke-width:0.5;stroke-dasharray:5.0,5.0;" x1="932.7022" x2="932.7022" y1="53.5999" y2="580.8001"/><rect fill="#E2E2F0" height="30.7999" rx="2.5" ry="2.5" style="stroke:#181818;stroke-width:0.5;" width="91.0137" x="109.4183" y="21.7999"/><text fill="#000000" font-family="sans-serif" font-size="14" lengthAdjust="spacing" textLength="77.0137" x="116.4183" y="41.8059">:UMLProject</text><rect fill="#E2E2F0" height="30.7999" rx="2.5" ry="2.5" style="stroke:#181818;stroke-width:0.5;" width="91.0137" x="109.4183" y="579.8001"/><text fill="#000000" font-family="sans-serif" font-size="14" lengthAdjust="spacing" textLength="77.0137" x="116.4183" y="599.806">:UMLProject</text><rect fill="#E2E2F0" height="47.5999" rx="2.5" ry="2.5" style="stroke:#181818;stroke-width:0.5;" width="110.4596" x="313.8766" y="5"/><text fill="#000000" font-family="sans-serif" font-size="14" lengthAdjust="spacing" textLength="96.4596" x="320.8766" y="25.0059">currentDiagram</text><text fill="#000000" font-family="sans-serif" font-size="14" lengthAdjust="spacing" textLength="91.7836" x="323.2146" y="41.8059">:*UMLDiagram</text><rect fill="#E2E2F0" height="47.5999" rx="2.5" ry="2.5" style="stroke:#181818;stroke-width:0.5;" width="110.4596" x="313.8766" y="579.8001"/><text fill="#000000" font-family="sans-serif" font-size="14" lengthAdjust="spacing" textLength="96.4596" x="320.8766" y="599.806">currentDiagram</text><text fill="#000000" font-family="sans-serif" font-size="14" lengthAdjust="spacing" textLength="91.7836" x="323.2146" y="616.606">:*UMLDiagram</text><rect fill="#E2E2F0" height="30.7999" rx="2.5" ry="2.5" style="stroke:#181818;stroke-width:0.5;" width="97.2576" x="534.6588" y="21.7999"/><text fill="#000000" font-family="sans-serif" font-size="14" lengthAdjust="spacing" textLength="83.2576" x="541.6588" y="41.8059">:Components</text><rect fill="#E2E2F0" height="30.7999" rx="2.5" ry="2.5" style="stroke:#181818;stroke-width:0.5;" width="97.2576" x="534.6588" y="579.8001"/><text fill="#000000" font-family="sans-serif" font-size="14" lengthAdjust="spacing" textLength="83.2576" x="541.6588" y="599.806">:Components</text><rect fill="#E2E2F0" height="30.7999" rx="2.5" ry="2.5" style="stroke:#181818;stroke-width:0.5;" width="88.7037" x="888.7022" y="21.7999"/><text fill="#000000" font-family="sans-serif" font-size="14" lengthAdjust="spacing" textLength="74.7037" x="895.7022" y="41.8059">:Submodule</text><rect fill="#E2E2F0" height="30.7999" rx="2.5" ry="2.5" style="stroke:#181818;stroke-width:0.5;" width="88.7037" x="888.7022" y="579.8001"/><text fill="#000000" font-family="sans-serif" font-size="14" lengthAdjust="spacing" textLength="74.7037" x="895.7022" y="599.806">:Submodule</text><rect fill="#FFFFFF" height="446.0002" style="stroke:#181818;stroke-width:1.0;" width="10" x="149.9251" y="109.7999"/><rect fill="#FFFFFF" height="351.2002" style="stroke:#181818;stroke-width:1.0;" width="10" x="364.1064" y="174.9999"/><rect fill="#FFFFFF" height="240.8001" style="stroke:#181818;stroke-width:1.0;" width="10" x="578.2876" y="255.7999"/><rect fill="#FFFFFF" height="40.6" style="stroke:#181818;stroke-width:1.0;" width="10" x="583.2876" y="293.4"/><rect fill="#FFFFFF" height="29.6" style="stroke:#181818;stroke-width:1.0;" width="10" x="928.054" y="437.4"/><path d="M3,70.5999 L157.7851,70.5999 L157.7851,78.1999 L147.7851,88.1999 L3,88.1999 L3,70.5999 " fill="#FFD700" style="stroke:#000000;stroke-width:1.5;"/><rect fill="none" height="493.2002" style="stroke:#000000;stroke-width:1.5;" width="984.4059" x="3" y="70.5999"/><text fill="#000000" font-family="sans-serif" font-size="13" font-weight="bold" lengthAdjust="spacing" textLength="109.7851" x="18" y="83.6769">copyComponents</text><polygon fill="#181818" points="137.9251,105.7999,147.9251,109.7999,137.9251,113.7999,141.9251,109.7999" style="stroke:#181818;stroke-width:1.0;"/><line style="stroke:#181818;stroke-width:1.0;" x1="0" x2="143.9251" y1="109.7999" y2="109.7999"/><text fill="#000000" font-family="sans-serif" font-size="13" font-weight="bold" lengthAdjust="spacing" textLength="7.228" x="7" y="104.2769">1</text><text fill="#000000" font-family="sans-serif" font-size="13" lengthAdjust="spacing" textLength="112.6971" x="18.228" y="104.2769">CopyComponents()</text><path d="M50,122.7999 L50,147.7999 L144,147.7999 L144,132.7999 L134,122.7999 L50,122.7999 " fill="#FF0000" style="stroke:#181818;stroke-width:0.5;"/><path d="M134,122.7999 L134,132.7999 L144,132.7999 L134,122.7999 " fill="#FF0000" style="stroke:#181818;stroke-width:0.5;"/><text fill="#000000" font-family="sans-serif" font-size="13" lengthAdjust="spacing" textLength="73.6841" x="56" y="139.8769">by Controller</text><polygon fill="#181818" points="352.1064,170.9999,362.1064,174.9999,352.1064,178.9999,356.1064,174.9999" style="stroke:#181818;stroke-width:1.0;"/><line style="stroke:#181818;stroke-width:1.0;" x1="159.9251" x2="358.1064" y1="174.9999" y2="174.9999"/><text fill="#000000" font-family="sans-serif" font-size="13" font-weight="bold" lengthAdjust="spacing" textLength="7.228" x="166.9251" y="169.4769">2</text><text fill="#000000" font-family="sans-serif" font-size="13" lengthAdjust="spacing" textLength="173.9532" x="178.1532" y="169.4769">ExportSubmodule("clipboard")</text><path d="M29,187.9999 L29,228.9999 L279,228.9999 L279,197.9999 L269,187.9999 L29,187.9999 " fill="#FEFFDD" style="stroke:#181818;stroke-width:0.5;"/><path d="M269,187.9999 L269,197.9999 L279,197.9999 L269,187.9999 " fill="#FEFFDD" style="stroke:#181818;stroke-width:0.5;"/><text fill="#000000" font-family="sans-serif" font-size="13" lengthAdjust="spacing" textLength="197.0802" x="35" y="205.0769">"clipboard" is a special submodule</text><text fill="#000000" font-family="sans-serif" font-size="13" lengthAdjust="spacing" textLength="229.7883" x="35" y="220.6769">containing the components user copied.</text><polygon fill="#181818" points="566.2876,251.7999,576.2876,255.7999,566.2876,259.7999,570.2876,255.7999" style="stroke:#181818;stroke-width:1.0;"/><line style="stroke:#181818;stroke-width:1.0;" x1="374.1064" x2="572.2876" y1="255.7999" y2="255.7999"/><text fill="#000000" font-family="sans-serif" font-size="13" font-weight="bold" lengthAdjust="spacing" textLength="7.228" x="381.1064" y="250.2769">3</text><text fill="#000000" font-family="sans-serif" font-size="13" lengthAdjust="spacing" textLength="173.9532" x="392.3344" y="250.2769">ExportSubmodule("clipboard")</text><line style="stroke:#181818;stroke-width:1.0;" x1="588.2876" x2="635.2876" y1="280.4" y2="280.4"/><line style="stroke:#181818;stroke-width:1.0;" x1="635.2876" x2="635.2876" y1="280.4" y2="293.4"/><line style="stroke:#181818;stroke-width:1.0;" x1="594.2876" x2="635.2876" y1="293.4" y2="293.4"/><polygon fill="#181818" points="604.2876,289.4,594.2876,293.4,604.2876,297.4,600.2876,293.4" style="stroke:#181818;stroke-width:1.0;"/><text fill="#000000" font-family="sans-serif" font-size="13" font-weight="bold" lengthAdjust="spacing" textLength="7.228" x="600.2876" y="274.877">4</text><text fill="#000000" font-family="sans-serif" font-size="13" lengthAdjust="spacing" textLength="304.5384" x="611.5156" y="274.877">exportComponents = getGroupComponents().clone()</text><line style="stroke:#181818;stroke-width:1.0;stroke-dasharray:2.0,2.0;" x1="593.2876" x2="635.2876" y1="333" y2="333"/><line style="stroke:#181818;stroke-width:1.0;stroke-dasharray:2.0,2.0;" x1="635.2876" x2="635.2876" y1="333" y2="346"/><line style="stroke:#181818;stroke-width:1.0;stroke-dasharray:2.0,2.0;" x1="588.2876" x2="635.2876" y1="346" y2="346"/><polygon fill="#181818" points="598.2876,342,588.2876,346,598.2876,350,594.2876,346" style="stroke:#181818;stroke-width:1.0;"/><text fill="#000000" font-family="sans-serif" font-size="13" font-weight="bold" lengthAdjust="spacing" textLength="7.228" x="600.2876" y="327.477">5</text><text fill="#000000" font-family="sans-serif" font-size="13" lengthAdjust="spacing" textLength="3.614" x="611.5156" y="327.477">&#160;</text><path d="M408,354 L408,395 L757,395 L757,364 L747,354 L408,354 " fill="#FEFFDD" style="stroke:#181818;stroke-width:0.5;"/><path d="M747,354 L747,364 L757,364 L747,354 " fill="#FEFFDD" style="stroke:#181818;stroke-width:0.5;"/><text fill="#000000" font-family="sans-serif" font-size="13" lengthAdjust="spacing" textLength="328.0424" x="414" y="371.077">getGroupComponents() return gadgets and associations.</text><text fill="#000000" font-family="sans-serif" font-size="13" lengthAdjust="spacing" textLength="310.6874" x="414" y="386.677">As for every association, its parents are also included.</text><polygon fill="#181818" points="916.054,433.4,926.054,437.4,916.054,441.4,920.054,437.4" style="stroke:#181818;stroke-width:1.0;"/><line style="stroke:#181818;stroke-width:1.0;" x1="588.2876" x2="922.054" y1="437.4" y2="437.4"/><text fill="#000000" font-family="sans-serif" font-size="13" font-weight="bold" lengthAdjust="spacing" textLength="7.228" x="595.2876" y="424.077">6</text><text fill="#000000" font-family="sans-serif" font-size="13" lengthAdjust="spacing" textLength="44.798" x="606.5156" y="416.277">&#171;static&#187;</text><text fill="#000000" font-family="sans-serif" font-size="13" lengthAdjust="spacing" textLength="283.7774" x="606.5156" y="431.877">ExportSubmodule("clipboard", exportCompoents)</text><polygon fill="#181818" points="599.2876,463,589.2876,467,599.2876,471,595.2876,467" style="stroke:#181818;stroke-width:1.0;"/><line style="stroke:#181818;stroke-width:1.0;stroke-dasharray:2.0,2.0;" x1="593.2876" x2="932.054" y1="467" y2="467"/><text fill="#000000" font-family="sans-serif" font-size="13" font-weight="bold" lengthAdjust="spacing" textLength="7.228" x="605.2876" y="461.477">7</text><text fill="#000000" font-family="sans-serif" font-size="13" lengthAdjust="spacing" textLength="3.614" x="616.5156" y="461.477">&#160;</text><polygon fill="#181818" points="385.1064,492.6001,375.1064,496.6001,385.1064,500.6001,381.1064,496.6001" style="stroke:#181818;stroke-width:1.0;"/><line style="stroke:#181818;stroke-width:1.0;stroke-dasharray:2.0,2.0;" x1="379.1064" x2="582.2876" y1="496.6001" y2="496.6001"/><text fill="#000000" font-family="sans-serif" font-size="13" font-weight="bold" lengthAdjust="spacing" textLength="7.228" x="391.1064" y="491.0771">8</text><text fill="#000000" font-family="sans-serif" font-size="13" lengthAdjust="spacing" textLength="3.614" x="402.3344" y="491.0771">&#160;</text><polygon fill="#181818" points="170.9251,522.2001,160.9251,526.2001,170.9251,530.2001,166.9251,526.2001" style="stroke:#181818;stroke-width:1.0;"/><line style="stroke:#181818;stroke-width:1.0;stroke-dasharray:2.0,2.0;" x1="164.9251" x2="368.1064" y1="526.2001" y2="526.2001"/><text fill="#000000" font-family="sans-serif" font-size="13" font-weight="bold" lengthAdjust="spacing" textLength="7.228" x="176.9251" y="520.6771">9</text><text fill="#000000" font-family="sans-serif" font-size="13" lengthAdjust="spacing" textLength="3.614" x="188.1532" y="520.6771">&#160;</text><polygon fill="#181818" points="11,551.8001,1,555.8001,11,559.8001,7,555.8001" style="stroke:#181818;stroke-width:1.0;"/><line style="stroke:#181818;stroke-width:1.0;stroke-dasharray:2.0,2.0;" x1="5" x2="153.9251" y1="555.8001" y2="555.8001"/><text fill="#000000" font-family="sans-serif" font-size="13" font-weight="bold" lengthAdjust="spacing" textLength="14.456" x="17" y="550.2771">10</text><text fill="#000000" font-family="sans-serif" font-size="13" lengthAdjust="spacing" textLength="3.614" x="35.456" y="550.2771">&#160;</text><!--SRC=[ZPFDRi8m3CVlF8LLBZ0n7g1YI1ERTjcaITDkNDB4b4nfNEM3ZRUVMqgRZWcHInt7_jl-fH4na8rLWMuYs1Gow8C826GdfQDOJqio2gRVUyrEIVLnGrLD5ctm4-1rluOi_tnxVNVqXJ9aEMn6GRDv6sQ9qmtk0j1kd01JXog7uiY9DZWoXbk1ReqZcreoEiUwJrgKJbHRczznHBVZuiy_DRdm4OkAL3GuowJHTK72gMpUgxRDq07TM7-eEYI1zY30roYrCE3Fkdsev9w5jjgM4FODeFFS43thCp2DQjc7erLjzTvnAdTjfXFX0UYjGmu8azn_nB0L6rpm02M6b-RkqrjSIiFcx5BVOOZENhXJngDw_ubt8b0AnSTCd349xucX1qtMBxVsqSEE720h7jEp1MXEg8LhU-SF2EC9j9KcgXJz5HuzIMuFLYiVM5ckrrjx1VGY1TTetKJcZolPTcRpWunVsIy0]--></g></svg>
