<svg xmlns="http://www.w3.org/2000/svg" xmlns:xlink="http://www.w3.org/1999/xlink" contentStyleType="text/css" height="617px" preserveAspectRatio="none" style="width:1016px;height:617px;background:#FFFFFF;" version="1.1" viewBox="0 0 1016 617" width="1016px" zoomAndPan="magnify"><defs/><g><rect fill="#FFFFFF" height="429.8002" style="stroke:#181818;stroke-width:1.0;" width="10" x="150.6532" y="109.7999"/><rect fill="#FFFFFF" height="335.0001" style="stroke:#181818;stroke-width:1.0;" width="10" x="304.3063" y="174.9999"/><rect fill="#FFFFFF" height="275.8001" style="stroke:#181818;stroke-width:1.0;" width="10" x="457.9595" y="204.5999"/><rect fill="#FFFFFF" height="44.9" style="stroke:#181818;stroke-width:1.0;" width="10" x="462.9595" y="242.1999"/><rect fill="#FFFFFF" height="76.2" style="stroke:#181818;stroke-width:1.0;" width="10" x="462.9595" y="360.6"/><rect fill="#FFFFFF" height="477.0002" style="stroke:#000000;stroke-width:1.5;" width="1007.7712" x="3" y="70.5999"/><rect fill="#FFFFFF" height="138.4001" style="stroke:#000000;stroke-width:1.5;" width="281.2896" x="404.3306" y="313.4"/><line style="stroke:#181818;stroke-width:0.5;stroke-dasharray:5.0,5.0;" x1="155.1463" x2="155.1463" y1="53.5999" y2="564.6001"/><line style="stroke:#181818;stroke-width:0.5;stroke-dasharray:5.0,5.0;" x1="309.0765" x2="309.0765" y1="53.5999" y2="564.6001"/><line style="stroke:#181818;stroke-width:0.5;stroke-dasharray:5.0,5.0;" x1="462.3306" x2="462.3306" y1="53.5999" y2="564.6001"/><rect fill="#E2E2F0" height="30.7999" rx="2.5" ry="2.5" style="stroke:#181818;stroke-width:0.5;" width="91.0137" x="110.1463" y="21.7999"/><text fill="#000000" font-family="sans-serif" font-size="14" lengthAdjust="spacing" textLength="77.0137" x="117.1463" y="41.8059">:UMLProject</text><rect fill="#E2E2F0" height="30.7999" rx="2.5" ry="2.5" style="stroke:#181818;stroke-width:0.5;" width="91.0137" x="110.1463" y="563.6001"/><text fill="#000000" font-family="sans-serif" font-size="14" lengthAdjust="spacing" textLength="77.0137" x="117.1463" y="583.606">:UMLProject</text><rect fill="#E2E2F0" height="47.5999" rx="2.5" ry="2.5" style="stroke:#181818;stroke-width:0.5;" width="110.4596" x="254.0765" y="5"/><text fill="#000000" font-family="sans-serif" font-size="14" lengthAdjust="spacing" textLength="96.4596" x="261.0765" y="25.0059">currentDiagram</text><text fill="#000000" font-family="sans-serif" font-size="14" lengthAdjust="spacing" textLength="91.7836" x="263.4145" y="41.8059">:*UMLDiagram</text><rect fill="#E2E2F0" height="47.5999" rx="2.5" ry="2.5" style="stroke:#181818;stroke-width:0.5;" width="110.4596" x="254.0765" y="563.6001"/><text fill="#000000" font-family="sans-serif" font-size="14" lengthAdjust="spacing" textLength="96.4596" x="261.0765" y="583.606">currentDiagram</text><text fill="#000000" font-family="sans-serif" font-size="14" lengthAdjust="spacing" textLength="91.7836" x="263.4145" y="600.4059">:*UMLDiagram</text><rect fill="#E2E2F0" height="30.7999" rx="2.5" ry="2.5" style="stroke:#181818;stroke-width:0.5;" width="97.2576" x="414.3306" y="21.7999"/><text fill="#000000" font-family="sans-serif" font-size="14" lengthAdjust="spacing" textLength="83.2576" x="421.3306" y="41.8059">:Components</text><rect fill="#E2E2F0" height="30.7999" rx="2.5" ry="2.5" style="stroke:#181818;stroke-width:0.5;" width="97.2576" x="414.3306" y="563.6001"/><text fill="#000000" font-family="sans-serif" font-size="14" lengthAdjust="spacing" textLength="83.2576" x="421.3306" y="583.606">:Components</text><rect fill="#FFFFFF" height="429.8002" style="stroke:#181818;stroke-width:1.0;" width="10" x="150.6532" y="109.7999"/><rect fill="#FFFFFF" height="335.0001" style="stroke:#181818;stroke-width:1.0;" width="10" x="304.3063" y="174.9999"/><rect fill="#FFFFFF" height="275.8001" style="stroke:#181818;stroke-width:1.0;" width="10" x="457.9595" y="204.5999"/><rect fill="#FFFFFF" height="44.9" style="stroke:#181818;stroke-width:1.0;" width="10" x="462.9595" y="242.1999"/><rect fill="#FFFFFF" height="76.2" style="stroke:#181818;stroke-width:1.0;" width="10" x="462.9595" y="360.6"/><path d="M3,70.5999 L157.7851,70.5999 L157.7851,78.1999 L147.7851,88.1999 L3,88.1999 L3,70.5999 " fill="#FFD700" style="stroke:#000000;stroke-width:1.5;"/><rect fill="none" height="477.0002" style="stroke:#000000;stroke-width:1.5;" width="1007.7712" x="3" y="70.5999"/><text fill="#000000" font-family="sans-serif" font-size="13" font-weight="bold" lengthAdjust="spacing" textLength="109.7851" x="18" y="83.6769">deleteComponent</text><polygon fill="#181818" points="138.6532,105.7999,148.6532,109.7999,138.6532,113.7999,142.6532,109.7999" style="stroke:#181818;stroke-width:1.0;"/><line style="stroke:#181818;stroke-width:1.0;" x1="0" x2="144.6532" y1="109.7999" y2="109.7999"/><text fill="#000000" font-family="sans-serif" font-size="13" font-weight="bold" lengthAdjust="spacing" textLength="7.228" x="7" y="104.2769">1</text><text fill="#000000" font-family="sans-serif" font-size="13" lengthAdjust="spacing" textLength="113.4251" x="18.228" y="104.2769">DeleteComponent()</text><path d="M50,122.7999 L50,147.7999 L144,147.7999 L144,132.7999 L134,122.7999 L50,122.7999 " fill="#FF0000" style="stroke:#181818;stroke-width:0.5;"/><path d="M134,122.7999 L134,132.7999 L144,132.7999 L134,122.7999 " fill="#FF0000" style="stroke:#181818;stroke-width:0.5;"/><text fill="#000000" font-family="sans-serif" font-size="13" lengthAdjust="spacing" textLength="73.6841" x="56" y="139.8769">by Controller</text><polygon fill="#181818" points="292.3063,170.9999,302.3063,174.9999,292.3063,178.9999,296.3063,174.9999" style="stroke:#181818;stroke-width:1.0;"/><line style="stroke:#181818;stroke-width:1.0;" x1="160.6532" x2="298.3063" y1="174.9999" y2="174.9999"/><text fill="#000000" font-family="sans-serif" font-size="13" font-weight="bold" lengthAdjust="spacing" textLength="7.228" x="167.6532" y="169.4769">2</text><text fill="#000000" font-family="sans-serif" font-size="13" lengthAdjust="spacing" textLength="113.4251" x="178.8812" y="169.4769">DeleteComponent()</text><polygon fill="#181818" points="445.9595,200.5999,455.9595,204.5999,445.9595,208.5999,449.9595,204.5999" style="stroke:#181818;stroke-width:1.0;"/><line style="stroke:#181818;stroke-width:1.0;" x1="314.3063" x2="451.9595" y1="204.5999" y2="204.5999"/><text fill="#000000" font-family="sans-serif" font-size="13" font-weight="bold" lengthAdjust="spacing" textLength="7.228" x="321.3063" y="199.0769">3</text><text fill="#000000" font-family="sans-serif" font-size="13" lengthAdjust="spacing" textLength="113.4251" x="332.5343" y="199.0769">DeleteComponent()</text><line style="stroke:#181818;stroke-width:1.0;" x1="467.9595" x2="514.9595" y1="229.1999" y2="229.1999"/><line style="stroke:#181818;stroke-width:1.0;" x1="514.9595" x2="514.9595" y1="229.1999" y2="242.1999"/><line style="stroke:#181818;stroke-width:1.0;" x1="473.9595" x2="514.9595" y1="242.1999" y2="242.1999"/><polygon fill="#181818" points="483.9595,238.1999,473.9595,242.1999,483.9595,246.1999,479.9595,242.1999" style="stroke:#181818;stroke-width:1.0;"/><text fill="#000000" font-family="sans-serif" font-size="13" font-weight="bold" lengthAdjust="spacing" textLength="7.228" x="479.9595" y="223.6769">4</text><text fill="#000000" font-family="sans-serif" font-size="13" lengthAdjust="spacing" textLength="268.4113" x="491.1875" y="223.6769">removeComponents = getGroupComponents()</text><line style="stroke:#181818;stroke-width:1.0;stroke-dasharray:2.0,2.0;" x1="472.9595" x2="514.9595" y1="286.1" y2="286.1"/><line style="stroke:#181818;stroke-width:1.0;stroke-dasharray:2.0,2.0;" x1="514.9595" x2="514.9595" y1="286.1" y2="299.1"/><line style="stroke:#181818;stroke-width:1.0;stroke-dasharray:2.0,2.0;" x1="467.9595" x2="514.9595" y1="299.1" y2="299.1"/><polygon fill="#181818" points="477.9595,295.1,467.9595,299.1,477.9595,303.1,473.9595,299.1" style="stroke:#181818;stroke-width:1.0;"/><text fill="#000000" font-family="sans-serif" font-size="13" font-weight="bold" lengthAdjust="spacing" textLength="7.228" x="479.9595" y="280.577">5</text><text fill="#000000" font-family="sans-serif" font-size="13" lengthAdjust="spacing" textLength="3.614" x="491.1875" y="280.577">&#160;</text><path d="M542,260.1999 L542,301.1999 L984,301.1999 L984,270.1999 L974,260.1999 L542,260.1999 " fill="#FEFFDD" style="stroke:#181818;stroke-width:0.5;"/><path d="M974,260.1999 L974,270.1999 L984,270.1999 L974,260.1999 " fill="#FEFFDD" style="stroke:#181818;stroke-width:0.5;"/><text fill="#000000" font-family="sans-serif" font-size="13" lengthAdjust="spacing" textLength="421.8117" x="548" y="277.2769">":Components": getGroupComponents() return gadgets and associations.</text><text fill="#000000" font-family="sans-serif" font-size="13" lengthAdjust="spacing" textLength="310.6874" x="548" y="292.877">As for every association, its parents are also included.</text><path d="M404.3306,313.4 L476.7737,313.4 L476.7737,321 L466.7737,331 L404.3306,331 L404.3306,313.4 " fill="#FFD700" style="stroke:#000000;stroke-width:1.5;"/><rect fill="none" height="138.4001" style="stroke:#000000;stroke-width:1.5;" width="281.2896" x="404.3306" y="313.4"/><text fill="#000000" font-family="sans-serif" font-size="13" font-weight="bold" lengthAdjust="spacing" textLength="27.443" x="419.3306" y="326.477">loop</text><text fill="#000000" font-family="sans-serif" font-size="11" font-weight="bold" lengthAdjust="spacing" textLength="188.8466" x="491.7737" y="325.6189">[component in removeComponents]</text><line style="stroke:#181818;stroke-width:1.0;" x1="467.9595" x2="514.9595" y1="347.6" y2="347.6"/><line style="stroke:#181818;stroke-width:1.0;" x1="514.9595" x2="514.9595" y1="347.6" y2="360.6"/><line style="stroke:#181818;stroke-width:1.0;" x1="473.9595" x2="514.9595" y1="360.6" y2="360.6"/><polygon fill="#181818" points="483.9595,356.6,473.9595,360.6,483.9595,364.6,479.9595,360.6" style="stroke:#181818;stroke-width:1.0;"/><text fill="#000000" font-family="sans-serif" font-size="13" font-weight="bold" lengthAdjust="spacing" textLength="7.228" x="479.9595" y="342.077">6</text><text fill="#000000" font-family="sans-serif" font-size="13" lengthAdjust="spacing" textLength="108.3811" x="491.1875" y="342.077">delete(component)</text><path d="M477,378.6 L477,403.6 L648,403.6 L648,388.6 L638,378.6 L477,378.6 " fill="#FEFFDD" style="stroke:#181818;stroke-width:0.5;"/><path d="M638,378.6 L638,388.6 L648,388.6 L638,378.6 " fill="#FEFFDD" style="stroke:#181818;stroke-width:0.5;"/><text fill="#000000" font-family="sans-serif" font-size="13" lengthAdjust="spacing" textLength="150.2932" x="483" y="395.677">delete is a built-in function</text><line style="stroke:#181818;stroke-width:1.0;stroke-dasharray:2.0,2.0;" x1="472.9595" x2="514.9595" y1="435.8" y2="435.8"/><line style="stroke:#181818;stroke-width:1.0;stroke-dasharray:2.0,2.0;" x1="514.9595" x2="514.9595" y1="435.8" y2="448.8"/><line style="stroke:#181818;stroke-width:1.0;stroke-dasharray:2.0,2.0;" x1="467.9595" x2="514.9595" y1="448.8" y2="448.8"/><polygon fill="#181818" points="477.9595,444.8,467.9595,448.8,477.9595,452.8,473.9595,448.8" style="stroke:#181818;stroke-width:1.0;"/><text fill="#000000" font-family="sans-serif" font-size="13" font-weight="bold" lengthAdjust="spacing" textLength="7.228" x="479.9595" y="430.277">7</text><text fill="#000000" font-family="sans-serif" font-size="13" lengthAdjust="spacing" textLength="3.614" x="491.1875" y="430.277">&#160;</text><polygon fill="#181818" points="325.3063,476.4,315.3063,480.4,325.3063,484.4,321.3063,480.4" style="stroke:#181818;stroke-width:1.0;"/><line style="stroke:#181818;stroke-width:1.0;stroke-dasharray:2.0,2.0;" x1="319.3063" x2="461.9595" y1="480.4" y2="480.4"/><text fill="#000000" font-family="sans-serif" font-size="13" font-weight="bold" lengthAdjust="spacing" textLength="7.228" x="331.3063" y="474.877">8</text><text fill="#000000" font-family="sans-serif" font-size="13" lengthAdjust="spacing" textLength="3.614" x="342.5343" y="474.877">&#160;</text><polygon fill="#181818" points="171.6532,506,161.6532,510,171.6532,514,167.6532,510" style="stroke:#181818;stroke-width:1.0;"/><line style="stroke:#181818;stroke-width:1.0;stroke-dasharray:2.0,2.0;" x1="165.6532" x2="308.3063" y1="510" y2="510"/><text fill="#000000" font-family="sans-serif" font-size="13" font-weight="bold" lengthAdjust="spacing" textLength="7.228" x="177.6532" y="504.477">9</text><text fill="#000000" font-family="sans-serif" font-size="13" lengthAdjust="spacing" textLength="3.614" x="188.8812" y="504.477">&#160;</text><polygon fill="#181818" points="11,535.6001,1,539.6001,11,543.6001,7,539.6001" style="stroke:#181818;stroke-width:1.0;"/><line style="stroke:#181818;stroke-width:1.0;stroke-dasharray:2.0,2.0;" x1="5" x2="154.6532" y1="539.6001" y2="539.6001"/><text fill="#000000" font-family="sans-serif" font-size="13" font-weight="bold" lengthAdjust="spacing" textLength="14.456" x="17" y="534.0771">10</text><text fill="#000000" font-family="sans-serif" font-size="13" lengthAdjust="spacing" textLength="3.614" x="35.456" y="534.0771">&#160;</text><!--SRC=[ZPFDRi8m3CVlF8K55vZ67g3I9aqWxR99k-osIqZSBbCQ8yTXuktdGWS42bekJLp_V_w8Ox9GpEqAUMHqQwpuZH44YgE6AQyd3GK7avylhqQ70GKNrAufOfGHw9e_mRZwU7jzP_f6A-CAbgNNTBRpYwI0WBK0rQK29eokWjKM5XI5AGHD1lfLUdR1R6PMxDARXatx6QixzUXFLwCVS3VL-s8EsZI8AtcdtWDonfOsHtc2HsXGNhhE7erdEJ9AvbYOTirZttp9zUZL8BcdGMES_avWeWEJ4bbln5DC3mNmEK5D3BX1tfwwtODNxThmhWRzW0c9m4SRiaDNGb13T0aNna1KpfBzIr8f5sqgfF_fytuofmVex89mRE5-00VauBKsM6KVPAv9rJdQhlWBrC05QSstxl3as6-x9fqzfry0]--></g></svg>
