<svg xmlns="http://www.w3.org/2000/svg" xmlns:xlink="http://www.w3.org/1999/xlink" contentStyleType="text/css" height="1236px" preserveAspectRatio="none" style="width:1307px;height:1236px;background:#FFFFFF;" version="1.1" viewBox="0 0 1307 1236" width="1307px" zoomAndPan="magnify"><defs/><g><g id="elem_User"><rect fill="#F1F1F1" height="62.3998" style="stroke:#181818;stroke-width:0.5;" width="47.0139" x="1092.66" y="7"/><text fill="#000000" font-family="sans-serif" font-size="14" lengthAdjust="spacing" textLength="29.5539" x="1101.39" y="22.0059">User</text><line style="stroke:#181818;stroke-width:0.5;" x1="1093.66" x2="1138.6739" y1="27.7999" y2="27.7999"/><text fill="#000000" font-family="sans-serif" font-size="14" lengthAdjust="spacing" textLength="10.892" x="1098.66" y="44.8059">id</text><text fill="#000000" font-family="sans-serif" font-size="14" lengthAdjust="spacing" textLength="35.0139" x="1098.66" y="61.6058">name</text></g><g id="elem_UMLProject"><rect fill="#F1F1F1" height="79.1997" style="stroke:#181818;stroke-width:0.5;" width="87.1217" x="496.61" y="337.4"/><text fill="#000000" font-family="sans-serif" font-size="14" lengthAdjust="spacing" textLength="73.1217" x="503.61" y="352.4059">UMLProject</text><line style="stroke:#181818;stroke-width:0.5;" x1="497.61" x2="582.7317" y1="358.1999" y2="358.1999"/><text fill="#000000" font-family="sans-serif" font-size="14" lengthAdjust="spacing" textLength="10.892" x="502.61" y="375.2059">id</text><text fill="#000000" font-family="sans-serif" font-size="14" lengthAdjust="spacing" textLength="35.0139" x="502.61" y="392.0058">name</text><text fill="#000000" font-family="sans-serif" font-size="14" lengthAdjust="spacing" textLength="45.9058" x="502.61" y="408.8057">lastEdit</text></g><g id="elem_UMLDiagram"><rect fill="#F1F1F1" height="95.9996" style="stroke:#181818;stroke-width:0.5;" width="118.5956" x="44.87" y="544.6"/><text fill="#000000" font-family="sans-serif" font-size="14" lengthAdjust="spacing" textLength="82.4457" x="62.9449" y="559.6059">UMLDiagram</text><line style="stroke:#181818;stroke-width:0.5;" x1="45.87" x2="162.4656" y1="565.3999" y2="565.3999"/><text fill="#000000" font-family="sans-serif" font-size="14" lengthAdjust="spacing" textLength="52.9058" x="50.87" y="582.4059">filename</text><text fill="#000000" font-family="sans-serif" font-size="14" lengthAdjust="spacing" textLength="26.4599" x="50.87" y="599.2058">type</text><text fill="#000000" font-family="sans-serif" font-size="14" lengthAdjust="spacing" textLength="106.5956" x="50.87" y="616.0057">backgroundColor</text><text fill="#000000" font-family="sans-serif" font-size="14" lengthAdjust="spacing" textLength="45.9058" x="50.87" y="632.8057">lastEdit</text></g><g id="elem_Gadget"><rect fill="#F1F1F1" height="95.9996" style="stroke:#181818;stroke-width:0.5;" width="85.9337" x="61.2" y="753.6"/><text fill="#000000" font-family="sans-serif" font-size="14" lengthAdjust="spacing" textLength="45.9198" x="81.2069" y="768.6059">Gadget</text><line style="stroke:#181818;stroke-width:0.5;" x1="62.2" x2="146.1337" y1="774.3999" y2="774.3999"/><text fill="#000000" font-family="sans-serif" font-size="14" lengthAdjust="spacing" textLength="73.9337" x="67.2" y="791.4059">gadgetType</text><text fill="#000000" font-family="sans-serif" font-size="14" lengthAdjust="spacing" textLength="30.3379" x="67.2" y="808.2058">color</text><text fill="#000000" font-family="sans-serif" font-size="14" lengthAdjust="spacing" textLength="48.2438" x="67.2" y="825.0057">position</text><text fill="#000000" font-family="sans-serif" font-size="14" lengthAdjust="spacing" textLength="30.3379" x="67.2" y="841.8057">layer</text></g><g id="elem_Association"><rect fill="#F1F1F1" height="95.9996" style="stroke:#181818;stroke-width:0.5;" width="113.1496" x="131.59" y="969"/><text fill="#000000" font-family="sans-serif" font-size="14" lengthAdjust="spacing" textLength="71.5817" x="152.3739" y="984.0059">Association</text><line style="stroke:#181818;stroke-width:0.5;" x1="132.59" x2="243.7396" y1="989.7999" y2="989.7999"/><text fill="#000000" font-family="sans-serif" font-size="14" lengthAdjust="spacing" textLength="101.1496" x="137.59" y="1006.8059">associationType</text><text fill="#000000" font-family="sans-serif" font-size="14" lengthAdjust="spacing" textLength="77.0277" x="137.59" y="1023.6058">startPosition</text><text fill="#000000" font-family="sans-serif" font-size="14" lengthAdjust="spacing" textLength="73.1497" x="137.59" y="1040.4057">endPosition</text><text fill="#000000" font-family="sans-serif" font-size="14" lengthAdjust="spacing" textLength="30.3379" x="137.59" y="1057.2057">layer</text></g><g id="elem_Submodule"><rect fill="#F1F1F1" height="95.9996" style="stroke:#181818;stroke-width:0.5;" width="84.8117" x="443.76" y="544.6"/><text fill="#000000" font-family="sans-serif" font-size="14" lengthAdjust="spacing" textLength="70.8117" x="450.76" y="559.6059">Submodule</text><line style="stroke:#181818;stroke-width:0.5;" x1="444.76" x2="527.5717" y1="565.3999" y2="565.3999"/><text fill="#000000" font-family="sans-serif" font-size="14" lengthAdjust="spacing" textLength="10.892" x="449.76" y="582.4059">id</text><text fill="#000000" font-family="sans-serif" font-size="14" lengthAdjust="spacing" textLength="35.0139" x="449.76" y="599.2058">name</text><text fill="#000000" font-family="sans-serif" font-size="14" lengthAdjust="spacing" textLength="52.1358" x="449.76" y="616.0057">Attribute</text><text fill="#000000" font-family="sans-serif" font-size="14" lengthAdjust="spacing" textLength="45.9058" x="449.76" y="632.8057">lastEdit</text></g><g id="elem_Session"><rect fill="#F1F1F1" height="95.9996" style="stroke:#181818;stroke-width:0.5;" width="70.3378" x="1013" y="146.4"/><text fill="#000000" font-family="sans-serif" font-size="14" lengthAdjust="spacing" textLength="49.7978" x="1023.27" y="161.4059">Session</text><line style="stroke:#181818;stroke-width:0.5;" x1="1014" x2="1082.3378" y1="167.1999" y2="167.1999"/><text fill="#000000" font-family="sans-serif" font-size="14" lengthAdjust="spacing" textLength="10.892" x="1019" y="184.2059">id</text><text fill="#000000" font-family="sans-serif" font-size="14" lengthAdjust="spacing" textLength="26.4599" x="1019" y="201.0058">host</text><text fill="#000000" font-family="sans-serif" font-size="14" lengthAdjust="spacing" textLength="58.3378" x="1019" y="217.8057">startTime</text><text fill="#000000" font-family="sans-serif" font-size="14" lengthAdjust="spacing" textLength="37.3518" x="1019" y="234.6057">status</text></g><g id="elem_Chatroom"><rect fill="#F1F1F1" height="36.7999" style="stroke:#181818;stroke-width:0.5;" width="75.4597" x="1073.44" y="358.6"/><text fill="#000000" font-family="sans-serif" font-size="14" lengthAdjust="spacing" textLength="61.4597" x="1080.44" y="373.6059">Chatroom</text><line style="stroke:#181818;stroke-width:0.5;" x1="1074.44" x2="1147.8997" y1="379.3999" y2="379.3999"/></g><g id="elem_Message"><rect fill="#F1F1F1" height="95.9996" style="stroke:#181818;stroke-width:0.5;" width="76.5677" x="1142.89" y="544.6"/><text fill="#000000" font-family="sans-serif" font-size="14" lengthAdjust="spacing" textLength="56.7978" x="1152.775" y="559.6059">Message</text><line style="stroke:#181818;stroke-width:0.5;" x1="1143.89" x2="1218.4577" y1="565.3999" y2="565.3999"/><text fill="#000000" font-family="sans-serif" font-size="14" lengthAdjust="spacing" textLength="10.892" x="1148.89" y="582.4059">id</text><text fill="#000000" font-family="sans-serif" font-size="14" lengthAdjust="spacing" textLength="42.7978" x="1148.89" y="599.2058">sender</text><text fill="#000000" font-family="sans-serif" font-size="14" lengthAdjust="spacing" textLength="45.9198" x="1148.89" y="616.0057">content</text><text fill="#000000" font-family="sans-serif" font-size="14" lengthAdjust="spacing" textLength="64.5677" x="1148.89" y="632.8057">timestamp</text></g><g id="elem_Attribute"><rect fill="#F1F1F1" height="79.1997" style="stroke:#181818;stroke-width:0.5;" width="66.1358" x="155.1" y="1150.4"/><text fill="#000000" font-family="sans-serif" font-size="14" lengthAdjust="spacing" textLength="52.1358" x="162.1" y="1165.4059">Attribute</text><line style="stroke:#181818;stroke-width:0.5;" x1="156.1" x2="220.2358" y1="1171.1999" y2="1171.1999"/><text fill="#000000" font-family="sans-serif" font-size="14" lengthAdjust="spacing" textLength="10.892" x="161.1" y="1188.2059">id</text><text fill="#000000" font-family="sans-serif" font-size="14" lengthAdjust="spacing" textLength="45.9198" x="161.1" y="1205.0058">content</text><text fill="#000000" font-family="sans-serif" font-size="14" lengthAdjust="spacing" textLength="48.2438" x="161.1" y="1221.8057">position</text></g><g id="elem_TextStyle"><rect fill="#F1F1F1" height="112.7996" style="stroke:#181818;stroke-width:0.5;" width="94.4736" x="279.93" y="960.6"/><text fill="#000000" font-family="sans-serif" font-size="14" lengthAdjust="spacing" textLength="58.3518" x="297.9909" y="975.6059">TextStyle</text><line style="stroke:#181818;stroke-width:0.5;" x1="280.93" x2="373.4036" y1="981.3999" y2="981.3999"/><text fill="#000000" font-family="sans-serif" font-size="14" lengthAdjust="spacing" textLength="23.3519" x="285.93" y="998.4059">font</text><text fill="#000000" font-family="sans-serif" font-size="14" lengthAdjust="spacing" textLength="48.2438" x="285.93" y="1015.2058">fontsize</text><text fill="#000000" font-family="sans-serif" font-size="14" lengthAdjust="spacing" textLength="38.1218" x="285.93" y="1032.0057">isBold</text><text fill="#000000" font-family="sans-serif" font-size="14" lengthAdjust="spacing" textLength="38.8918" x="285.93" y="1048.8057">isItalic</text><text fill="#000000" font-family="sans-serif" font-size="14" lengthAdjust="spacing" textLength="82.4736" x="285.93" y="1065.6056">hasUnderline</text></g><g id="elem_Timer"><rect fill="#F1F1F1" height="45.5999" style="stroke:#181818;stroke-width:0.5;" width="112.3656" x="910.99" y="778.8"/><text fill="#000000" font-family="sans-serif" font-size="14" lengthAdjust="spacing" textLength="35.7699" x="949.2879" y="793.8059">Timer</text><line style="stroke:#181818;stroke-width:0.5;" x1="911.99" x2="1022.3556" y1="799.5999" y2="799.5999"/><text fill="#000000" font-family="sans-serif" font-size="14" lengthAdjust="spacing" textLength="100.3656" x="916.99" y="816.6059">whenToTimeout</text></g><g id="elem_Verifier"><rect fill="#F1F1F1" height="62.3998" style="stroke:#181818;stroke-width:0.5;" width="58.3378" x="7" y="345.8"/><text fill="#000000" font-family="sans-serif" font-size="14" lengthAdjust="spacing" textLength="44.3378" x="14" y="360.8059">Verifier</text><line style="stroke:#181818;stroke-width:0.5;" x1="8" x2="64.3378" y1="366.5999" y2="366.5999"/><text fill="#000000" font-family="sans-serif" font-size="14" lengthAdjust="spacing" textLength="26.4599" x="13" y="383.6059">type</text><text fill="#000000" font-family="sans-serif" font-size="14" lengthAdjust="spacing" textLength="37.3518" x="13" y="400.4058">status</text></g><!--link UMLProject to UMLDiagram--><g id="link_UMLProject_UMLDiagram"><path codeLine="91" d="M496.18,379.54 C402.86,383.73 189.36,398.46 138.17,446.6 C111.89,471.31 104.16,512.15 102.56,544.2 " fill="none" id="UMLProject-UMLDiagram" style="stroke:#181818;stroke-width:1.0;"/><text fill="#000000" font-family="sans-serif" font-size="13" lengthAdjust="spacing" textLength="53.4691" x="139.17" y="484.977">manages</text><path d="M198.6391,460.1 L198.6391,501.1 L460.6391,501.1 L460.6391,470.1 L450.6391,460.1 L198.6391,460.1 " fill="#FEFFDD" style="stroke:#181818;stroke-width:0.5;"/><path d="M450.6391,460.1 L450.6391,470.1 L460.6391,470.1 L450.6391,460.1 " fill="#FEFFDD" style="stroke:#181818;stroke-width:0.5;"/><text fill="#000000" font-family="sans-serif" font-size="13" lengthAdjust="spacing" textLength="241.9952" x="204.6391" y="477.177">A UMLroject can has multi UMLDiagrams.</text><text fill="#000000" font-family="sans-serif" font-size="13" lengthAdjust="spacing" textLength="130.7671" x="204.6391" y="492.777">Just like .sln to .vcproj.</text><text fill="#000000" font-family="sans-serif" font-size="13" lengthAdjust="spacing" textLength="7.228" x="481.3332" y="375.8452">1</text><text fill="#000000" font-family="sans-serif" font-size="13" lengthAdjust="spacing" textLength="5.057" x="96.9609" y="533.1108">*</text></g><!--link UMLDiagram to Gadget--><g id="link_UMLDiagram_Gadget"><path codeLine="97" d="M104.17,641.09 C104.17,674.75 104.17,719.72 104.17,753.33 " fill="none" id="UMLDiagram-Gadget" style="stroke:#181818;stroke-width:1.0;"/><text fill="#000000" font-family="sans-serif" font-size="13" lengthAdjust="spacing" textLength="61.412" x="105.17" y="701.677">consists of</text><text fill="#000000" font-family="sans-serif" font-size="13" lengthAdjust="spacing" textLength="7.228" x="96.7153" y="660.731">1</text><text fill="#000000" font-family="sans-serif" font-size="13" lengthAdjust="spacing" textLength="5.057" x="98.792" y="741.9132">*</text></g><!--link Submodule to Gadget--><g id="link_Submodule_Gadget"><path codeLine="98" d="M443.46,616.74 C370.16,656.46 221.19,737.19 147.48,777.13 " fill="none" id="Submodule-Gadget" style="stroke:#181818;stroke-width:1.0;"/><text fill="#000000" font-family="sans-serif" font-size="13" lengthAdjust="spacing" textLength="61.412" x="341.62" y="701.677">consists of</text><text fill="#000000" font-family="sans-serif" font-size="13" lengthAdjust="spacing" textLength="7.228" x="428.538" y="616.7286">1</text><text fill="#000000" font-family="sans-serif" font-size="13" lengthAdjust="spacing" textLength="5.057" x="155.0725" y="768.9617">*</text></g><!--link Submodule to Association--><g id="link_Submodule_Association"><path codeLine="99" d="M502.24,640.96 C523.42,713.14 550.25,850.7 479.17,930.6 C446.81,966.97 307.19,942.09 262.17,960.6 C256.38,962.98 250.64,965.92 245.06,969.2 " fill="none" id="Submodule-Association" style="stroke:#181818;stroke-width:1.0;"/><text fill="#000000" font-family="sans-serif" font-size="13" lengthAdjust="spacing" textLength="61.412" x="526.31" y="806.177">consists of</text><text fill="#000000" font-family="sans-serif" font-size="13" lengthAdjust="spacing" textLength="7.228" x="496.945" y="660.5835">1</text><text fill="#000000" font-family="sans-serif" font-size="13" lengthAdjust="spacing" textLength="5.057" x="248.7338" y="957.5114">*</text></g><!--link Gadget to Attribute--><g id="link_Gadget_Attribute"><path codeLine="100" d="M82.35,849.65 C59.83,905.32 32.14,999.75 64.17,1073.4 C82.54,1115.64 124.79,1149.44 154.86,1169.33 " fill="none" id="Gadget-Attribute" style="stroke:#181818;stroke-width:1.0;"/><text fill="#000000" font-family="sans-serif" font-size="13" lengthAdjust="spacing" textLength="48.412" x="65.17" y="1021.577">contains</text><text fill="#000000" font-family="sans-serif" font-size="13" lengthAdjust="spacing" textLength="7.228" x="61.1734" y="869.7052">1</text><text fill="#000000" font-family="sans-serif" font-size="13" lengthAdjust="spacing" textLength="5.057" x="142.0333" y="1160.3105">*</text></g><!--link Association to Attribute--><g id="link_Association_Attribute"><path codeLine="101" d="M188.17,1065.18 C188.17,1091.87 188.17,1124.84 188.17,1150.05 " fill="none" id="Association-Attribute" style="stroke:#181818;stroke-width:1.0;"/><text fill="#000000" font-family="sans-serif" font-size="13" lengthAdjust="spacing" textLength="48.412" x="189.17" y="1116.477">contains</text><text fill="#000000" font-family="sans-serif" font-size="13" lengthAdjust="spacing" textLength="7.228" x="180.6946" y="1085.1292">1</text><text fill="#000000" font-family="sans-serif" font-size="13" lengthAdjust="spacing" textLength="5.057" x="182.7456" y="1139.0231">*</text></g><!--link Gadget to Association--><g id="link_Gadget_Association"><path codeLine="102" d="M94.01,849.93 C90.87,874.86 90.59,905.39 101.17,930.6 C107.88,946.6 119.22,961.12 131.54,973.45 " fill="none" id="Gadget-Association" style="stroke:#181818;stroke-width:1.0;"/><text fill="#000000" font-family="sans-serif" font-size="13" lengthAdjust="spacing" textLength="66.469" x="102.17" y="909.477">Asscotiates</text><path d="M174.639,884.6 L174.639,925.6 L469.639,925.6 L469.639,894.6 L459.639,884.6 L174.639,884.6 " fill="#FEFFDD" style="stroke:#181818;stroke-width:0.5;"/><path d="M459.639,884.6 L459.639,894.6 L469.639,894.6 L459.639,884.6 " fill="#FEFFDD" style="stroke:#181818;stroke-width:0.5;"/><text fill="#000000" font-family="sans-serif" font-size="13" lengthAdjust="spacing" textLength="267.0073" x="180.639" y="901.677">A Gadget : Association = 1 : 1 occurs when an</text><text fill="#000000" font-family="sans-serif" font-size="13" lengthAdjust="spacing" textLength="274.5863" x="180.639" y="917.277">Association connects back to the same Gadget.</text><text fill="#000000" font-family="sans-serif" font-size="13" lengthAdjust="spacing" textLength="25.298" x="65.9855" y="869.5495">1...2</text><text fill="#000000" font-family="sans-serif" font-size="13" lengthAdjust="spacing" textLength="5.057" x="118.5989" y="963.7075">*</text></g><!--link UMLProject to Submodule--><g id="link_UMLProject_Submodule"><path codeLine="107" d="M500.32,416.75 C493.29,425.82 487.01,435.97 483.17,446.6 C471.92,477.74 473.02,515.15 476.75,544.17 " fill="none" id="UMLProject-Submodule" style="stroke:#181818;stroke-width:1.0;"/><text fill="#000000" font-family="sans-serif" font-size="13" lengthAdjust="spacing" textLength="36.842" x="610.6521" y="459.677">knows</text><path d="M488.17,469.2 L488.17,510.2 L769.17,510.2 L769.17,479.2 L759.17,469.2 L488.17,469.2 " fill="#FEFFDD" style="stroke:#181818;stroke-width:0.5;"/><path d="M759.17,469.2 L759.17,479.2 L769.17,479.2 L759.17,469.2 " fill="#FEFFDD" style="stroke:#181818;stroke-width:0.5;"/><text fill="#000000" font-family="sans-serif" font-size="13" lengthAdjust="spacing" textLength="260.8063" x="494.17" y="486.277">This enables UMLProject import Submodules</text><text fill="#000000" font-family="sans-serif" font-size="13" lengthAdjust="spacing" textLength="202.2932" x="497.784" y="501.877">to UMLDiagrams under the project.</text><text fill="#000000" font-family="sans-serif" font-size="13" lengthAdjust="spacing" textLength="7.228" x="486.1589" y="436.7025">1</text><text fill="#000000" font-family="sans-serif" font-size="13" lengthAdjust="spacing" textLength="5.057" x="470.004" y="533.0764">*</text></g><!--link User to Session--><g id="link_User_Session"><path codeLine="113" d="M1102.73,69.67 C1093.14,91.43 1080.03,121.15 1069.07,146 " fill="none" id="User-Session" style="stroke:#181818;stroke-width:1.0;"/><text fill="#000000" font-family="sans-serif" font-size="13" lengthAdjust="spacing" textLength="31.07" x="1089.26" y="112.477">hosts</text><text fill="#000000" font-family="sans-serif" font-size="13" lengthAdjust="spacing" textLength="7.228" x="1092.418" y="89.4783">1</text><text fill="#000000" font-family="sans-serif" font-size="13" lengthAdjust="spacing" textLength="7.228" x="1064.6425" y="134.9108">1</text></g><!--link User to Session--><g id="link_User_Session"><path codeLine="114" d="M1092.19,52.3 C1075.87,62.69 1055.6,78.86 1046.17,99.4 C1039.56,113.79 1038.25,130.77 1039.17,146.32 " fill="none" id="User-Session-1" style="stroke:#181818;stroke-width:1.0;"/><text fill="#000000" font-family="sans-serif" font-size="13" lengthAdjust="spacing" textLength="26.728" x="1047.17" y="112.477">joins</text><text fill="#000000" font-family="sans-serif" font-size="13" lengthAdjust="spacing" textLength="5.057" x="1079.7514" y="51.3177">*</text><text fill="#000000" font-family="sans-serif" font-size="13" lengthAdjust="spacing" textLength="7.228" x="1030.2736" y="134.9323">1</text></g><!--link Session to UMLProject--><g id="link_Session_UMLProject"><path codeLine="115" d="M1012.59,199.04 C948.15,206.54 808.77,226.97 700.17,272.4 C658.04,290.02 614.84,318.75 583.96,341.49 " fill="none" id="Session-UMLProject" style="stroke:#181818;stroke-width:1.0;"/><text fill="#000000" font-family="sans-serif" font-size="13" lengthAdjust="spacing" textLength="66.4821" x="701.17" y="294.477">connects to</text><path d="M773.6521,277.4 L773.6521,302.4 L935.6521,302.4 L935.6521,287.4 L925.6521,277.4 L773.6521,277.4 " fill="#FEFFDD" style="stroke:#181818;stroke-width:0.5;"/><path d="M925.6521,277.4 L925.6521,287.4 L935.6521,287.4 L925.6521,277.4 " fill="#FEFFDD" style="stroke:#181818;stroke-width:0.5;"/><text fill="#000000" font-family="sans-serif" font-size="13" lengthAdjust="spacing" textLength="141.6221" x="779.6521" y="294.477">A Session binds a Projet</text><text fill="#000000" font-family="sans-serif" font-size="13" lengthAdjust="spacing" textLength="7.228" x="997.5535" y="195.589">1</text><text fill="#000000" font-family="sans-serif" font-size="13" lengthAdjust="spacing" textLength="7.228" x="591.8111" y="331.4932">1</text></g><!--link Session to Chatroom--><g id="link_Session_Chatroom"><path codeLine="119" d="M1064.72,242.85 C1077.92,280.68 1095.67,331.58 1104.94,358.15 " fill="none" id="Session-Chatroom" style="stroke:#181818;stroke-width:1.0;"/><text fill="#000000" font-family="sans-serif" font-size="13" lengthAdjust="spacing" textLength="48.412" x="1088.16" y="294.477">contains</text><text fill="#000000" font-family="sans-serif" font-size="13" lengthAdjust="spacing" textLength="7.228" x="1059.4891" y="262.4856">1</text><text fill="#000000" font-family="sans-serif" font-size="13" lengthAdjust="spacing" textLength="7.228" x="1094.8749" y="346.9236">1</text></g><!--link Chatroom to Message--><g id="link_Chatroom_Message"><path codeLine="120" d="M1120.14,395.73 C1126.81,409.39 1135.83,428.88 1142.17,446.6 C1153.63,478.63 1163.54,515.69 1170.5,544.32 " fill="none" id="Chatroom-Message" style="stroke:#181818;stroke-width:1.0;"/><text fill="#000000" font-family="sans-serif" font-size="13" lengthAdjust="spacing" textLength="48.412" x="1163.62" y="485.177">contains</text><text fill="#000000" font-family="sans-serif" font-size="13" lengthAdjust="spacing" textLength="7.228" x="1114.7803" y="415.6002">1</text><text fill="#000000" font-family="sans-serif" font-size="13" lengthAdjust="spacing" textLength="5.057" x="1163.5693" y="533.2484">*</text></g><!--link User to Message--><g id="link_User_Message"><path codeLine="121" d="M1126.82,69.87 C1149.53,137.08 1202.11,302.83 1220.17,446.6 C1223.94,476.59 1227.19,485.21 1220.17,514.6 C1217.77,524.66 1213.83,534.89 1209.35,544.47 " fill="none" id="User-Message" style="stroke:#181818;stroke-width:1.0;"/><text fill="#000000" font-family="sans-serif" font-size="13" lengthAdjust="spacing" textLength="34.684" x="1195.59" y="294.477">sends</text><text fill="#000000" font-family="sans-serif" font-size="13" lengthAdjust="spacing" textLength="7.228" x="1121.2053" y="89.471">1</text><text fill="#000000" font-family="sans-serif" font-size="13" lengthAdjust="spacing" textLength="5.057" x="1208.286" y="533.0746">*</text></g><!--link TextStyle to Attribute--><g id="link_TextStyle_Attribute"><path codeLine="122" d="M283.57,1073.8 C271.55,1089 258.44,1105.4 246.17,1120.4 C238.27,1130.06 229.64,1140.38 221.52,1150.01 " fill="none" id="TextStyle-Attribute" style="stroke:#181818;stroke-width:1.0;"/><text fill="#000000" font-family="sans-serif" font-size="13" lengthAdjust="spacing" textLength="55.6271" x="260.63" y="1116.477">describes</text><text fill="#000000" font-family="sans-serif" font-size="13" lengthAdjust="spacing" textLength="7.228" x="271.1376" y="1093.3464">1</text><text fill="#000000" font-family="sans-serif" font-size="13" lengthAdjust="spacing" textLength="7.228" x="219.6704" y="1138.9763">1</text></g><!--link UMLProject to Timer--><g id="link_UMLProject_Timer"><path codeLine="123" d="M584.08,378.16 C637.51,380.82 726.89,393.59 778.17,446.6 C840,510.52 785.86,561.85 827.17,640.6 C856.66,696.82 909.72,749.72 941.37,778.39 " fill="none" id="UMLProject-Timer" style="stroke:#181818;stroke-width:1.0;"/><text fill="#000000" font-family="sans-serif" font-size="13" lengthAdjust="spacing" textLength="45.5131" x="861.819" y="579.177">inquires</text><path d="M832.17,588.7 L832.17,613.7 L936.17,613.7 L936.17,598.7 L926.17,588.7 L832.17,588.7 " fill="#FEFFDD" style="stroke:#181818;stroke-width:0.5;"/><path d="M926.17,588.7 L926.17,598.7 L936.17,598.7 L926.17,588.7 " fill="#FEFFDD" style="stroke:#181818;stroke-width:0.5;"/><text fill="#000000" font-family="sans-serif" font-size="13" lengthAdjust="spacing" textLength="83.8111" x="838.17" y="605.777">For auto-save.</text><text fill="#000000" font-family="sans-serif" font-size="13" lengthAdjust="spacing" textLength="7.228" x="591.654" y="374.2744">1</text><text fill="#000000" font-family="sans-serif" font-size="13" lengthAdjust="spacing" textLength="7.228" x="926.5255" y="767.2943">1</text></g><!--link Session to Timer--><g id="link_Session_Timer"><path codeLine="127" d="M1026.16,242.74 C1004.43,292.31 972.68,373.03 960.17,446.6 C939.09,570.53 956.15,722.36 963.87,778.43 " fill="none" id="Session-Timer" style="stroke:#181818;stroke-width:1.0;"/><text fill="#000000" font-family="sans-serif" font-size="13" lengthAdjust="spacing" textLength="45.5131" x="1024.446" y="467.177">inquires</text><path d="M965.17,476.7 L965.17,501.7 L1129.17,501.7 L1129.17,486.7 L1119.17,476.7 L965.17,476.7 " fill="#FEFFDD" style="stroke:#181818;stroke-width:0.5;"/><path d="M1119.17,476.7 L1119.17,486.7 L1129.17,486.7 L1119.17,476.7 " fill="#FEFFDD" style="stroke:#181818;stroke-width:0.5;"/><text fill="#000000" font-family="sans-serif" font-size="13" lengthAdjust="spacing" textLength="143.0652" x="971.17" y="493.777">For conneection timeout.</text><text fill="#000000" font-family="sans-serif" font-size="13" lengthAdjust="spacing" textLength="7.228" x="1015.7476" y="262.3608">1</text><text fill="#000000" font-family="sans-serif" font-size="13" lengthAdjust="spacing" textLength="7.228" x="955.0724" y="767.3451">1</text></g><!--link Message to Timer--><g id="link_Message_Timer"><path codeLine="131" d="M1142.42,631.09 C1097.97,674.08 1026.56,743.15 990.14,778.38 " fill="none" id="Message-Timer" style="stroke:#181818;stroke-width:1.0;"/><text fill="#000000" font-family="sans-serif" font-size="13" lengthAdjust="spacing" textLength="45.5131" x="1180.1561" y="683.677">inquires</text><path d="M1104.63,693.2 L1104.63,718.2 L1300.63,718.2 L1300.63,703.2 L1290.63,693.2 L1104.63,693.2 " fill="#FEFFDD" style="stroke:#181818;stroke-width:0.5;"/><path d="M1290.63,693.2 L1290.63,703.2 L1300.63,703.2 L1290.63,693.2 " fill="#FEFFDD" style="stroke:#181818;stroke-width:0.5;"/><text fill="#000000" font-family="sans-serif" font-size="13" lengthAdjust="spacing" textLength="175.5652" x="1110.63" y="710.277">For message-sending timeout.</text><text fill="#000000" font-family="sans-serif" font-size="13" lengthAdjust="spacing" textLength="7.228" x="1127.6505" y="633.9361">1</text><text fill="#000000" font-family="sans-serif" font-size="13" lengthAdjust="spacing" textLength="7.228" x="988.4025" y="767.2817">1</text></g><!--link Verifier to UMLDiagram--><g id="link_Verifier_UMLDiagram"><path codeLine="135" d="M28.99,408.47 C23.76,436.95 19.7,480.13 33.17,514.6 C37.34,525.27 43.75,535.35 51.06,544.49 " fill="none" id="Verifier-UMLDiagram" style="stroke:#181818;stroke-width:1.0;"/><text fill="#000000" font-family="sans-serif" font-size="13" lengthAdjust="spacing" textLength="40.456" x="34.17" y="485.177">checks</text><text fill="#000000" font-family="sans-serif" font-size="13" lengthAdjust="spacing" textLength="7.228" x="19.91" y="428.2783">1</text><text fill="#000000" font-family="sans-serif" font-size="13" lengthAdjust="spacing" textLength="7.228" x="35.4094" y="533.0977">1</text></g><!--SRC=[xLRVRzis47xNNt78Ize15kgWQ5e11TOcwT2qneBQoJjDqHPhYVJ8axjisF_UesH99qLflQ9Fc_KYaRhxxiTtF5wcKmLIEvchw3GB2u7ezB945KKHq6ENdvL4kFNAmT_LJdXqsduQKQXgyKzVOVRnnjdgyzjguSc5nwjKupZEfHPh9mg6izAvwW7W_RPRB8NSh9qjJNfXS-iUit9QkM5HWTFh3EjrUAw4pBXTxK50MY_YMaoPj5BjkVgRIDUAXxkkDXRSDzdpQ6kzHcqDS_5UkP4ilF7UIYs2BCCNtMxFY4VXy6Q8JJxV76flNYuBcvQvEe2yDst5743dN7dV3uB1PjPZFuY5BdfXOUb7G2yoWSxQK24ZVsTaKgmVYSHJLfHZz1XKfdC2oJwPBRPZd3HnZoCFeNfSzv4Mwa-SutqlsolBTCF2wx-wL6Z_rkOfMxv7aMlPPLBusn1OhitOuGnfvSVvIwRCmePTMxQiSOKxvVHAztHmK76CcjDVAQjO5dcDmLh1oVG49XCu-UM47x042c68eXgWEv90XK8HRBfI2rfxA2bC21EACaVDq7pSYb-N7WbWeo3skG6q4E_ablHhaVuXPlumB_TdEWbqUktHWrrLujq9-M5fVgWVgkonk7nRS9Kq2ctgZ76WWnHQx3YEpnxnXrRI8YqFeQKDd6EyXYdjJC5AMJfV5Hc8hlTmKVBE4Ac-wjs1ACmKUEeoU-G1OOEguZ5tcKvWO-mNvlpI8bAJ67g_oAZ1qtMop9NdgBhOMiTQeMyrWeEiuA0CHwroULlhZjPNk44RH-dLTCAaQdk-awd2U23qsJRaDNiCYtcTTBb4-ttY6h2bDccuvYeOV9Zj4QDjrnqKLxlFM6bwy42qbvEUMEZBjKpN79bjNjcfyf8MUtv6cWszweQNW3P_bDgfxnV5E-j0b6WdNknKV50-_hMDnav563aSyB3kmICMczpy38j5ZJK9MTPc_GshRUFlLrlNkMMcvCRJRH5rJJzZK-L_VOey3e370V0u00weEOvznx7lEFOTnxxZsFT_6ljkSc6Gf62dN9MbQNpsxEnvVFvaBiB5luLdvp1zbKnV9jDpk9Wl8Fn-6ZsPlL-0jwMJ2bBgXHN5fFyqkXOx0PzA4nnDuFUjCjUN7veDk38xxQmfmYLxVJVh15uydxpLmQ8ZJ-1k5bsgbQ3xWZIa3P4dSBjuDtaPVHHcNL964ee-kg1P3zqz_Pj_1G00]--></g></svg>