<svg xmlns="http://www.w3.org/2000/svg" xmlns:xlink="http://www.w3.org/1999/xlink" contentStyleType="text/css" height="787px" preserveAspectRatio="none" style="width:891px;height:787px;background:#FFFFFF;" version="1.1" viewBox="0 0 891 787" width="891px" zoomAndPan="magnify"><defs/><g><rect fill="#FFFFFF" height="634.0003" style="stroke:#181818;stroke-width:1.0;" width="10" x="131.1271" y="93"/><rect fill="#FFFFFF" height="574.8002" style="stroke:#181818;stroke-width:1.0;" width="10" x="287.7556" y="122.6"/><rect fill="#FFFFFF" height="515.6002" style="stroke:#181818;stroke-width:1.0;" width="10" x="447.506" y="152.2"/><rect fill="#FFFFFF" height="76.2" style="stroke:#181818;stroke-width:1.0;" width="10" x="452.506" y="359.4001"/><rect fill="#FFFFFF" height="29.6" style="stroke:#181818;stroke-width:1.0;" width="10" x="613.4132" y="231"/><rect fill="#FFFFFF" height="29.6" style="stroke:#181818;stroke-width:1.0;" width="10" x="770.0906" y="292.2001"/><rect fill="#FFFFFF" height="29.6" style="stroke:#181818;stroke-width:1.0;" width="10" x="770.0906" y="535.4001"/><rect fill="#FFFFFF" height="29.6" style="stroke:#181818;stroke-width:1.0;" width="10" x="770.0906" y="594.6002"/><rect fill="#FFFFFF" height="681.2003" style="stroke:#000000;stroke-width:1.5;" width="882.2333" x="3" y="53.7999"/><rect fill="#FFFFFF" height="290.4001" style="stroke:#000000;stroke-width:1.5;" width="491.3561" x="383.8772" y="167.2"/><rect fill="#FFFFFF" height="258.8001" style="stroke:#000000;stroke-width:1.5;" width="471.3561" x="393.8772" y="191.8"/><rect fill="#FFFFFF" height="182.0001" style="stroke:none;stroke-width:1.0;" width="471.3561" x="393.8772" y="268.6"/><rect fill="#FFFFFF" height="167.6001" style="stroke:#000000;stroke-width:1.5;" width="491.3561" x="383.8772" y="471.6001"/><rect fill="#FFFFFF" height="136.0001" style="stroke:#000000;stroke-width:1.5;" width="471.3561" x="393.8772" y="496.2001"/><line style="stroke:#181818;stroke-width:0.5;stroke-dasharray:5.0,5.0;" x1="135.6203" x2="135.6203" y1="36.7999" y2="752.0002"/><line style="stroke:#181818;stroke-width:0.5;stroke-dasharray:5.0,5.0;" x1="292.634" x2="292.634" y1="36.7999" y2="752.0002"/><line style="stroke:#181818;stroke-width:0.5;stroke-dasharray:5.0,5.0;" x1="451.8772" x2="451.8772" y1="36.7999" y2="752.0002"/><line style="stroke:#181818;stroke-width:0.5;stroke-dasharray:5.0,5.0;" x1="617.8785" x2="617.8785" y1="36.7999" y2="752.0002"/><line style="stroke:#181818;stroke-width:0.5;stroke-dasharray:5.0,5.0;" x1="774.948" x2="774.948" y1="36.7999" y2="752.0002"/><rect fill="#E2E2F0" height="30.7999" rx="2.5" ry="2.5" style="stroke:#181818;stroke-width:0.5;" width="91.0137" x="90.6203" y="5"/><text fill="#000000" font-family="sans-serif" font-size="14" lengthAdjust="spacing" textLength="77.0137" x="97.6203" y="25.0059">:UMLProject</text><rect fill="#E2E2F0" height="30.7999" rx="2.5" ry="2.5" style="stroke:#181818;stroke-width:0.5;" width="91.0137" x="90.6203" y="751.0002"/><text fill="#000000" font-family="sans-serif" font-size="14" lengthAdjust="spacing" textLength="77.0137" x="97.6203" y="771.0062">:UMLProject</text><rect fill="#E2E2F0" height="30.7999" rx="2.5" ry="2.5" style="stroke:#181818;stroke-width:0.5;" width="202.2432" x="191.634" y="5"/><text fill="#000000" font-family="sans-serif" font-size="14" lengthAdjust="spacing" textLength="188.2432" x="198.634" y="25.0059">currentDiagram:*UMLDiagram</text><rect fill="#E2E2F0" height="30.7999" rx="2.5" ry="2.5" style="stroke:#181818;stroke-width:0.5;" width="202.2432" x="191.634" y="751.0002"/><text fill="#000000" font-family="sans-serif" font-size="14" lengthAdjust="spacing" textLength="188.2432" x="198.634" y="771.0062">currentDiagram:*UMLDiagram</text><rect fill="#E2E2F0" height="30.7999" rx="2.5" ry="2.5" style="stroke:#181818;stroke-width:0.5;" width="97.2576" x="403.8772" y="5"/><text fill="#000000" font-family="sans-serif" font-size="14" lengthAdjust="spacing" textLength="83.2576" x="410.8772" y="25.0059">:Components</text><rect fill="#E2E2F0" height="30.7999" rx="2.5" ry="2.5" style="stroke:#181818;stroke-width:0.5;" width="97.2576" x="403.8772" y="751.0002"/><text fill="#000000" font-family="sans-serif" font-size="14" lengthAdjust="spacing" textLength="83.2576" x="410.8772" y="771.0062">:Components</text><rect fill="#E2E2F0" height="30.7999" rx="2.5" ry="2.5" style="stroke:#181818;stroke-width:0.5;" width="133.0695" x="551.8785" y="5"/><text fill="#000000" font-family="sans-serif" font-size="14" lengthAdjust="spacing" textLength="119.0695" x="558.8785" y="25.0059">gadget:Component</text><rect fill="#E2E2F0" height="30.7999" rx="2.5" ry="2.5" style="stroke:#181818;stroke-width:0.5;" width="133.0695" x="551.8785" y="751.0002"/><text fill="#000000" font-family="sans-serif" font-size="14" lengthAdjust="spacing" textLength="119.0695" x="558.8785" y="771.0062">gadget:Component</text><rect fill="#E2E2F0" height="30.7999" rx="2.5" ry="2.5" style="stroke:#181818;stroke-width:0.5;" width="160.2854" x="694.948" y="5"/><text fill="#000000" font-family="sans-serif" font-size="14" lengthAdjust="spacing" textLength="146.2854" x="701.948" y="25.0059">association:Component</text><rect fill="#E2E2F0" height="30.7999" rx="2.5" ry="2.5" style="stroke:#181818;stroke-width:0.5;" width="160.2854" x="694.948" y="751.0002"/><text fill="#000000" font-family="sans-serif" font-size="14" lengthAdjust="spacing" textLength="146.2854" x="701.948" y="771.0062">association:Component</text><rect fill="#FFFFFF" height="634.0003" style="stroke:#181818;stroke-width:1.0;" width="10" x="131.1271" y="93"/><rect fill="#FFFFFF" height="574.8002" style="stroke:#181818;stroke-width:1.0;" width="10" x="287.7556" y="122.6"/><rect fill="#FFFFFF" height="515.6002" style="stroke:#181818;stroke-width:1.0;" width="10" x="447.506" y="152.2"/><rect fill="#FFFFFF" height="76.2" style="stroke:#181818;stroke-width:1.0;" width="10" x="452.506" y="359.4001"/><rect fill="#FFFFFF" height="29.6" style="stroke:#181818;stroke-width:1.0;" width="10" x="613.4132" y="231"/><rect fill="#FFFFFF" height="29.6" style="stroke:#181818;stroke-width:1.0;" width="10" x="770.0906" y="292.2001"/><rect fill="#FFFFFF" height="29.6" style="stroke:#181818;stroke-width:1.0;" width="10" x="770.0906" y="535.4001"/><rect fill="#FFFFFF" height="29.6" style="stroke:#181818;stroke-width:1.0;" width="10" x="770.0906" y="594.6002"/><path d="M3,53.7999 L94.956,53.7999 L94.956,61.3999 L84.956,71.3999 L3,71.3999 L3,53.7999 " fill="#FFD700" style="stroke:#000000;stroke-width:1.5;"/><rect fill="none" height="681.2003" style="stroke:#000000;stroke-width:1.5;" width="882.2333" x="3" y="53.7999"/><text fill="#000000" font-family="sans-serif" font-size="13" font-weight="bold" lengthAdjust="spacing" textLength="46.956" x="18" y="66.8769">drawAll</text><polygon fill="#181818" points="119.1271,89,129.1271,93,119.1271,97,123.1271,93" style="stroke:#181818;stroke-width:1.0;"/><line style="stroke:#181818;stroke-width:1.0;" x1="0" x2="125.1271" y1="93" y2="93"/><text fill="#000000" font-family="sans-serif" font-size="13" font-weight="bold" lengthAdjust="spacing" textLength="7.228" x="7" y="87.477">1</text><text fill="#000000" font-family="sans-serif" font-size="13" lengthAdjust="spacing" textLength="93.8991" x="18.228" y="87.477">drawAll(graphic)</text><polygon fill="#181818" points="275.7556,118.6,285.7556,122.6,275.7556,126.6,279.7556,122.6" style="stroke:#181818;stroke-width:1.0;"/><line style="stroke:#181818;stroke-width:1.0;" x1="141.1271" x2="281.7556" y1="122.6" y2="122.6"/><text fill="#000000" font-family="sans-serif" font-size="13" font-weight="bold" lengthAdjust="spacing" textLength="7.228" x="148.1271" y="117.077">2</text><text fill="#000000" font-family="sans-serif" font-size="13" lengthAdjust="spacing" textLength="93.8991" x="159.3551" y="117.077">drawAll(graphic)</text><polygon fill="#181818" points="435.506,148.2,445.506,152.2,435.506,156.2,439.506,152.2" style="stroke:#181818;stroke-width:1.0;"/><line style="stroke:#181818;stroke-width:1.0;" x1="297.7556" x2="441.506" y1="152.2" y2="152.2"/><text fill="#000000" font-family="sans-serif" font-size="13" font-weight="bold" lengthAdjust="spacing" textLength="7.228" x="304.7556" y="146.677">3</text><text fill="#000000" font-family="sans-serif" font-size="13" lengthAdjust="spacing" textLength="93.8991" x="315.9836" y="146.677">drawAll(graphic)</text><path d="M383.8772,167.2 L456.3202,167.2 L456.3202,174.8 L446.3202,184.8 L383.8772,184.8 L383.8772,167.2 " fill="#FFD700" style="stroke:#000000;stroke-width:1.5;"/><rect fill="none" height="290.4001" style="stroke:#000000;stroke-width:1.5;" width="491.3561" x="383.8772" y="167.2"/><text fill="#000000" font-family="sans-serif" font-size="13" font-weight="bold" lengthAdjust="spacing" textLength="27.443" x="398.8772" y="180.277">loop</text><text fill="#000000" font-family="sans-serif" font-size="11" font-weight="bold" lengthAdjust="spacing" textLength="147.8939" x="471.3202" y="179.4189">[component in components]</text><path d="M393.8772,191.8 L454.0482,191.8 L454.0482,199.4 L444.0482,209.4 L393.8772,209.4 L393.8772,191.8 " fill="#FFD700" style="stroke:#000000;stroke-width:1.5;"/><rect fill="none" height="258.8001" style="stroke:#000000;stroke-width:1.5;" width="471.3561" x="393.8772" y="191.8"/><text fill="#000000" font-family="sans-serif" font-size="13" font-weight="bold" lengthAdjust="spacing" textLength="15.171" x="408.8772" y="204.877">alt</text><text fill="#000000" font-family="sans-serif" font-size="11" font-weight="bold" lengthAdjust="spacing" textLength="127.1261" x="469.0482" y="204.0189">[component is a gadget]</text><polygon fill="#181818" points="601.4132,227,611.4132,231,601.4132,235,605.4132,231" style="stroke:#181818;stroke-width:1.0;"/><line style="stroke:#181818;stroke-width:1.0;" x1="457.506" x2="607.4132" y1="231" y2="231"/><text fill="#000000" font-family="sans-serif" font-size="13" font-weight="bold" lengthAdjust="spacing" textLength="7.228" x="464.506" y="225.477">4</text><text fill="#000000" font-family="sans-serif" font-size="13" lengthAdjust="spacing" textLength="79.4561" x="475.7341" y="225.477">draw(graphic)</text><polygon fill="#181818" points="468.506,256.6,458.506,260.6,468.506,264.6,464.506,260.6" style="stroke:#181818;stroke-width:1.0;"/><line style="stroke:#181818;stroke-width:1.0;stroke-dasharray:2.0,2.0;" x1="462.506" x2="617.4132" y1="260.6" y2="260.6"/><text fill="#000000" font-family="sans-serif" font-size="13" font-weight="bold" lengthAdjust="spacing" textLength="7.228" x="474.506" y="255.077">5</text><text fill="#000000" font-family="sans-serif" font-size="13" lengthAdjust="spacing" textLength="3.614" x="485.7341" y="255.077">&#160;</text><line style="stroke:#000000;stroke-width:1.0;stroke-dasharray:2.0,2.0;" x1="393.8772" x2="865.2333" y1="269.6" y2="269.6"/><polygon fill="#181818" points="758.0906,288.2001,768.0906,292.2001,758.0906,296.2001,762.0906,292.2001" style="stroke:#181818;stroke-width:1.0;"/><line style="stroke:#181818;stroke-width:1.0;" x1="457.506" x2="764.0906" y1="292.2001" y2="292.2001"/><text fill="#000000" font-family="sans-serif" font-size="13" font-weight="bold" lengthAdjust="spacing" textLength="7.228" x="464.506" y="286.677">6</text><text fill="#000000" font-family="sans-serif" font-size="13" lengthAdjust="spacing" textLength="129.7012" x="475.7341" y="286.677">parents = getParents()</text><polygon fill="#181818" points="468.506,317.8001,458.506,321.8001,468.506,325.8001,464.506,321.8001" style="stroke:#181818;stroke-width:1.0;"/><line style="stroke:#181818;stroke-width:1.0;stroke-dasharray:2.0,2.0;" x1="462.506" x2="774.0906" y1="321.8001" y2="321.8001"/><text fill="#000000" font-family="sans-serif" font-size="13" font-weight="bold" lengthAdjust="spacing" textLength="7.228" x="474.506" y="316.2771">7</text><text fill="#000000" font-family="sans-serif" font-size="13" lengthAdjust="spacing" textLength="3.614" x="485.7341" y="316.2771">&#160;</text><line style="stroke:#181818;stroke-width:1.0;" x1="457.506" x2="504.506" y1="346.4001" y2="346.4001"/><line style="stroke:#181818;stroke-width:1.0;" x1="504.506" x2="504.506" y1="346.4001" y2="359.4001"/><line style="stroke:#181818;stroke-width:1.0;" x1="463.506" x2="504.506" y1="359.4001" y2="359.4001"/><polygon fill="#181818" points="473.506,355.4001,463.506,359.4001,473.506,363.4001,469.506,359.4001" style="stroke:#181818;stroke-width:1.0;"/><text fill="#000000" font-family="sans-serif" font-size="13" font-weight="bold" lengthAdjust="spacing" textLength="7.228" x="469.506" y="340.8771">8</text><text fill="#000000" font-family="sans-serif" font-size="13" lengthAdjust="spacing" textLength="120.6792" x="480.7341" y="340.8771">routeMap[parents]++</text><path d="M467,377.4001 L467,402.4001 L760,402.4001 L760,387.4001 L750,377.4001 L467,377.4001 " fill="#FEFFDD" style="stroke:#181818;stroke-width:0.5;"/><path d="M750,377.4001 L750,387.4001 L760,387.4001 L750,377.4001 " fill="#FEFFDD" style="stroke:#181818;stroke-width:0.5;"/><text fill="#000000" font-family="sans-serif" font-size="13" lengthAdjust="spacing" textLength="272.3893" x="473" y="394.4771">routeMap is to assist in drawing the association</text><line style="stroke:#181818;stroke-width:1.0;stroke-dasharray:2.0,2.0;" x1="462.506" x2="504.506" y1="434.6001" y2="434.6001"/><line style="stroke:#181818;stroke-width:1.0;stroke-dasharray:2.0,2.0;" x1="504.506" x2="504.506" y1="434.6001" y2="447.6001"/><line style="stroke:#181818;stroke-width:1.0;stroke-dasharray:2.0,2.0;" x1="457.506" x2="504.506" y1="447.6001" y2="447.6001"/><polygon fill="#181818" points="467.506,443.6001,457.506,447.6001,467.506,451.6001,463.506,447.6001" style="stroke:#181818;stroke-width:1.0;"/><text fill="#000000" font-family="sans-serif" font-size="13" font-weight="bold" lengthAdjust="spacing" textLength="7.228" x="469.506" y="429.0771">9</text><text fill="#000000" font-family="sans-serif" font-size="13" lengthAdjust="spacing" textLength="3.614" x="480.7341" y="429.0771">&#160;</text><path d="M383.8772,471.6001 L456.3202,471.6001 L456.3202,479.2001 L446.3202,489.2001 L383.8772,489.2001 L383.8772,471.6001 " fill="#FFD700" style="stroke:#000000;stroke-width:1.5;"/><rect fill="none" height="167.6001" style="stroke:#000000;stroke-width:1.5;" width="491.3561" x="383.8772" y="471.6001"/><text fill="#000000" font-family="sans-serif" font-size="13" font-weight="bold" lengthAdjust="spacing" textLength="27.443" x="398.8772" y="484.6771">loop</text><text fill="#000000" font-family="sans-serif" font-size="11" font-weight="bold" lengthAdjust="spacing" textLength="147.8939" x="471.3202" y="483.819">[component in components]</text><path d="M393.8772,496.2001 L459.0922,496.2001 L459.0922,503.8001 L449.0922,513.8001 L393.8772,513.8001 L393.8772,496.2001 " fill="#FFD700" style="stroke:#000000;stroke-width:1.5;"/><rect fill="none" height="136.0001" style="stroke:#000000;stroke-width:1.5;" width="471.3561" x="393.8772" y="496.2001"/><text fill="#000000" font-family="sans-serif" font-size="13" font-weight="bold" lengthAdjust="spacing" textLength="20.215" x="408.8772" y="509.2771">opt</text><text fill="#000000" font-family="sans-serif" font-size="11" font-weight="bold" lengthAdjust="spacing" textLength="151.5899" x="474.0922" y="508.419">[component is a association]</text><polygon fill="#181818" points="758.0906,531.4001,768.0906,535.4001,758.0906,539.4001,762.0906,535.4001" style="stroke:#181818;stroke-width:1.0;"/><line style="stroke:#181818;stroke-width:1.0;" x1="457.506" x2="764.0906" y1="535.4001" y2="535.4001"/><text fill="#000000" font-family="sans-serif" font-size="13" font-weight="bold" lengthAdjust="spacing" textLength="14.456" x="464.506" y="529.8771">10</text><text fill="#000000" font-family="sans-serif" font-size="13" lengthAdjust="spacing" textLength="129.7012" x="482.9621" y="529.8771">parents = getParents()</text><polygon fill="#181818" points="468.506,561.0002,458.506,565.0002,468.506,569.0002,464.506,565.0002" style="stroke:#181818;stroke-width:1.0;"/><line style="stroke:#181818;stroke-width:1.0;stroke-dasharray:2.0,2.0;" x1="462.506" x2="774.0906" y1="565.0002" y2="565.0002"/><text fill="#000000" font-family="sans-serif" font-size="13" font-weight="bold" lengthAdjust="spacing" textLength="14.456" x="474.506" y="559.4772">11</text><text fill="#000000" font-family="sans-serif" font-size="13" lengthAdjust="spacing" textLength="3.614" x="492.9621" y="559.4772">&#160;</text><polygon fill="#181818" points="758.0906,590.6002,768.0906,594.6002,758.0906,598.6002,762.0906,594.6002" style="stroke:#181818;stroke-width:1.0;"/><line style="stroke:#181818;stroke-width:1.0;" x1="457.506" x2="764.0906" y1="594.6002" y2="594.6002"/><text fill="#000000" font-family="sans-serif" font-size="13" font-weight="bold" lengthAdjust="spacing" textLength="14.456" x="464.506" y="589.0772">12</text><text fill="#000000" font-family="sans-serif" font-size="13" lengthAdjust="spacing" textLength="200.8373" x="482.9621" y="589.0772">draw(graphic, routeMap[parents]--)</text><polygon fill="#181818" points="468.506,620.2002,458.506,624.2002,468.506,628.2002,464.506,624.2002" style="stroke:#181818;stroke-width:1.0;"/><line style="stroke:#181818;stroke-width:1.0;stroke-dasharray:2.0,2.0;" x1="462.506" x2="774.0906" y1="624.2002" y2="624.2002"/><text fill="#000000" font-family="sans-serif" font-size="13" font-weight="bold" lengthAdjust="spacing" textLength="14.456" x="474.506" y="618.6772">13</text><text fill="#000000" font-family="sans-serif" font-size="13" lengthAdjust="spacing" textLength="3.614" x="492.9621" y="618.6772">&#160;</text><polygon fill="#181818" points="308.7556,663.8002,298.7556,667.8002,308.7556,671.8002,304.7556,667.8002" style="stroke:#181818;stroke-width:1.0;"/><line style="stroke:#181818;stroke-width:1.0;stroke-dasharray:2.0,2.0;" x1="302.7556" x2="451.506" y1="667.8002" y2="667.8002"/><text fill="#000000" font-family="sans-serif" font-size="13" font-weight="bold" lengthAdjust="spacing" textLength="14.456" x="314.7556" y="662.2772">14</text><text fill="#000000" font-family="sans-serif" font-size="13" lengthAdjust="spacing" textLength="3.614" x="333.2116" y="662.2772">&#160;</text><polygon fill="#181818" points="152.1271,693.4002,142.1271,697.4002,152.1271,701.4002,148.1271,697.4002" style="stroke:#181818;stroke-width:1.0;"/><line style="stroke:#181818;stroke-width:1.0;stroke-dasharray:2.0,2.0;" x1="146.1271" x2="291.7556" y1="697.4002" y2="697.4002"/><text fill="#000000" font-family="sans-serif" font-size="13" font-weight="bold" lengthAdjust="spacing" textLength="14.456" x="158.1271" y="691.8772">15</text><text fill="#000000" font-family="sans-serif" font-size="13" lengthAdjust="spacing" textLength="3.614" x="176.5832" y="691.8772">&#160;</text><polygon fill="#181818" points="11,723.0002,1,727.0002,11,731.0002,7,727.0002" style="stroke:#181818;stroke-width:1.0;"/><line style="stroke:#181818;stroke-width:1.0;stroke-dasharray:2.0,2.0;" x1="5" x2="135.1271" y1="727.0002" y2="727.0002"/><text fill="#000000" font-family="sans-serif" font-size="13" font-weight="bold" lengthAdjust="spacing" textLength="14.456" x="17" y="721.4772">16</text><text fill="#000000" font-family="sans-serif" font-size="13" lengthAdjust="spacing" textLength="3.614" x="35.456" y="721.4772">&#160;</text><!--SRC=[nLDDJyCm3BttLrZRPMFq3rG22S6HIRjmGXnC6z9CQHmbBllx9FtGMdKj327XI-F4ptv-Th5cCdNrBbo2uOWvgqza0MGIwQYsQqcwWFMfLE6oS7Xwq3f9xs6LlUoV3uwE8kTLrhzif4DRgdoRGB1H34HGNZid33yf385LTXFUk_DSZYRF0gn9cprIPSc44B-K9vec6lUKzr1Gvkpu4IWQQfx3UK2GM4Z14rGhmu1UmxSDFbztf2ypxiq9hfsPF0djnG_BelUKAsH5PbJRObJNmnq4LeVMsLn5udAzyLZ2Dh7OettjohtjTd0naQ4WhrEoPA2FkInHTIO8BIdVZ2uAg8m4BWKC6hrAIbCaI_wlTuViukvyH_V_9pbNRxYrjzC9f-dsh_GVGBfZzmb1_H__1G00]--></g></svg>
