<svg xmlns="http://www.w3.org/2000/svg" xmlns:xlink="http://www.w3.org/1999/xlink" contentStyleType="text/css" height="692px" preserveAspectRatio="none" style="width:1464px;height:692px;background:#FFFFFF;" version="1.1" viewBox="0 0 1464 692" width="1464px" zoomAndPan="magnify"><defs/><g><rect fill="#FFFFFF" height="505.6002" style="stroke:#181818;stroke-width:1.0;" width="10" x="282.1483" y="109.7999"/><rect fill="#FFFFFF" height="410.8002" style="stroke:#181818;stroke-width:1.0;" width="10" x="567.2966" y="174.9999"/><rect fill="#FFFFFF" height="351.6002" style="stroke:#181818;stroke-width:1.0;" width="10" x="852.4449" y="204.5999"/><rect fill="#FFFFFF" height="76.2" style="stroke:#181818;stroke-width:1.0;" width="10" x="857.4449" y="436.4"/><rect fill="#FFFFFF" height="29.6" style="stroke:#181818;stroke-width:1.0;" width="10" x="1219.5844" y="249.7999"/><rect fill="#FFFFFF" height="29.6" style="stroke:#181818;stroke-width:1.0;" width="10" x="1353.6939" y="369.2"/><rect fill="#FFFFFF" height="552.8002" style="stroke:#000000;stroke-width:1.5;" width="1455.4516" x="3" y="70.5999"/><rect fill="#FFFFFF" height="197.6001" style="stroke:#000000;stroke-width:1.5;" width="649.6355" x="798.8161" y="330"/><line style="stroke:#181818;stroke-width:0.5;stroke-dasharray:5.0,5.0;" x1="286.6415" x2="286.6415" y1="53.5999" y2="640.4001"/><line style="stroke:#181818;stroke-width:0.5;stroke-dasharray:5.0,5.0;" x1="572.0668" x2="572.0668" y1="53.5999" y2="640.4001"/><line style="stroke:#181818;stroke-width:0.5;stroke-dasharray:5.0,5.0;" x1="856.8161" x2="856.8161" y1="53.5999" y2="640.4001"/><line style="stroke:#181818;stroke-width:0.5;stroke-dasharray:5.0,5.0;" x1="1224.2325" x2="1224.2325" y1="53.5999" y2="640.4001"/><line style="stroke:#181818;stroke-width:0.5;stroke-dasharray:5.0,5.0;" x1="1357.9362" x2="1357.9362" y1="53.5999" y2="640.4001"/><rect fill="#E2E2F0" height="30.7999" rx="2.5" ry="2.5" style="stroke:#181818;stroke-width:0.5;" width="91.0137" x="241.6415" y="21.7999"/><text fill="#000000" font-family="sans-serif" font-size="14" lengthAdjust="spacing" textLength="77.0137" x="248.6415" y="41.8059">:UMLProject</text><rect fill="#E2E2F0" height="30.7999" rx="2.5" ry="2.5" style="stroke:#181818;stroke-width:0.5;" width="91.0137" x="241.6415" y="639.4001"/><text fill="#000000" font-family="sans-serif" font-size="14" lengthAdjust="spacing" textLength="77.0137" x="248.6415" y="659.406">:UMLProject</text><rect fill="#E2E2F0" height="47.5999" rx="2.5" ry="2.5" style="stroke:#181818;stroke-width:0.5;" width="110.4596" x="517.0668" y="5"/><text fill="#000000" font-family="sans-serif" font-size="14" lengthAdjust="spacing" textLength="96.4596" x="524.0668" y="25.0059">currentDiagram</text><text fill="#000000" font-family="sans-serif" font-size="14" lengthAdjust="spacing" textLength="91.7836" x="526.4048" y="41.8059">:*UMLDiagram</text><rect fill="#E2E2F0" height="47.5999" rx="2.5" ry="2.5" style="stroke:#181818;stroke-width:0.5;" width="110.4596" x="517.0668" y="639.4001"/><text fill="#000000" font-family="sans-serif" font-size="14" lengthAdjust="spacing" textLength="96.4596" x="524.0668" y="659.406">currentDiagram</text><text fill="#000000" font-family="sans-serif" font-size="14" lengthAdjust="spacing" textLength="91.7836" x="526.4048" y="676.206">:*UMLDiagram</text><rect fill="#E2E2F0" height="30.7999" rx="2.5" ry="2.5" style="stroke:#181818;stroke-width:0.5;" width="97.2576" x="808.8161" y="21.7999"/><text fill="#000000" font-family="sans-serif" font-size="14" lengthAdjust="spacing" textLength="83.2576" x="815.8161" y="41.8059">:Components</text><rect fill="#E2E2F0" height="30.7999" rx="2.5" ry="2.5" style="stroke:#181818;stroke-width:0.5;" width="97.2576" x="808.8161" y="639.4001"/><text fill="#000000" font-family="sans-serif" font-size="14" lengthAdjust="spacing" textLength="83.2576" x="815.8161" y="659.406">:Components</text><rect fill="#E2E2F0" height="30.7999" rx="2.5" ry="2.5" style="stroke:#181818;stroke-width:0.5;" width="88.7037" x="1180.2325" y="21.7999"/><text fill="#000000" font-family="sans-serif" font-size="14" lengthAdjust="spacing" textLength="74.7037" x="1187.2325" y="41.8059">:Submodule</text><rect fill="#E2E2F0" height="30.7999" rx="2.5" ry="2.5" style="stroke:#181818;stroke-width:0.5;" width="88.7037" x="1180.2325" y="639.4001"/><text fill="#000000" font-family="sans-serif" font-size="14" lengthAdjust="spacing" textLength="74.7037" x="1187.2325" y="659.406">:Submodule</text><rect fill="#E2E2F0" height="30.7999" rx="2.5" ry="2.5" style="stroke:#181818;stroke-width:0.5;" width="159.5154" x="1278.9362" y="21.7999"/><text fill="#000000" font-family="sans-serif" font-size="14" lengthAdjust="spacing" textLength="145.5154" x="1285.9362" y="41.8059">component:Component</text><rect fill="#E2E2F0" height="30.7999" rx="2.5" ry="2.5" style="stroke:#181818;stroke-width:0.5;" width="159.5154" x="1278.9362" y="639.4001"/><text fill="#000000" font-family="sans-serif" font-size="14" lengthAdjust="spacing" textLength="145.5154" x="1285.9362" y="659.406">component:Component</text><rect fill="#FFFFFF" height="505.6002" style="stroke:#181818;stroke-width:1.0;" width="10" x="282.1483" y="109.7999"/><rect fill="#FFFFFF" height="410.8002" style="stroke:#181818;stroke-width:1.0;" width="10" x="567.2966" y="174.9999"/><rect fill="#FFFFFF" height="351.6002" style="stroke:#181818;stroke-width:1.0;" width="10" x="852.4449" y="204.5999"/><rect fill="#FFFFFF" height="76.2" style="stroke:#181818;stroke-width:1.0;" width="10" x="857.4449" y="436.4"/><rect fill="#FFFFFF" height="29.6" style="stroke:#181818;stroke-width:1.0;" width="10" x="1219.5844" y="249.7999"/><rect fill="#FFFFFF" height="29.6" style="stroke:#181818;stroke-width:1.0;" width="10" x="1353.6939" y="369.2"/><path d="M3,70.5999 L159.2281,70.5999 L159.2281,78.1999 L149.2281,88.1999 L3,88.1999 L3,70.5999 " fill="#FFD700" style="stroke:#000000;stroke-width:1.5;"/><rect fill="none" height="552.8002" style="stroke:#000000;stroke-width:1.5;" width="1455.4516" x="3" y="70.5999"/><text fill="#000000" font-family="sans-serif" font-size="13" font-weight="bold" lengthAdjust="spacing" textLength="111.2281" x="18" y="83.6769">importSubmodule</text><polygon fill="#181818" points="270.1483,105.7999,280.1483,109.7999,270.1483,113.7999,274.1483,109.7999" style="stroke:#181818;stroke-width:1.0;"/><line style="stroke:#181818;stroke-width:1.0;" x1="0" x2="276.1483" y1="109.7999" y2="109.7999"/><text fill="#000000" font-family="sans-serif" font-size="13" font-weight="bold" lengthAdjust="spacing" textLength="7.228" x="7" y="104.2769">1</text><text fill="#000000" font-family="sans-serif" font-size="13" lengthAdjust="spacing" textLength="244.9203" x="18.228" y="104.2769">ImportSubmodule(submoduleName, point)</text><path d="M182,122.7999 L182,147.7999 L276,147.7999 L276,132.7999 L266,122.7999 L182,122.7999 " fill="#FF0000" style="stroke:#181818;stroke-width:0.5;"/><path d="M266,122.7999 L266,132.7999 L276,132.7999 L266,122.7999 " fill="#FF0000" style="stroke:#181818;stroke-width:0.5;"/><text fill="#000000" font-family="sans-serif" font-size="13" lengthAdjust="spacing" textLength="73.6841" x="188" y="139.8769">by Controller</text><polygon fill="#181818" points="555.2966,170.9999,565.2966,174.9999,555.2966,178.9999,559.2966,174.9999" style="stroke:#181818;stroke-width:1.0;"/><line style="stroke:#181818;stroke-width:1.0;" x1="292.1483" x2="561.2966" y1="174.9999" y2="174.9999"/><text fill="#000000" font-family="sans-serif" font-size="13" font-weight="bold" lengthAdjust="spacing" textLength="7.228" x="299.1483" y="169.4769">2</text><text fill="#000000" font-family="sans-serif" font-size="13" lengthAdjust="spacing" textLength="244.9203" x="310.3763" y="169.4769">ImportSubmodule(submoduleName, point)</text><polygon fill="#181818" points="840.4449,200.5999,850.4449,204.5999,840.4449,208.5999,844.4449,204.5999" style="stroke:#181818;stroke-width:1.0;"/><line style="stroke:#181818;stroke-width:1.0;" x1="577.2966" x2="846.4449" y1="204.5999" y2="204.5999"/><text fill="#000000" font-family="sans-serif" font-size="13" font-weight="bold" lengthAdjust="spacing" textLength="7.228" x="584.2966" y="199.0769">3</text><text fill="#000000" font-family="sans-serif" font-size="13" lengthAdjust="spacing" textLength="244.9203" x="595.5246" y="199.0769">ImportSubmodule(submoduleName, point)</text><polygon fill="#181818" points="1207.5844,245.7999,1217.5844,249.7999,1207.5844,253.7999,1211.5844,249.7999" style="stroke:#181818;stroke-width:1.0;"/><line style="stroke:#181818;stroke-width:1.0;" x1="862.4449" x2="1213.5844" y1="249.7999" y2="249.7999"/><text fill="#000000" font-family="sans-serif" font-size="13" font-weight="bold" lengthAdjust="spacing" textLength="7.228" x="869.4449" y="236.4769">4</text><text fill="#000000" font-family="sans-serif" font-size="13" lengthAdjust="spacing" textLength="44.798" x="880.673" y="228.6769">&#171;static&#187;</text><text fill="#000000" font-family="sans-serif" font-size="13" lengthAdjust="spacing" textLength="326.9114" x="880.673" y="244.2769">importCompnents = ImportSubmodule(submoduleName)</text><polygon fill="#181818" points="873.4449,275.4,863.4449,279.4,873.4449,283.4,869.4449,279.4" style="stroke:#181818;stroke-width:1.0;"/><line style="stroke:#181818;stroke-width:1.0;stroke-dasharray:2.0,2.0;" x1="867.4449" x2="1223.5844" y1="279.4" y2="279.4"/><text fill="#000000" font-family="sans-serif" font-size="13" font-weight="bold" lengthAdjust="spacing" textLength="7.228" x="879.4449" y="273.877">5</text><text fill="#000000" font-family="sans-serif" font-size="13" lengthAdjust="spacing" textLength="3.614" x="890.673" y="273.877">&#160;</text><path d="M867,292.4 L867,317.4 L1357,317.4 L1357,302.4 L1347,292.4 L867,292.4 " fill="#FF0000" style="stroke:#181818;stroke-width:0.5;"/><path d="M1347,292.4 L1347,302.4 L1357,302.4 L1347,292.4 " fill="#FF0000" style="stroke:#181818;stroke-width:0.5;"/><text fill="#000000" font-family="sans-serif" font-size="13" lengthAdjust="spacing" textLength="469.6517" x="873" y="309.477">y by Expert (components class wants to know the components in that submodule)</text><path d="M798.8161,330 L871.2591,330 L871.2591,337.6 L861.2591,347.6 L798.8161,347.6 L798.8161,330 " fill="#FFD700" style="stroke:#000000;stroke-width:1.5;"/><rect fill="none" height="197.6001" style="stroke:#000000;stroke-width:1.5;" width="649.6355" x="798.8161" y="330"/><text fill="#000000" font-family="sans-serif" font-size="13" font-weight="bold" lengthAdjust="spacing" textLength="27.443" x="813.8161" y="343.077">loop</text><text fill="#000000" font-family="sans-serif" font-size="11" font-weight="bold" lengthAdjust="spacing" textLength="183.9406" x="886.2591" y="342.2189">[component in importComponents]</text><polygon fill="#181818" points="1341.6939,365.2,1351.6939,369.2,1341.6939,373.2,1345.6939,369.2" style="stroke:#181818;stroke-width:1.0;"/><line style="stroke:#181818;stroke-width:1.0;" x1="862.4449" x2="1347.6939" y1="369.2" y2="369.2"/><text fill="#000000" font-family="sans-serif" font-size="13" font-weight="bold" lengthAdjust="spacing" textLength="7.228" x="869.4449" y="363.677">6</text><text fill="#000000" font-family="sans-serif" font-size="13" lengthAdjust="spacing" textLength="98.9691" x="880.673" y="363.677">moveDelta(point)</text><polygon fill="#181818" points="873.4449,394.8,863.4449,398.8,873.4449,402.8,869.4449,398.8" style="stroke:#181818;stroke-width:1.0;"/><line style="stroke:#181818;stroke-width:1.0;stroke-dasharray:2.0,2.0;" x1="867.4449" x2="1357.6939" y1="398.8" y2="398.8"/><text fill="#000000" font-family="sans-serif" font-size="13" font-weight="bold" lengthAdjust="spacing" textLength="7.228" x="879.4449" y="393.277">7</text><text fill="#000000" font-family="sans-serif" font-size="13" lengthAdjust="spacing" textLength="3.614" x="890.673" y="393.277">&#160;</text><line style="stroke:#181818;stroke-width:1.0;" x1="862.4449" x2="909.4449" y1="423.4" y2="423.4"/><line style="stroke:#181818;stroke-width:1.0;" x1="909.4449" x2="909.4449" y1="423.4" y2="436.4"/><line style="stroke:#181818;stroke-width:1.0;" x1="868.4449" x2="909.4449" y1="436.4" y2="436.4"/><polygon fill="#181818" points="878.4449,432.4,868.4449,436.4,878.4449,440.4,874.4449,436.4" style="stroke:#181818;stroke-width:1.0;"/><text fill="#000000" font-family="sans-serif" font-size="13" font-weight="bold" lengthAdjust="spacing" textLength="7.228" x="874.4449" y="417.877">8</text><text fill="#000000" font-family="sans-serif" font-size="13" lengthAdjust="spacing" textLength="280.0074" x="885.673" y="417.877">components = append(components, component)</text><path d="M872,454.4 L872,479.4 L1051,479.4 L1051,464.4 L1041,454.4 L872,454.4 " fill="#FEFFDD" style="stroke:#181818;stroke-width:0.5;"/><path d="M1041,454.4 L1041,464.4 L1051,464.4 L1041,454.4 " fill="#FEFFDD" style="stroke:#181818;stroke-width:0.5;"/><text fill="#000000" font-family="sans-serif" font-size="13" lengthAdjust="spacing" textLength="158.2492" x="878" y="471.477">append is a built-in function</text><line style="stroke:#181818;stroke-width:1.0;stroke-dasharray:2.0,2.0;" x1="867.4449" x2="909.4449" y1="511.6001" y2="511.6001"/><line style="stroke:#181818;stroke-width:1.0;stroke-dasharray:2.0,2.0;" x1="909.4449" x2="909.4449" y1="511.6001" y2="524.6001"/><line style="stroke:#181818;stroke-width:1.0;stroke-dasharray:2.0,2.0;" x1="862.4449" x2="909.4449" y1="524.6001" y2="524.6001"/><polygon fill="#181818" points="872.4449,520.6001,862.4449,524.6001,872.4449,528.6001,868.4449,524.6001" style="stroke:#181818;stroke-width:1.0;"/><text fill="#000000" font-family="sans-serif" font-size="13" font-weight="bold" lengthAdjust="spacing" textLength="7.228" x="874.4449" y="506.0771">9</text><text fill="#000000" font-family="sans-serif" font-size="13" lengthAdjust="spacing" textLength="3.614" x="885.673" y="506.0771">&#160;</text><polygon fill="#181818" points="588.2966,552.2001,578.2966,556.2001,588.2966,560.2001,584.2966,556.2001" style="stroke:#181818;stroke-width:1.0;"/><line style="stroke:#181818;stroke-width:1.0;stroke-dasharray:2.0,2.0;" x1="582.2966" x2="856.4449" y1="556.2001" y2="556.2001"/><text fill="#000000" font-family="sans-serif" font-size="13" font-weight="bold" lengthAdjust="spacing" textLength="14.456" x="594.2966" y="550.6771">10</text><text fill="#000000" font-family="sans-serif" font-size="13" lengthAdjust="spacing" textLength="3.614" x="612.7527" y="550.6771">&#160;</text><polygon fill="#181818" points="303.1483,581.8001,293.1483,585.8001,303.1483,589.8001,299.1483,585.8001" style="stroke:#181818;stroke-width:1.0;"/><line style="stroke:#181818;stroke-width:1.0;stroke-dasharray:2.0,2.0;" x1="297.1483" x2="571.2966" y1="585.8001" y2="585.8001"/><text fill="#000000" font-family="sans-serif" font-size="13" font-weight="bold" lengthAdjust="spacing" textLength="14.456" x="309.1483" y="580.2771">11</text><text fill="#000000" font-family="sans-serif" font-size="13" lengthAdjust="spacing" textLength="3.614" x="327.6043" y="580.2771">&#160;</text><polygon fill="#181818" points="11,611.4001,1,615.4001,11,619.4001,7,615.4001" style="stroke:#181818;stroke-width:1.0;"/><line style="stroke:#181818;stroke-width:1.0;stroke-dasharray:2.0,2.0;" x1="5" x2="286.1483" y1="615.4001" y2="615.4001"/><text fill="#000000" font-family="sans-serif" font-size="13" font-weight="bold" lengthAdjust="spacing" textLength="14.456" x="17" y="609.8771">12</text><text fill="#000000" font-family="sans-serif" font-size="13" lengthAdjust="spacing" textLength="3.614" x="35.456" y="609.8771">&#160;</text><!--SRC=[dLFBRi8m4Bpp5Ikuq0f-808kq4EbjgfKzSR5IPRWrjcDd3MKlw_pQ8XLY4fzMjipi-EnhPmmkJn6ErA-L8deWn84fb5csHMJZ4qAa-DU-qMT5spbpSKvfyxW2FoOhs0SlJy_lLh-m4J64Jo6g6dvKxse76TGi2Qvgxd4NjJWJe1teGfCBAOHn2TOCubbOxn1Q4U8h0mapbeasMYLMPLlARhtY7PsawEknQ1YS-WrUrdoeF9_BVe2ZM97zuAmM9IYH2UhrPQQu2jy3OVbSB-maKLnbeAbEdYhitsRVDz9dVofYlxXgq0hC4swNKYCAaiuggeMXa_Y8yWUeGVHv5UKGESeT6EOmqVLKIlc-Q2DMa2zd5h7F-_u-78-u0QDgEc5wA-aSkLMWdlk7NG9gYYGqbu-i_F-xuu3eKUj5EWI5CHE6vdxD7QE_7za-ejvpnwwzTwqBUjsuIlw1W00]--></g></svg>
