<svg xmlns="http://www.w3.org/2000/svg" xmlns:xlink="http://www.w3.org/1999/xlink" contentStyleType="text/css" height="879px" preserveAspectRatio="none" style="width:985px;height:879px;background:#FFFFFF;" version="1.1" viewBox="0 0 985 879" width="985px" zoomAndPan="magnify"><defs/><g><rect fill="#FFFFFF" height="209.6001" style="stroke:#181818;stroke-width:1.0;" width="10" x="154.2672" y="93"/><rect fill="#FFFFFF" height="458.0002" style="stroke:#181818;stroke-width:1.0;" width="10" x="154.2672" y="360.2001"/><rect fill="#FFFFFF" height="114.8" style="stroke:#181818;stroke-width:1.0;" width="10" x="311.5343" y="158.2"/><rect fill="#FFFFFF" height="40.6" style="stroke:#181818;stroke-width:1.0;" width="10" x="316.5343" y="195.8"/><rect fill="#FFFFFF" height="363.2002" style="stroke:#181818;stroke-width:1.0;" width="10" x="311.5343" y="425.4001"/><rect fill="#FFFFFF" height="40.6" style="stroke:#181818;stroke-width:1.0;" width="10" x="316.5343" y="711.4002"/><rect fill="#FFFFFF" height="218.8001" style="stroke:#181818;stroke-width:1.0;" width="10" x="645.0947" y="455.0001"/><rect fill="#FFFFFF" height="96.4001" style="stroke:#181818;stroke-width:1.0;" width="10" x="791.5199" y="533.8001"/><rect fill="#FFFFFF" height="772.4003" style="stroke:#000000;stroke-width:1.5;" width="976.7706" x="3" y="53.7999"/><rect fill="none" height="175.2001" style="stroke:#000000;stroke-width:1.5;" width="493.7706" x="476" y="470.0001"/><rect fill="#FFFFFF" height="143.6001" style="stroke:#000000;stroke-width:1.5;" width="473.7706" x="486" y="494.6001"/><line style="stroke:#181818;stroke-width:0.5;stroke-dasharray:5.0,5.0;" x1="158.7603" x2="158.7603" y1="36.7999" y2="310.6"/><line style="stroke:#A80036;stroke-width:1.0;stroke-dasharray:1.0,4.0;" x1="158.7603" x2="158.7603" y1="310.6" y2="338.6"/><line style="stroke:#181818;stroke-width:0.5;stroke-dasharray:5.0,5.0;" x1="158.7603" x2="158.7603" y1="338.6" y2="843.2003"/><line style="stroke:#181818;stroke-width:0.5;stroke-dasharray:5.0,5.0;" x1="316.4127" x2="316.4127" y1="36.7999" y2="310.6"/><line style="stroke:#A80036;stroke-width:1.0;stroke-dasharray:1.0,4.0;" x1="316.4127" x2="316.4127" y1="310.6" y2="338.6"/><line style="stroke:#181818;stroke-width:0.5;stroke-dasharray:5.0,5.0;" x1="316.4127" x2="316.4127" y1="338.6" y2="843.2003"/><line style="stroke:#181818;stroke-width:0.5;stroke-dasharray:5.0,5.0;" x1="649.4659" x2="649.4659" y1="36.7999" y2="310.6"/><line style="stroke:#A80036;stroke-width:1.0;stroke-dasharray:1.0,4.0;" x1="649.4659" x2="649.4659" y1="310.6" y2="338.6"/><line style="stroke:#181818;stroke-width:0.5;stroke-dasharray:5.0,5.0;" x1="649.4659" x2="649.4659" y1="338.6" y2="843.2003"/><line style="stroke:#181818;stroke-width:0.5;stroke-dasharray:5.0,5.0;" x1="795.7622" x2="795.7622" y1="36.7999" y2="310.6"/><line style="stroke:#A80036;stroke-width:1.0;stroke-dasharray:1.0,4.0;" x1="795.7622" x2="795.7622" y1="310.6" y2="338.6"/><line style="stroke:#181818;stroke-width:0.5;stroke-dasharray:5.0,5.0;" x1="795.7622" x2="795.7622" y1="338.6" y2="843.2003"/><rect fill="#E2E2F0" height="30.7999" rx="2.5" ry="2.5" style="stroke:#181818;stroke-width:0.5;" width="91.0137" x="113.7603" y="5"/><text fill="#000000" font-family="sans-serif" font-size="14" lengthAdjust="spacing" textLength="77.0137" x="120.7603" y="25.0059">:UMLProject</text><rect fill="#E2E2F0" height="30.7999" rx="2.5" ry="2.5" style="stroke:#181818;stroke-width:0.5;" width="91.0137" x="113.7603" y="842.2003"/><text fill="#000000" font-family="sans-serif" font-size="14" lengthAdjust="spacing" textLength="77.0137" x="120.7603" y="862.2062">:UMLProject</text><rect fill="#E2E2F0" height="30.7999" rx="2.5" ry="2.5" style="stroke:#181818;stroke-width:0.5;" width="202.2432" x="215.4127" y="5"/><text fill="#000000" font-family="sans-serif" font-size="14" lengthAdjust="spacing" textLength="188.2432" x="222.4127" y="25.0059">currentDiagram:*UMLDiagram</text><rect fill="#E2E2F0" height="30.7999" rx="2.5" ry="2.5" style="stroke:#181818;stroke-width:0.5;" width="202.2432" x="215.4127" y="842.2003"/><text fill="#000000" font-family="sans-serif" font-size="14" lengthAdjust="spacing" textLength="188.2432" x="222.4127" y="862.2062">currentDiagram:*UMLDiagram</text><rect fill="#E2E2F0" height="30.7999" rx="2.5" ry="2.5" style="stroke:#181818;stroke-width:0.5;" width="97.2576" x="601.4659" y="5"/><text fill="#000000" font-family="sans-serif" font-size="14" lengthAdjust="spacing" textLength="83.2576" x="608.4659" y="25.0059">:Components</text><rect fill="#E2E2F0" height="30.7999" rx="2.5" ry="2.5" style="stroke:#181818;stroke-width:0.5;" width="97.2576" x="601.4659" y="842.2003"/><text fill="#000000" font-family="sans-serif" font-size="14" lengthAdjust="spacing" textLength="83.2576" x="608.4659" y="862.2062">:Components</text><rect fill="#E2E2F0" height="30.7999" rx="2.5" ry="2.5" style="stroke:#181818;stroke-width:0.5;" width="159.5154" x="716.7622" y="5"/><text fill="#000000" font-family="sans-serif" font-size="14" lengthAdjust="spacing" textLength="145.5154" x="723.7622" y="25.0059">component:Component</text><rect fill="#E2E2F0" height="30.7999" rx="2.5" ry="2.5" style="stroke:#181818;stroke-width:0.5;" width="159.5154" x="716.7622" y="842.2003"/><text fill="#000000" font-family="sans-serif" font-size="14" lengthAdjust="spacing" textLength="145.5154" x="723.7622" y="862.2062">component:Component</text><rect fill="#FFFFFF" height="209.6001" style="stroke:#181818;stroke-width:1.0;" width="10" x="154.2672" y="93"/><rect fill="#FFFFFF" height="458.0002" style="stroke:#181818;stroke-width:1.0;" width="10" x="154.2672" y="360.2001"/><rect fill="#FFFFFF" height="114.8" style="stroke:#181818;stroke-width:1.0;" width="10" x="311.5343" y="158.2"/><rect fill="#FFFFFF" height="40.6" style="stroke:#181818;stroke-width:1.0;" width="10" x="316.5343" y="195.8"/><rect fill="#FFFFFF" height="363.2002" style="stroke:#181818;stroke-width:1.0;" width="10" x="311.5343" y="425.4001"/><rect fill="#FFFFFF" height="40.6" style="stroke:#181818;stroke-width:1.0;" width="10" x="316.5343" y="711.4002"/><rect fill="#FFFFFF" height="218.8001" style="stroke:#181818;stroke-width:1.0;" width="10" x="645.0947" y="455.0001"/><rect fill="#FFFFFF" height="96.4001" style="stroke:#181818;stroke-width:1.0;" width="10" x="791.5199" y="533.8001"/><path d="M3,53.7999 L154.1711,53.7999 L154.1711,61.3999 L144.1711,71.3999 L3,71.3999 L3,53.7999 " fill="#FFD700" style="stroke:#000000;stroke-width:1.5;"/><rect fill="none" height="772.4003" style="stroke:#000000;stroke-width:1.5;" width="976.7706" x="3" y="53.7999"/><text fill="#000000" font-family="sans-serif" font-size="13" font-weight="bold" lengthAdjust="spacing" textLength="106.1711" x="18" y="66.8769">moveComponent</text><polygon fill="#181818" points="142.2672,89,152.2672,93,142.2672,97,146.2672,93" style="stroke:#181818;stroke-width:1.0;"/><line style="stroke:#181818;stroke-width:1.0;" x1="0" x2="148.2672" y1="93" y2="93"/><text fill="#000000" font-family="sans-serif" font-size="13" font-weight="bold" lengthAdjust="spacing" textLength="7.228" x="7" y="87.477">1</text><text fill="#000000" font-family="sans-serif" font-size="13" lengthAdjust="spacing" textLength="117.0392" x="18.228" y="87.477">StartDragging(point)</text><path d="M54,106 L54,131 L148,131 L148,116 L138,106 L54,106 " fill="#FF0000" style="stroke:#181818;stroke-width:0.5;"/><path d="M138,106 L138,116 L148,116 L138,106 " fill="#FF0000" style="stroke:#181818;stroke-width:0.5;"/><text fill="#000000" font-family="sans-serif" font-size="13" lengthAdjust="spacing" textLength="73.6841" x="60" y="123.077">by Controller</text><polygon fill="#181818" points="299.5343,154.2,309.5343,158.2,299.5343,162.2,303.5343,158.2" style="stroke:#181818;stroke-width:1.0;"/><line style="stroke:#181818;stroke-width:1.0;" x1="164.2672" x2="305.5343" y1="158.2" y2="158.2"/><text fill="#000000" font-family="sans-serif" font-size="13" font-weight="bold" lengthAdjust="spacing" textLength="7.228" x="171.2672" y="152.677">2</text><text fill="#000000" font-family="sans-serif" font-size="13" lengthAdjust="spacing" textLength="117.0392" x="182.4952" y="152.677">StartDragging(point)</text><line style="stroke:#181818;stroke-width:1.0;" x1="321.5343" x2="368.5343" y1="182.8" y2="182.8"/><line style="stroke:#181818;stroke-width:1.0;" x1="368.5343" x2="368.5343" y1="182.8" y2="195.8"/><line style="stroke:#181818;stroke-width:1.0;" x1="327.5343" x2="368.5343" y1="195.8" y2="195.8"/><polygon fill="#181818" points="337.5343,191.8,327.5343,195.8,337.5343,199.8,333.5343,195.8" style="stroke:#181818;stroke-width:1.0;"/><text fill="#000000" font-family="sans-serif" font-size="13" font-weight="bold" lengthAdjust="spacing" textLength="7.228" x="333.5343" y="177.277">3</text><text fill="#000000" font-family="sans-serif" font-size="13" lengthAdjust="spacing" textLength="131.8721" x="344.7623" y="177.277">moveStartPoint = point</text><line style="stroke:#181818;stroke-width:1.0;stroke-dasharray:2.0,2.0;" x1="326.5343" x2="368.5343" y1="235.4" y2="235.4"/><line style="stroke:#181818;stroke-width:1.0;stroke-dasharray:2.0,2.0;" x1="368.5343" x2="368.5343" y1="235.4" y2="248.4"/><line style="stroke:#181818;stroke-width:1.0;stroke-dasharray:2.0,2.0;" x1="321.5343" x2="368.5343" y1="248.4" y2="248.4"/><polygon fill="#181818" points="331.5343,244.4,321.5343,248.4,331.5343,252.4,327.5343,248.4" style="stroke:#181818;stroke-width:1.0;"/><text fill="#000000" font-family="sans-serif" font-size="13" font-weight="bold" lengthAdjust="spacing" textLength="7.228" x="333.5343" y="229.877">4</text><text fill="#000000" font-family="sans-serif" font-size="13" lengthAdjust="spacing" textLength="3.614" x="344.7623" y="229.877">&#160;</text><polygon fill="#181818" points="175.2672,269,165.2672,273,175.2672,277,171.2672,273" style="stroke:#181818;stroke-width:1.0;"/><line style="stroke:#181818;stroke-width:1.0;stroke-dasharray:2.0,2.0;" x1="169.2672" x2="315.5343" y1="273" y2="273"/><text fill="#000000" font-family="sans-serif" font-size="13" font-weight="bold" lengthAdjust="spacing" textLength="7.228" x="181.2672" y="267.477">5</text><text fill="#000000" font-family="sans-serif" font-size="13" lengthAdjust="spacing" textLength="3.614" x="192.4952" y="267.477">&#160;</text><polygon fill="#181818" points="11,298.6,1,302.6,11,306.6,7,302.6" style="stroke:#181818;stroke-width:1.0;"/><line style="stroke:#181818;stroke-width:1.0;stroke-dasharray:2.0,2.0;" x1="5" x2="158.2672" y1="302.6" y2="302.6"/><text fill="#000000" font-family="sans-serif" font-size="13" font-weight="bold" lengthAdjust="spacing" textLength="7.228" x="17" y="297.077">6</text><text fill="#000000" font-family="sans-serif" font-size="13" lengthAdjust="spacing" textLength="3.614" x="28.228" y="297.077">&#160;</text><polygon fill="#181818" points="142.2672,356.2001,152.2672,360.2001,142.2672,364.2001,146.2672,360.2001" style="stroke:#181818;stroke-width:1.0;"/><line style="stroke:#181818;stroke-width:1.0;" x1="0" x2="148.2672" y1="360.2001" y2="360.2001"/><text fill="#000000" font-family="sans-serif" font-size="13" font-weight="bold" lengthAdjust="spacing" textLength="7.228" x="7" y="354.677">7</text><text fill="#000000" font-family="sans-serif" font-size="13" lengthAdjust="spacing" textLength="116.3242" x="18.228" y="354.677">StopDragging(point)</text><path d="M54,373.2001 L54,398.2001 L148,398.2001 L148,383.2001 L138,373.2001 L54,373.2001 " fill="#FF0000" style="stroke:#181818;stroke-width:0.5;"/><path d="M138,373.2001 L138,383.2001 L148,383.2001 L138,373.2001 " fill="#FF0000" style="stroke:#181818;stroke-width:0.5;"/><text fill="#000000" font-family="sans-serif" font-size="13" lengthAdjust="spacing" textLength="73.6841" x="60" y="390.2771">by Controller</text><polygon fill="#181818" points="299.5343,421.4001,309.5343,425.4001,299.5343,429.4001,303.5343,425.4001" style="stroke:#181818;stroke-width:1.0;"/><line style="stroke:#181818;stroke-width:1.0;" x1="164.2672" x2="305.5343" y1="425.4001" y2="425.4001"/><text fill="#000000" font-family="sans-serif" font-size="13" font-weight="bold" lengthAdjust="spacing" textLength="7.228" x="171.2672" y="419.8771">8</text><text fill="#000000" font-family="sans-serif" font-size="13" lengthAdjust="spacing" textLength="116.3242" x="182.4952" y="419.8771">StopDragging(point)</text><polygon fill="#181818" points="633.0947,451.0001,643.0947,455.0001,633.0947,459.0001,637.0947,455.0001" style="stroke:#181818;stroke-width:1.0;"/><line style="stroke:#181818;stroke-width:1.0;" x1="321.5343" x2="639.0947" y1="455.0001" y2="455.0001"/><text fill="#000000" font-family="sans-serif" font-size="13" font-weight="bold" lengthAdjust="spacing" textLength="7.228" x="328.5343" y="449.4771">9</text><text fill="#000000" font-family="sans-serif" font-size="13" lengthAdjust="spacing" textLength="293.3324" x="339.7623" y="449.4771">MoveSelectedComponents(point - moveStartPoint)</text><path d="M476,470.0001 L548.443,470.0001 L548.443,477.6001 L538.443,487.6001 L476,487.6001 L476,470.0001 " fill="#FFD700" style="stroke:#000000;stroke-width:1.5;"/><rect fill="none" height="175.2001" style="stroke:#000000;stroke-width:1.5;" width="493.7706" x="476" y="470.0001"/><text fill="#000000" font-family="sans-serif" font-size="13" font-weight="bold" lengthAdjust="spacing" textLength="27.443" x="491" y="483.0771">loop</text><text fill="#000000" font-family="sans-serif" font-size="11" font-weight="bold" lengthAdjust="spacing" textLength="193.7416" x="563.443" y="482.219">[component in selectedComponents]</text><path d="M486,494.6001 L551.215,494.6001 L551.215,502.2001 L541.215,512.2001 L486,512.2001 L486,494.6001 " fill="#FFD700" style="stroke:#000000;stroke-width:1.5;"/><rect fill="none" height="143.6001" style="stroke:#000000;stroke-width:1.5;" width="473.7706" x="486" y="494.6001"/><text fill="#000000" font-family="sans-serif" font-size="13" font-weight="bold" lengthAdjust="spacing" textLength="20.215" x="501" y="507.6771">opt</text><text fill="#000000" font-family="sans-serif" font-size="11" font-weight="bold" lengthAdjust="spacing" textLength="127.1261" x="566.215" y="506.819">[component is a gadget]</text><polygon fill="#181818" points="779.5199,529.8001,789.5199,533.8001,779.5199,537.8001,783.5199,533.8001" style="stroke:#181818;stroke-width:1.0;"/><line style="stroke:#181818;stroke-width:1.0;" x1="655.0947" x2="785.5199" y1="533.8001" y2="533.8001"/><text fill="#000000" font-family="sans-serif" font-size="13" font-weight="bold" lengthAdjust="spacing" textLength="14.456" x="662.0947" y="528.2771">10</text><text fill="#000000" font-family="sans-serif" font-size="13" lengthAdjust="spacing" textLength="98.9691" x="680.5507" y="528.2771">moveDelta(delta)</text><path d="M496,546.8001 L496,602.8001 L949,602.8001 L949,556.8001 L939,546.8001 L496,546.8001 " fill="#FEFFDD" style="stroke:#181818;stroke-width:0.5;"/><path d="M939,546.8001 L939,556.8001 L949,556.8001 L939,546.8001 " fill="#FEFFDD" style="stroke:#181818;stroke-width:0.5;"/><text fill="#000000" font-family="sans-serif" font-size="13" lengthAdjust="spacing" textLength="175.5912" x="502" y="563.8771">For a gadget, move it by delta.</text><text fill="#000000" font-family="sans-serif" font-size="13" lengthAdjust="spacing" textLength="432.7706" x="502" y="579.4772">For an association, it will automatically reroute if either of parents is moved.</text><text fill="#000000" font-family="sans-serif" font-size="13" lengthAdjust="spacing" textLength="315.7704" x="502" y="595.0772">(By subscribing to the events of its connected gadgets)</text><polygon fill="#181818" points="666.0947,626.2002,656.0947,630.2002,666.0947,634.2002,662.0947,630.2002" style="stroke:#181818;stroke-width:1.0;"/><line style="stroke:#181818;stroke-width:1.0;stroke-dasharray:2.0,2.0;" x1="660.0947" x2="795.5199" y1="630.2002" y2="630.2002"/><text fill="#000000" font-family="sans-serif" font-size="13" font-weight="bold" lengthAdjust="spacing" textLength="14.456" x="672.0947" y="624.6772">11</text><text fill="#000000" font-family="sans-serif" font-size="13" lengthAdjust="spacing" textLength="3.614" x="690.5507" y="624.6772">&#160;</text><polygon fill="#181818" points="332.5343,669.8002,322.5343,673.8002,332.5343,677.8002,328.5343,673.8002" style="stroke:#181818;stroke-width:1.0;"/><line style="stroke:#181818;stroke-width:1.0;stroke-dasharray:2.0,2.0;" x1="326.5343" x2="649.0947" y1="673.8002" y2="673.8002"/><text fill="#000000" font-family="sans-serif" font-size="13" font-weight="bold" lengthAdjust="spacing" textLength="14.456" x="338.5343" y="668.2772">12</text><text fill="#000000" font-family="sans-serif" font-size="13" lengthAdjust="spacing" textLength="3.614" x="356.9904" y="668.2772">&#160;</text><line style="stroke:#181818;stroke-width:1.0;" x1="321.5343" x2="368.5343" y1="698.4002" y2="698.4002"/><line style="stroke:#181818;stroke-width:1.0;" x1="368.5343" x2="368.5343" y1="698.4002" y2="711.4002"/><line style="stroke:#181818;stroke-width:1.0;" x1="327.5343" x2="368.5343" y1="711.4002" y2="711.4002"/><polygon fill="#181818" points="337.5343,707.4002,327.5343,711.4002,337.5343,715.4002,333.5343,711.4002" style="stroke:#181818;stroke-width:1.0;"/><text fill="#000000" font-family="sans-serif" font-size="13" font-weight="bold" lengthAdjust="spacing" textLength="14.456" x="333.5343" y="692.8772">13</text><text fill="#000000" font-family="sans-serif" font-size="13" lengthAdjust="spacing" textLength="110.9161" x="351.9904" y="692.8772">moveStartPoint = 0</text><line style="stroke:#181818;stroke-width:1.0;stroke-dasharray:2.0,2.0;" x1="326.5343" x2="368.5343" y1="751.0002" y2="751.0002"/><line style="stroke:#181818;stroke-width:1.0;stroke-dasharray:2.0,2.0;" x1="368.5343" x2="368.5343" y1="751.0002" y2="764.0002"/><line style="stroke:#181818;stroke-width:1.0;stroke-dasharray:2.0,2.0;" x1="321.5343" x2="368.5343" y1="764.0002" y2="764.0002"/><polygon fill="#181818" points="331.5343,760.0002,321.5343,764.0002,331.5343,768.0002,327.5343,764.0002" style="stroke:#181818;stroke-width:1.0;"/><text fill="#000000" font-family="sans-serif" font-size="13" font-weight="bold" lengthAdjust="spacing" textLength="14.456" x="333.5343" y="745.4772">14</text><text fill="#000000" font-family="sans-serif" font-size="13" lengthAdjust="spacing" textLength="3.614" x="351.9904" y="745.4772">&#160;</text><polygon fill="#181818" points="175.2672,784.6002,165.2672,788.6002,175.2672,792.6002,171.2672,788.6002" style="stroke:#181818;stroke-width:1.0;"/><line style="stroke:#181818;stroke-width:1.0;stroke-dasharray:2.0,2.0;" x1="169.2672" x2="315.5343" y1="788.6002" y2="788.6002"/><text fill="#000000" font-family="sans-serif" font-size="13" font-weight="bold" lengthAdjust="spacing" textLength="14.456" x="181.2672" y="783.0772">15</text><text fill="#000000" font-family="sans-serif" font-size="13" lengthAdjust="spacing" textLength="3.614" x="199.7232" y="783.0772">&#160;</text><polygon fill="#181818" points="11,814.2003,1,818.2003,11,822.2003,7,818.2003" style="stroke:#181818;stroke-width:1.0;"/><line style="stroke:#181818;stroke-width:1.0;stroke-dasharray:2.0,2.0;" x1="5" x2="158.2672" y1="818.2003" y2="818.2003"/><text fill="#000000" font-family="sans-serif" font-size="13" font-weight="bold" lengthAdjust="spacing" textLength="14.456" x="17" y="812.6773">16</text><text fill="#000000" font-family="sans-serif" font-size="13" lengthAdjust="spacing" textLength="3.614" x="35.456" y="812.6773">&#160;</text><!--SRC=[nLHDRy8m3BttLrZZ0XDKErVQ3WFjD2IaQJyWjA5aIkCgSK7y-zcXV9Ko9ksm7DeqoNlFURQh6aBNL4lj4yLJbPFPADA0BYazDlMWH5l0OBisl5ZXHa-ngj5fHqaoUO67x7F-ll3ufNDwW0m-I7cQULMMnfN36esZKUAGiLQl273LGGoyBZ9Oxc2AZZnQot40ZyjJ8fGtthFgpAZIgofxvFrsVbCNsl4ZzZwtt3hoBuGMdY7I7zczfiQxv6pQlj8q5O-kBSBwNnowblsrGTanwq6uvkA8jgoiYzFEdXKc7SDECZ8iObjJ-G48na6uOhj0oS2QBehn31z0GQcAKjCLQc_LUVZHgiFtQUUGwPcsf8Q5F4UzR35NVD1tUCVzjBqSR-YF8O-ZB1YI94VTz3R6WGe1SwF8e1iBQ6ki1MdTYjToPUsEov0xbuCqAz26rXmfLrMj9CD1p1Azebza-Bg3q2n3xisI2mK8WGb0RoAMQGo_SdGkPgkzGUWtIhiYcjMxUTOr7KpIvP2IIMxW_jBQFPtzTB-h9QAB_-0t]--></g></svg>
