<svg xmlns="http://www.w3.org/2000/svg" xmlns:xlink="http://www.w3.org/1999/xlink" contentStyleType="text/css" height="833px" preserveAspectRatio="none" style="width:808px;height:833px;background:#FFFFFF;" version="1.1" viewBox="0 0 808 833" width="808px" zoomAndPan="magnify"><defs/><g><rect fill="#FFFFFF" height="646.0002" style="stroke:#181818;stroke-width:1.0;" width="10" x="220.0082" y="109.7999"/><rect fill="#FFFFFF" height="40.6" style="stroke:#181818;stroke-width:1.0;" width="10" x="225.0082" y="182.9999"/><rect fill="#FFFFFF" height="111.8" style="stroke:#181818;stroke-width:1.0;" width="10" x="225.0082" y="339.4"/><rect fill="#FFFFFF" height="29.6" style="stroke:#181818;stroke-width:1.0;" width="10" x="698.8871" y="625.4"/><rect fill="#FFFFFF" height="290.6" style="stroke:#000000;stroke-width:1.5;" width="799.147" x="3" y="473.2"/><line style="stroke:#181818;stroke-width:0.5;stroke-dasharray:5.0,5.0;" x1="224.5014" x2="224.5014" y1="53.5999" y2="780.8"/><line style="stroke:#181818;stroke-width:0.5;stroke-dasharray:5.0,5.0;" x1="562.7519" x2="562.7519" y1="521.7" y2="780.8"/><line style="stroke:#181818;stroke-width:0.5;stroke-dasharray:5.0,5.0;" x1="703.6573" x2="703.6573" y1="53.5999" y2="780.8"/><rect fill="#E2E2F0" height="30.7999" rx="2.5" ry="2.5" style="stroke:#181818;stroke-width:0.5;" width="91.0137" x="179.5014" y="21.7999"/><text fill="#000000" font-family="sans-serif" font-size="14" lengthAdjust="spacing" textLength="77.0137" x="186.5014" y="41.8059">:UMLProject</text><rect fill="#E2E2F0" height="30.7999" rx="2.5" ry="2.5" style="stroke:#181818;stroke-width:0.5;" width="91.0137" x="179.5014" y="779.8"/><text fill="#000000" font-family="sans-serif" font-size="14" lengthAdjust="spacing" textLength="77.0137" x="186.5014" y="799.806">:UMLProject</text><rect fill="#E2E2F0" height="30.7999" rx="2.5" ry="2.5" style="stroke:#181818;stroke-width:0.5;" width="150.9054" x="487.7519" y="779.8"/><text fill="#000000" font-family="sans-serif" font-size="14" lengthAdjust="spacing" textLength="136.9054" x="494.7519" y="799.806">diagram:UMLDiagram</text><rect fill="#E2E2F0" height="47.5999" rx="2.5" ry="2.5" style="stroke:#181818;stroke-width:0.5;" width="110.4596" x="648.6573" y="5"/><text fill="#000000" font-family="sans-serif" font-size="14" lengthAdjust="spacing" textLength="96.4596" x="655.6573" y="25.0059">activeDiagrams</text><text fill="#000000" font-family="sans-serif" font-size="14" lengthAdjust="spacing" textLength="94.1216" x="656.8263" y="41.8059">:[]UMLDiagram</text><rect fill="#E2E2F0" height="47.5999" rx="2.5" ry="2.5" style="stroke:#181818;stroke-width:0.5;" width="110.4596" x="648.6573" y="779.8"/><text fill="#000000" font-family="sans-serif" font-size="14" lengthAdjust="spacing" textLength="96.4596" x="655.6573" y="799.806">activeDiagrams</text><text fill="#000000" font-family="sans-serif" font-size="14" lengthAdjust="spacing" textLength="94.1216" x="656.8263" y="816.6059">:[]UMLDiagram</text><rect fill="#FFFFFF" height="646.0002" style="stroke:#181818;stroke-width:1.0;" width="10" x="220.0082" y="109.7999"/><rect fill="#FFFFFF" height="40.6" style="stroke:#181818;stroke-width:1.0;" width="10" x="225.0082" y="182.9999"/><rect fill="#FFFFFF" height="111.8" style="stroke:#181818;stroke-width:1.0;" width="10" x="225.0082" y="339.4"/><rect fill="#FFFFFF" height="29.6" style="stroke:#181818;stroke-width:1.0;" width="10" x="698.8871" y="625.4"/><polygon fill="#181818" points="208.0082,105.7999,218.0082,109.7999,208.0082,113.7999,212.0082,109.7999" style="stroke:#181818;stroke-width:1.0;"/><line style="stroke:#181818;stroke-width:1.0;" x1="0" x2="214.0082" y1="109.7999" y2="109.7999"/><text fill="#000000" font-family="sans-serif" font-size="13" font-weight="bold" lengthAdjust="spacing" textLength="7.228" x="7" y="104.2769">1</text><text fill="#000000" font-family="sans-serif" font-size="13" lengthAdjust="spacing" textLength="78.0261" x="18.228" y="104.2769">openProject()</text><path d="M120,122.7999 L120,147.7999 L214,147.7999 L214,132.7999 L204,122.7999 L120,122.7999 " fill="#FF0000" style="stroke:#181818;stroke-width:0.5;"/><path d="M204,122.7999 L204,132.7999 L214,132.7999 L204,122.7999 " fill="#FF0000" style="stroke:#181818;stroke-width:0.5;"/><text fill="#000000" font-family="sans-serif" font-size="13" lengthAdjust="spacing" textLength="73.6841" x="126" y="139.8769">by Controller</text><line style="stroke:#181818;stroke-width:1.0;" x1="230.0082" x2="277.0082" y1="169.9999" y2="169.9999"/><line style="stroke:#181818;stroke-width:1.0;" x1="277.0082" x2="277.0082" y1="169.9999" y2="182.9999"/><line style="stroke:#181818;stroke-width:1.0;" x1="236.0082" x2="277.0082" y1="182.9999" y2="182.9999"/><polygon fill="#181818" points="246.0082,178.9999,236.0082,182.9999,246.0082,186.9999,242.0082,182.9999" style="stroke:#181818;stroke-width:1.0;"/><text fill="#000000" font-family="sans-serif" font-size="13" font-weight="bold" lengthAdjust="spacing" textLength="7.228" x="242.0082" y="164.4769">2</text><text fill="#000000" font-family="sans-serif" font-size="13" lengthAdjust="spacing" textLength="206.2452" x="253.2362" y="164.4769">diagrams = GetAvailableDiagrams()</text><line style="stroke:#181818;stroke-width:1.0;stroke-dasharray:2.0,2.0;" x1="235.0082" x2="277.0082" y1="222.5999" y2="222.5999"/><line style="stroke:#181818;stroke-width:1.0;stroke-dasharray:2.0,2.0;" x1="277.0082" x2="277.0082" y1="222.5999" y2="235.5999"/><line style="stroke:#181818;stroke-width:1.0;stroke-dasharray:2.0,2.0;" x1="230.0082" x2="277.0082" y1="235.5999" y2="235.5999"/><polygon fill="#181818" points="240.0082,231.5999,230.0082,235.5999,240.0082,239.5999,236.0082,235.5999" style="stroke:#181818;stroke-width:1.0;"/><text fill="#000000" font-family="sans-serif" font-size="13" font-weight="bold" lengthAdjust="spacing" textLength="7.228" x="242.0082" y="217.0769">3</text><text fill="#000000" font-family="sans-serif" font-size="13" lengthAdjust="spacing" textLength="3.614" x="253.2362" y="217.0769">&#160;</text><path d="M235,243.5999 L235,268.5999 L487,268.5999 L487,253.5999 L477,243.5999 L235,243.5999 " fill="#FF0000" style="stroke:#181818;stroke-width:0.5;"/><path d="M477,243.5999 L477,253.5999 L487,253.5999 L477,243.5999 " fill="#FF0000" style="stroke:#181818;stroke-width:0.5;"/><text fill="#000000" font-family="sans-serif" font-size="13" lengthAdjust="spacing" textLength="231.9202" x="241" y="260.6769">by Expert (UI want to know the diagram)</text><path d="M235,279.1999 L235,304.1999 L633,304.1999 L633,289.1999 L623,279.1999 L235,279.1999 " fill="#FEFFDD" style="stroke:#181818;stroke-width:0.5;"/><path d="M623,279.1999 L623,289.1999 L633,289.1999 L623,279.1999 " fill="#FEFFDD" style="stroke:#181818;stroke-width:0.5;"/><text fill="#000000" font-family="sans-serif" font-size="13" lengthAdjust="spacing" textLength="377.8455" x="241" y="296.2769">GetAvailableDiagrams() returns names of diagrams in the project.</text><line style="stroke:#181818;stroke-width:1.0;" x1="230.0082" x2="277.0082" y1="326.4" y2="326.4"/><line style="stroke:#181818;stroke-width:1.0;" x1="277.0082" x2="277.0082" y1="326.4" y2="339.4"/><line style="stroke:#181818;stroke-width:1.0;" x1="236.0082" x2="277.0082" y1="339.4" y2="339.4"/><polygon fill="#181818" points="246.0082,335.4,236.0082,339.4,246.0082,343.4,242.0082,339.4" style="stroke:#181818;stroke-width:1.0;"/><text fill="#000000" font-family="sans-serif" font-size="13" font-weight="bold" lengthAdjust="spacing" textLength="7.228" x="242.0082" y="320.877">4</text><text fill="#000000" font-family="sans-serif" font-size="13" lengthAdjust="spacing" textLength="292.9684" x="253.2362" y="320.877">lastOpenedDiagrams = GetLastOpenedDiagrams()</text><path d="M240,357.4 L240,382.4 L568,382.4 L568,367.4 L558,357.4 L240,357.4 " fill="#FF0000" style="stroke:#181818;stroke-width:0.5;"/><path d="M558,357.4 L558,367.4 L568,367.4 L558,357.4 " fill="#FF0000" style="stroke:#181818;stroke-width:0.5;"/><text fill="#000000" font-family="sans-serif" font-size="13" lengthAdjust="spacing" textLength="307.0603" x="246" y="374.477">by Expert (UI want to know the lastOpenedDiagrams)</text><path d="M240,393 L240,418 L731,418 L731,403 L721,393 L240,393 " fill="#FEFFDD" style="stroke:#181818;stroke-width:0.5;"/><path d="M721,393 L721,403 L731,403 L721,393 " fill="#FEFFDD" style="stroke:#181818;stroke-width:0.5;"/><text fill="#000000" font-family="sans-serif" font-size="13" lengthAdjust="spacing" textLength="470.3538" x="246" y="410.077">GetLastOpenedDiagrams() returns names of diagrams that were opened last time</text><line style="stroke:#181818;stroke-width:1.0;stroke-dasharray:2.0,2.0;" x1="235.0082" x2="277.0082" y1="450.2" y2="450.2"/><line style="stroke:#181818;stroke-width:1.0;stroke-dasharray:2.0,2.0;" x1="277.0082" x2="277.0082" y1="450.2" y2="463.2"/><line style="stroke:#181818;stroke-width:1.0;stroke-dasharray:2.0,2.0;" x1="230.0082" x2="277.0082" y1="463.2" y2="463.2"/><polygon fill="#181818" points="240.0082,459.2,230.0082,463.2,240.0082,467.2,236.0082,463.2" style="stroke:#181818;stroke-width:1.0;"/><text fill="#000000" font-family="sans-serif" font-size="13" font-weight="bold" lengthAdjust="spacing" textLength="7.228" x="242.0082" y="444.677">5</text><text fill="#000000" font-family="sans-serif" font-size="13" lengthAdjust="spacing" textLength="3.614" x="253.2362" y="444.677">&#160;</text><path d="M3,473.2 L75.443,473.2 L75.443,480.8 L65.443,490.8 L3,490.8 L3,473.2 " fill="#FFD700" style="stroke:#000000;stroke-width:1.5;"/><rect fill="none" height="290.6" style="stroke:#000000;stroke-width:1.5;" width="799.147" x="3" y="473.2"/><text fill="#000000" font-family="sans-serif" font-size="13" font-weight="bold" lengthAdjust="spacing" textLength="27.443" x="18" y="486.277">loop</text><text fill="#000000" font-family="sans-serif" font-size="11" font-weight="bold" lengthAdjust="spacing" textLength="205.9955" x="90.443" y="485.4189">[diagramName in lastOpenedDiagrams]</text><polygon fill="#181818" points="475.7519,508.4,485.7519,512.4,475.7519,516.4,479.7519,512.4" style="stroke:#181818;stroke-width:1.0;"/><line style="stroke:#181818;stroke-width:1.0;stroke-dasharray:2.0,2.0;" x1="230.0082" x2="481.7519" y1="512.4" y2="512.4"/><text fill="#000000" font-family="sans-serif" font-size="13" font-weight="bold" lengthAdjust="spacing" textLength="7.228" x="237.0082" y="506.877">6</text><text fill="#000000" font-family="sans-serif" font-size="13" lengthAdjust="spacing" textLength="175.5262" x="248.2362" y="506.877">createDiagram(diagramName)</text><rect fill="#E2E2F0" height="30.7999" rx="2.5" ry="2.5" style="stroke:#181818;stroke-width:0.5;" width="150.9054" x="487.7519" y="490.8"/><text fill="#000000" font-family="sans-serif" font-size="14" lengthAdjust="spacing" textLength="136.9054" x="494.7519" y="510.806">diagram:UMLDiagram</text><path d="M235,537.5999 L235,562.5999 L316,562.5999 L316,547.5999 L306,537.5999 L235,537.5999 " fill="#FF0000" style="stroke:#181818;stroke-width:0.5;"/><path d="M306,537.5999 L306,547.5999 L316,547.5999 L306,537.5999 " fill="#FF0000" style="stroke:#181818;stroke-width:0.5;"/><text fill="#000000" font-family="sans-serif" font-size="13" lengthAdjust="spacing" textLength="60.6841" x="241" y="554.677">by Creator</text><path d="M235,573.2 L235,598.2 L792,598.2 L792,583.2 L782,573.2 L235,573.2 " fill="#FEFFDD" style="stroke:#181818;stroke-width:0.5;"/><path d="M782,573.2 L782,583.2 L792,583.2 L782,573.2 " fill="#FEFFDD" style="stroke:#181818;stroke-width:0.5;"/><text fill="#000000" font-family="sans-serif" font-size="13" lengthAdjust="spacing" textLength="536.147" x="241" y="590.277">createDiagram(path) creates a new instance of the diagram and load the diagram info at path</text><polygon fill="#181818" points="686.8871,621.4,696.8871,625.4,686.8871,629.4,690.8871,625.4" style="stroke:#181818;stroke-width:1.0;"/><line style="stroke:#181818;stroke-width:1.0;" x1="230.0082" x2="692.8871" y1="625.4" y2="625.4"/><text fill="#000000" font-family="sans-serif" font-size="13" font-weight="bold" lengthAdjust="spacing" textLength="7.228" x="237.0082" y="619.877">7</text><text fill="#000000" font-family="sans-serif" font-size="13" lengthAdjust="spacing" textLength="98.9822" x="248.2362" y="619.877">append(diagram)</text><polygon fill="#181818" points="241.0082,651,231.0082,655,241.0082,659,237.0082,655" style="stroke:#181818;stroke-width:1.0;"/><line style="stroke:#181818;stroke-width:1.0;stroke-dasharray:2.0,2.0;" x1="235.0082" x2="702.8871" y1="655" y2="655"/><text fill="#000000" font-family="sans-serif" font-size="13" font-weight="bold" lengthAdjust="spacing" textLength="7.228" x="247.0082" y="649.477">8</text><text fill="#000000" font-family="sans-serif" font-size="13" lengthAdjust="spacing" textLength="3.614" x="258.2362" y="649.477">&#160;</text><path d="M235,668 L235,693 L414,693 L414,678 L404,668 L235,668 " fill="#FEFFDD" style="stroke:#181818;stroke-width:0.5;"/><path d="M404,668 L404,678 L414,678 L404,668 " fill="#FEFFDD" style="stroke:#181818;stroke-width:0.5;"/><text fill="#000000" font-family="sans-serif" font-size="13" lengthAdjust="spacing" textLength="158.2492" x="241" y="685.077">append is a built-in function</text><path d="M235,703.6 L235,728.6 L634,728.6 L634,713.6 L624,703.6 L235,703.6 " fill="#FEFFDD" style="stroke:#181818;stroke-width:0.5;"/><path d="M624,703.6 L624,713.6 L634,713.6 L624,703.6 " fill="#FEFFDD" style="stroke:#181818;stroke-width:0.5;"/><text fill="#000000" font-family="sans-serif" font-size="13" lengthAdjust="spacing" textLength="378.6386" x="241" y="720.677">we only load and maintain the diagrams that were opened as tabs</text><polygon fill="#181818" points="11,751.8,1,755.8,11,759.8,7,755.8" style="stroke:#181818;stroke-width:1.0;"/><line style="stroke:#181818;stroke-width:1.0;stroke-dasharray:2.0,2.0;" x1="5" x2="224.0082" y1="755.8" y2="755.8"/><text fill="#000000" font-family="sans-serif" font-size="13" font-weight="bold" lengthAdjust="spacing" textLength="7.228" x="17" y="750.277">9</text><text fill="#000000" font-family="sans-serif" font-size="13" lengthAdjust="spacing" textLength="182.7802" x="28.228" y="750.277">lastOpenedDiagrams, diagrams</text><!--SRC=[hLHDRvn03BtpAwpT2qH9VW1I8rL9L5NAroMdjWS3tcNQmOC64v9_tvdPAONiRfP3E23aiTzxVcE3lHZkcu9iihMcRzTReojO3xKI0jCIFrdpcqf9m3teah4KzOB-a4EiHIkgL2som2f_lh-B1Qjm6buNL_EJV0gSPY67ZOFKj14mctash2rLEHHlS6rOhD7QQVKbywnzaahXrcBJmHVuHlBr1PN6GjDD34TYIz9R_g_1gctzaOZRrvQiGFhy7GRVinZumsO0gUaVOtOABJyYA8hfWB6XpfUDFIWE3EqEuJ9Pv836JXwTrLJTpBousukdsUSuiC-up8n3YZvmGseK6CZkHfIgm0kY6fhUQVZMnio7Ee8yE53lwhxYK7R0NkzlBFO7CNq5PsUGGsd9BKMCfHEER8HRPEwrnp5sIT5xqXQbpcAi0mIcmJNO2N99ldWoeO3iF3DOpOAADmQSiHve533Rxx3yuy3-vFp7huaJnuoxEbMO0xRk2gfqja3ljlEa6piCKBxtebTQBjprRdfsr6OXnE1_Q_fjPuttg475Wd7vZeyVkXWMNJAPlWE3TJuY94xeNm00]--></g></svg>
