<svg xmlns="http://www.w3.org/2000/svg" xmlns:xlink="http://www.w3.org/1999/xlink" contentStyleType="text/css" height="356px" preserveAspectRatio="none" style="width:506px;height:356px;background:#FFFFFF;" version="1.1" viewBox="0 0 506 356" width="506px" zoomAndPan="magnify"><defs/><g><rect fill="#FFFFFF" height="169.4002" style="stroke:#181818;stroke-width:1.0;" width="10" x="181.0082" y="109.7999"/><rect fill="#FFFFFF" height="74.6001" style="stroke:#181818;stroke-width:1.0;" width="10" x="429.8735" y="174.9999"/><rect fill="#FFFFFF" height="216.6002" style="stroke:#000000;stroke-width:1.5;" width="497.1033" x="3" y="70.5999"/><line style="stroke:#181818;stroke-width:0.5;stroke-dasharray:5.0,5.0;" x1="185.5013" x2="185.5013" y1="53.5999" y2="304.2001"/><line style="stroke:#181818;stroke-width:0.5;stroke-dasharray:5.0,5.0;" x1="434.6437" x2="434.6437" y1="53.5999" y2="304.2001"/><rect fill="#E2E2F0" height="30.7999" rx="2.5" ry="2.5" style="stroke:#181818;stroke-width:0.5;" width="91.0137" x="140.5013" y="21.7999"/><text fill="#000000" font-family="sans-serif" font-size="14" lengthAdjust="spacing" textLength="77.0137" x="147.5013" y="41.8059">:UMLProject</text><rect fill="#E2E2F0" height="30.7999" rx="2.5" ry="2.5" style="stroke:#181818;stroke-width:0.5;" width="91.0137" x="140.5013" y="303.2001"/><text fill="#000000" font-family="sans-serif" font-size="14" lengthAdjust="spacing" textLength="77.0137" x="147.5013" y="323.206">:UMLProject</text><rect fill="#E2E2F0" height="47.5999" rx="2.5" ry="2.5" style="stroke:#181818;stroke-width:0.5;" width="110.4596" x="379.6437" y="5"/><text fill="#000000" font-family="sans-serif" font-size="14" lengthAdjust="spacing" textLength="96.4596" x="386.6437" y="25.0059">currentDiagram</text><text fill="#000000" font-family="sans-serif" font-size="14" lengthAdjust="spacing" textLength="91.7836" x="388.9816" y="41.8059">:*UMLDiagram</text><rect fill="#E2E2F0" height="47.5999" rx="2.5" ry="2.5" style="stroke:#181818;stroke-width:0.5;" width="110.4596" x="379.6437" y="303.2001"/><text fill="#000000" font-family="sans-serif" font-size="14" lengthAdjust="spacing" textLength="96.4596" x="386.6437" y="323.206">currentDiagram</text><text fill="#000000" font-family="sans-serif" font-size="14" lengthAdjust="spacing" textLength="91.7836" x="388.9816" y="340.0059">:*UMLDiagram</text><rect fill="#FFFFFF" height="169.4002" style="stroke:#181818;stroke-width:1.0;" width="10" x="181.0082" y="109.7999"/><rect fill="#FFFFFF" height="74.6001" style="stroke:#181818;stroke-width:1.0;" width="10" x="429.8735" y="174.9999"/><path d="M3,70.5999 L161.3991,70.5999 L161.3991,78.1999 L151.3991,88.1999 L3,88.1999 L3,70.5999 " fill="#FFD700" style="stroke:#000000;stroke-width:1.5;"/><rect fill="none" height="216.6002" style="stroke:#000000;stroke-width:1.5;" width="497.1033" x="3" y="70.5999"/><text fill="#000000" font-family="sans-serif" font-size="13" font-weight="bold" lengthAdjust="spacing" textLength="113.3991" x="18" y="83.6769">pasteComponents</text><polygon fill="#181818" points="169.0082,105.7999,179.0082,109.7999,169.0082,113.7999,173.0082,109.7999" style="stroke:#181818;stroke-width:1.0;"/><line style="stroke:#181818;stroke-width:1.0;" x1="0" x2="175.0082" y1="109.7999" y2="109.7999"/><text fill="#000000" font-family="sans-serif" font-size="13" font-weight="bold" lengthAdjust="spacing" textLength="7.228" x="7" y="104.2769">1</text><text fill="#000000" font-family="sans-serif" font-size="13" lengthAdjust="spacing" textLength="143.7802" x="18.228" y="104.2769">PasteComponents(point)</text><path d="M81,122.7999 L81,147.7999 L175,147.7999 L175,132.7999 L165,122.7999 L81,122.7999 " fill="#FF0000" style="stroke:#181818;stroke-width:0.5;"/><path d="M165,122.7999 L165,132.7999 L175,132.7999 L165,122.7999 " fill="#FF0000" style="stroke:#181818;stroke-width:0.5;"/><text fill="#000000" font-family="sans-serif" font-size="13" lengthAdjust="spacing" textLength="73.6841" x="87" y="139.8769">by Controller</text><polygon fill="#181818" points="417.8735,170.9999,427.8735,174.9999,417.8735,178.9999,421.8735,174.9999" style="stroke:#181818;stroke-width:1.0;"/><line style="stroke:#181818;stroke-width:1.0;" x1="191.0082" x2="423.8735" y1="174.9999" y2="174.9999"/><text fill="#000000" font-family="sans-serif" font-size="13" font-weight="bold" lengthAdjust="spacing" textLength="7.228" x="198.0082" y="169.4769">2</text><text fill="#000000" font-family="sans-serif" font-size="13" lengthAdjust="spacing" textLength="208.6373" x="209.2362" y="169.4769">ImportSubmodule("clipboard", point)</text><rect fill="none" height="40.0001" style="stroke:#000000;stroke-width:1.5;" width="355.6019" x="137.5013" y="182.9999"/><path d="M137.5013,182.9999 L198.5013,182.9999 L198.5013,189.9999 L188.5013,199.9999 L137.5013,199.9999 L137.5013,182.9999 " fill="#EEEEEE" style="stroke:#000000;stroke-width:2.0;"/><text fill="#000000" font-family="sans-serif" font-size="13" font-weight="bold" lengthAdjust="spacing" textLength="16.614" x="150.5013" y="197.0769">ref</text><text fill="#000000" font-family="sans-serif" font-size="12" lengthAdjust="spacing" textLength="95.3646" x="267.62" y="215.148">import submodule</text><polygon fill="#181818" points="202.0082,245.6,192.0082,249.6,202.0082,253.6,198.0082,249.6" style="stroke:#181818;stroke-width:1.0;"/><line style="stroke:#181818;stroke-width:1.0;stroke-dasharray:2.0,2.0;" x1="196.0082" x2="433.8735" y1="249.6" y2="249.6"/><text fill="#000000" font-family="sans-serif" font-size="13" font-weight="bold" lengthAdjust="spacing" textLength="7.228" x="208.0082" y="244.077">3</text><text fill="#000000" font-family="sans-serif" font-size="13" lengthAdjust="spacing" textLength="3.614" x="219.2362" y="244.077">&#160;</text><polygon fill="#181818" points="11,275.2001,1,279.2001,11,283.2001,7,279.2001" style="stroke:#181818;stroke-width:1.0;"/><line style="stroke:#181818;stroke-width:1.0;stroke-dasharray:2.0,2.0;" x1="5" x2="185.0082" y1="279.2001" y2="279.2001"/><text fill="#000000" font-family="sans-serif" font-size="13" font-weight="bold" lengthAdjust="spacing" textLength="7.228" x="17" y="273.677">4</text><text fill="#000000" font-family="sans-serif" font-size="13" lengthAdjust="spacing" textLength="3.614" x="28.228" y="273.677">&#160;</text><!--SRC=[XP2nRiCm34HtVmLXBsdW_e26BkaI80421Dswo1RjAf19WQPIzE_B12bWP-bDf72yTv0lobIc3gNoDlfUuzKh0bCr2fVSZ9m2DDzVqHwpdnLtF6Kc99qhCBs-GUq-ZeUJy0LxhHsSrgvDvaZwSZSJMqh2GO67zHaqWi51zmCx9XLEoHh1GsldZTWN4Gj_ZtuKFtsIsvhZiLc5lS55pwMRE9I4cxfFCNVi9TGjBFhS93W0Nr6UAEq_470GxnIO_p2BI2r2rM942i-_zmi0]--></g></svg>
