<svg xmlns="http://www.w3.org/2000/svg" xmlns:xlink="http://www.w3.org/1999/xlink" contentStyleType="text/css" height="569px" preserveAspectRatio="none" style="width:662px;height:569px;background:#FFFFFF;" version="1.1" viewBox="0 0 662 569" width="662px" zoomAndPan="magnify"><defs/><g><rect fill="#FFFFFF" height="415.8001" style="stroke:#181818;stroke-width:1.0;" width="10" x="210.5832" y="93"/><rect fill="#FFFFFF" height="76.2" style="stroke:#181818;stroke-width:1.0;" width="10" x="215.5832" y="303.7999"/><rect fill="#FFFFFF" height="40.6" style="stroke:#181818;stroke-width:1.0;" width="10" x="215.5832" y="431.6"/><rect fill="#FFFFFF" height="463.0001" style="stroke:#000000;stroke-width:1.5;" width="653.4343" x="3" y="53.7999"/><rect fill="#FFFFFF" height="251.4" style="stroke:#000000;stroke-width:1.5;" width="486.3579" x="160.0764" y="143.6"/><line style="stroke:#181818;stroke-width:0.5;stroke-dasharray:5.0,5.0;" x1="215.0764" x2="215.0764" y1="36.7999" y2="533.8"/><line style="stroke:#181818;stroke-width:0.5;stroke-dasharray:5.0,5.0;" x1="560.5289" x2="560.5289" y1="227.7" y2="533.8"/><rect fill="#E2E2F0" height="30.7999" rx="2.5" ry="2.5" style="stroke:#181818;stroke-width:0.5;" width="91.0137" x="170.0764" y="5"/><text fill="#000000" font-family="sans-serif" font-size="14" lengthAdjust="spacing" textLength="77.0137" x="177.0764" y="25.0059">:UMLProject</text><rect fill="#E2E2F0" height="30.7999" rx="2.5" ry="2.5" style="stroke:#181818;stroke-width:0.5;" width="91.0137" x="170.0764" y="532.8"/><text fill="#000000" font-family="sans-serif" font-size="14" lengthAdjust="spacing" textLength="77.0137" x="177.0764" y="552.806">:UMLProject</text><rect fill="#E2E2F0" height="30.7999" rx="2.5" ry="2.5" style="stroke:#181818;stroke-width:0.5;" width="150.9054" x="485.5289" y="532.8"/><text fill="#000000" font-family="sans-serif" font-size="14" lengthAdjust="spacing" textLength="136.9054" x="492.5289" y="552.806">diagram:UMLDiagram</text><rect fill="#FFFFFF" height="415.8001" style="stroke:#181818;stroke-width:1.0;" width="10" x="210.5832" y="93"/><rect fill="#FFFFFF" height="76.2" style="stroke:#181818;stroke-width:1.0;" width="10" x="215.5832" y="303.7999"/><rect fill="#FFFFFF" height="40.6" style="stroke:#181818;stroke-width:1.0;" width="10" x="215.5832" y="431.6"/><path d="M3,53.7999 L136.8681,53.7999 L136.8681,61.3999 L126.8681,71.3999 L3,71.3999 L3,53.7999 " fill="#FFD700" style="stroke:#000000;stroke-width:1.5;"/><rect fill="none" height="463.0001" style="stroke:#000000;stroke-width:1.5;" width="653.4343" x="3" y="53.7999"/><text fill="#000000" font-family="sans-serif" font-size="13" font-weight="bold" lengthAdjust="spacing" textLength="88.8681" x="18" y="66.8769">selectDiagram</text><polygon fill="#181818" points="198.5832,89,208.5832,93,198.5832,97,202.5832,93" style="stroke:#181818;stroke-width:1.0;"/><line style="stroke:#181818;stroke-width:1.0;" x1="0" x2="204.5832" y1="93" y2="93"/><text fill="#000000" font-family="sans-serif" font-size="13" font-weight="bold" lengthAdjust="spacing" textLength="7.228" x="7" y="87.477">1</text><text fill="#000000" font-family="sans-serif" font-size="13" lengthAdjust="spacing" textLength="173.3552" x="18.228" y="87.477">selectDiagram(diagramName)</text><path d="M110,106 L110,131 L204,131 L204,116 L194,106 L110,106 " fill="#FF0000" style="stroke:#181818;stroke-width:0.5;"/><path d="M194,106 L194,116 L204,116 L194,106 " fill="#FF0000" style="stroke:#181818;stroke-width:0.5;"/><text fill="#000000" font-family="sans-serif" font-size="13" lengthAdjust="spacing" textLength="73.6841" x="116" y="123.077">by Controller</text><path d="M160.0764,143.6 L225.2914,143.6 L225.2914,151.2 L215.2914,161.2 L160.0764,161.2 L160.0764,143.6 " fill="#FFD700" style="stroke:#000000;stroke-width:1.5;"/><rect fill="none" height="251.4" style="stroke:#000000;stroke-width:1.5;" width="486.3579" x="160.0764" y="143.6"/><text fill="#000000" font-family="sans-serif" font-size="13" font-weight="bold" lengthAdjust="spacing" textLength="20.215" x="175.0764" y="156.677">opt</text><text fill="#000000" font-family="sans-serif" font-size="11" font-weight="bold" lengthAdjust="spacing" textLength="197.4375" x="240.2914" y="155.8189">[diagramName not in activeDiagrams]</text><path d="M225,166.2 L225,191.2 L547,191.2 L547,176.2 L537,166.2 L225,166.2 " fill="#FEFFDD" style="stroke:#181818;stroke-width:0.5;"/><path d="M537,166.2 L537,176.2 L547,176.2 L537,166.2 " fill="#FEFFDD" style="stroke:#181818;stroke-width:0.5;"/><text fill="#000000" font-family="sans-serif" font-size="13" lengthAdjust="spacing" textLength="301.3274" x="231" y="183.277">load the selected diamgram if it has not been loaded</text><polygon fill="#181818" points="473.5289,214.4,483.5289,218.4,473.5289,222.4,477.5289,218.4" style="stroke:#181818;stroke-width:1.0;"/><line style="stroke:#181818;stroke-width:1.0;stroke-dasharray:2.0,2.0;" x1="220.5832" x2="479.5289" y1="218.4" y2="218.4"/><text fill="#000000" font-family="sans-serif" font-size="13" font-weight="bold" lengthAdjust="spacing" textLength="7.228" x="227.5832" y="212.877">2</text><text fill="#000000" font-family="sans-serif" font-size="13" lengthAdjust="spacing" textLength="180.1412" x="238.8112" y="212.877">createDiagram(diagramName)"</text><rect fill="#E2E2F0" height="30.7999" rx="2.5" ry="2.5" style="stroke:#181818;stroke-width:0.5;" width="150.9054" x="485.5289" y="196.8"/><text fill="#000000" font-family="sans-serif" font-size="14" lengthAdjust="spacing" textLength="136.9054" x="492.5289" y="216.8059">diagram:UMLDiagram</text><path d="M225,243.5999 L225,268.5999 L306,268.5999 L306,253.5999 L296,243.5999 L225,243.5999 " fill="#FF0000" style="stroke:#181818;stroke-width:0.5;"/><path d="M296,243.5999 L296,253.5999 L306,253.5999 L296,243.5999 " fill="#FF0000" style="stroke:#181818;stroke-width:0.5;"/><text fill="#000000" font-family="sans-serif" font-size="13" lengthAdjust="spacing" textLength="60.6841" x="231" y="260.6769">by Creator</text><line style="stroke:#181818;stroke-width:1.0;" x1="220.5832" x2="267.5832" y1="290.7999" y2="290.7999"/><line style="stroke:#181818;stroke-width:1.0;" x1="267.5832" x2="267.5832" y1="290.7999" y2="303.7999"/><line style="stroke:#181818;stroke-width:1.0;" x1="226.5832" x2="267.5832" y1="303.7999" y2="303.7999"/><polygon fill="#181818" points="236.5832,299.7999,226.5832,303.7999,236.5832,307.7999,232.5832,303.7999" style="stroke:#181818;stroke-width:1.0;"/><text fill="#000000" font-family="sans-serif" font-size="13" font-weight="bold" lengthAdjust="spacing" textLength="7.228" x="232.5832" y="285.2769">3</text><text fill="#000000" font-family="sans-serif" font-size="13" lengthAdjust="spacing" textLength="300.1703" x="243.8112" y="285.2769">activeDiagrams = append(activeDiagrams, diagram)</text><path d="M230,321.7999 L230,346.7999 L409,346.7999 L409,331.7999 L399,321.7999 L230,321.7999 " fill="#FEFFDD" style="stroke:#181818;stroke-width:0.5;"/><path d="M399,321.7999 L399,331.7999 L409,331.7999 L399,321.7999 " fill="#FEFFDD" style="stroke:#181818;stroke-width:0.5;"/><text fill="#000000" font-family="sans-serif" font-size="13" lengthAdjust="spacing" textLength="158.2492" x="236" y="338.877">append is a built-in function</text><line style="stroke:#181818;stroke-width:1.0;stroke-dasharray:2.0,2.0;" x1="225.5832" x2="267.5832" y1="379" y2="379"/><line style="stroke:#181818;stroke-width:1.0;stroke-dasharray:2.0,2.0;" x1="267.5832" x2="267.5832" y1="379" y2="392"/><line style="stroke:#181818;stroke-width:1.0;stroke-dasharray:2.0,2.0;" x1="220.5832" x2="267.5832" y1="392" y2="392"/><polygon fill="#181818" points="230.5832,388,220.5832,392,230.5832,396,226.5832,392" style="stroke:#181818;stroke-width:1.0;"/><text fill="#000000" font-family="sans-serif" font-size="13" font-weight="bold" lengthAdjust="spacing" textLength="7.228" x="232.5832" y="373.477">4</text><text fill="#000000" font-family="sans-serif" font-size="13" lengthAdjust="spacing" textLength="3.614" x="243.8112" y="373.477">&#160;</text><line style="stroke:#181818;stroke-width:1.0;" x1="220.5832" x2="267.5832" y1="418.6" y2="418.6"/><line style="stroke:#181818;stroke-width:1.0;" x1="267.5832" x2="267.5832" y1="418.6" y2="431.6"/><line style="stroke:#181818;stroke-width:1.0;" x1="226.5832" x2="267.5832" y1="431.6" y2="431.6"/><polygon fill="#181818" points="236.5832,427.6,226.5832,431.6,236.5832,435.6,232.5832,431.6" style="stroke:#181818;stroke-width:1.0;"/><text fill="#000000" font-family="sans-serif" font-size="13" font-weight="bold" lengthAdjust="spacing" textLength="7.228" x="232.5832" y="413.077">5</text><text fill="#000000" font-family="sans-serif" font-size="13" lengthAdjust="spacing" textLength="282.8153" x="243.8112" y="413.077">currentDiagram = activeDiagrams[diagramName]</text><line style="stroke:#181818;stroke-width:1.0;stroke-dasharray:2.0,2.0;" x1="225.5832" x2="267.5832" y1="471.2" y2="471.2"/><line style="stroke:#181818;stroke-width:1.0;stroke-dasharray:2.0,2.0;" x1="267.5832" x2="267.5832" y1="471.2" y2="484.2"/><line style="stroke:#181818;stroke-width:1.0;stroke-dasharray:2.0,2.0;" x1="220.5832" x2="267.5832" y1="484.2" y2="484.2"/><polygon fill="#181818" points="230.5832,480.2,220.5832,484.2,230.5832,488.2,226.5832,484.2" style="stroke:#181818;stroke-width:1.0;"/><text fill="#000000" font-family="sans-serif" font-size="13" font-weight="bold" lengthAdjust="spacing" textLength="7.228" x="232.5832" y="465.677">6</text><text fill="#000000" font-family="sans-serif" font-size="13" lengthAdjust="spacing" textLength="3.614" x="243.8112" y="465.677">&#160;</text><polygon fill="#181818" points="11,504.8,1,508.8,11,512.8,7,508.8" style="stroke:#181818;stroke-width:1.0;"/><line style="stroke:#181818;stroke-width:1.0;stroke-dasharray:2.0,2.0;" x1="5" x2="214.5832" y1="508.8" y2="508.8"/><text fill="#000000" font-family="sans-serif" font-size="13" font-weight="bold" lengthAdjust="spacing" textLength="7.228" x="17" y="503.277">7</text><text fill="#000000" font-family="sans-serif" font-size="13" lengthAdjust="spacing" textLength="3.614" x="28.228" y="503.277">&#160;</text><!--SRC=[ZPAnJiCm48RtFCMlP6ahyWAHO86H8XOcnE34byJ8iQEB3UBjiTEan6g5wiNMsVVVTxzFU6UD7shYJ8IZQ9pw4evWJTQnzMFHMIrHVFSg12VIrBWd9JeMGuQmoWVarTln-PNjPxZAg_JDJfxs5p7GVaumDkXeQXricwQYO98LwXyyMkFOQXsOi2mxkeHaenibeGncT5eAJ-VCSr5MNNzPjOAsGiBrQtSae_WGHQ1QA8TUJ7EDciZChqacwcaNPRHamOiN2r2Emm4Lq305Uw_Paz-Al34gYbd-Z-RYVrARS0ynZcJaBetVhGxlRpVo90GrGQ3sIhio_4hhJH0EqxILONAU_q8XAxiDFpZOU6Oowu15_WJyVMFfHtQbu7ACfCce_W80]--></g></svg>
