<svg xmlns="http://www.w3.org/2000/svg" xmlns:xlink="http://www.w3.org/1999/xlink" contentStyleType="text/css" height="891px" preserveAspectRatio="none" style="width:1265px;height:891px;background:#FFFFFF;" version="1.1" viewBox="0 0 1265 891" width="1265px" zoomAndPan="magnify"><defs/><g><rect fill="#FFFFFF" height="703.6003" style="stroke:#181818;stroke-width:1.0;" width="10" x="175.2232" y="109.7999"/><rect fill="#FFFFFF" height="608.8002" style="stroke:#181818;stroke-width:1.0;" width="10" x="353.4464" y="174.9999"/><rect fill="#FFFFFF" height="549.6002" style="stroke:#181818;stroke-width:1.0;" width="10" x="531.6695" y="204.5999"/><rect fill="#FFFFFF" height="76.2" style="stroke:#181818;stroke-width:1.0;" width="10" x="536.6695" y="266.7999"/><rect fill="#FFFFFF" height="209.6001" style="stroke:#181818;stroke-width:1.0;" width="10" x="968.1722" y="446.8"/><rect fill="#FFFFFF" height="40.6" style="stroke:#181818;stroke-width:1.0;" width="10" x="973.1722" y="484.4"/><rect fill="#FFFFFF" height="65.2" style="stroke:#181818;stroke-width:1.0;" width="10" x="1171.2594" y="561.6001"/><rect fill="#FFFFFF" height="29.6" style="stroke:#181818;stroke-width:1.0;" width="10" x="1171.2594" y="688.0001"/><rect fill="#FFFFFF" height="750.8003" style="stroke:#000000;stroke-width:1.5;" width="1256.2802" x="3" y="70.5999"/><rect fill="#FFFFFF" height="174.0001" style="stroke:#000000;stroke-width:1.5;" width="500.1315" x="478.0407" y="219.5999"/><rect fill="#FFFFFF" height="318.0001" style="stroke:#000000;stroke-width:1.5;" width="771.2395" x="478.0407" y="407.6"/><rect fill="#FFFFFF" height="61.2" style="stroke:none;stroke-width:1.0;" width="771.2395" x="478.0407" y="664.4001"/><line style="stroke:#181818;stroke-width:0.5;stroke-dasharray:5.0,5.0;" x1="179.7163" x2="179.7163" y1="53.5999" y2="838.4002"/><line style="stroke:#181818;stroke-width:0.5;stroke-dasharray:5.0,5.0;" x1="358.2165" x2="358.2165" y1="53.5999" y2="838.4002"/><line style="stroke:#181818;stroke-width:0.5;stroke-dasharray:5.0,5.0;" x1="536.0407" x2="536.0407" y1="53.5999" y2="838.4002"/><line style="stroke:#181818;stroke-width:0.5;stroke-dasharray:5.0,5.0;" x1="972.7524" x2="972.7524" y1="53.5999" y2="838.4002"/><line style="stroke:#181818;stroke-width:0.5;stroke-dasharray:5.0,5.0;" x1="1176.2386" x2="1176.2386" y1="53.5999" y2="838.4002"/><rect fill="#E2E2F0" height="30.7999" rx="2.5" ry="2.5" style="stroke:#181818;stroke-width:0.5;" width="91.0137" x="134.7163" y="21.7999"/><text fill="#000000" font-family="sans-serif" font-size="14" lengthAdjust="spacing" textLength="77.0137" x="141.7163" y="41.8059">:UMLProject</text><rect fill="#E2E2F0" height="30.7999" rx="2.5" ry="2.5" style="stroke:#181818;stroke-width:0.5;" width="91.0137" x="134.7163" y="837.4002"/><text fill="#000000" font-family="sans-serif" font-size="14" lengthAdjust="spacing" textLength="77.0137" x="141.7163" y="857.4061">:UMLProject</text><rect fill="#E2E2F0" height="47.5999" rx="2.5" ry="2.5" style="stroke:#181818;stroke-width:0.5;" width="110.4596" x="303.2165" y="5"/><text fill="#000000" font-family="sans-serif" font-size="14" lengthAdjust="spacing" textLength="96.4596" x="310.2165" y="25.0059">currentDiagram</text><text fill="#000000" font-family="sans-serif" font-size="14" lengthAdjust="spacing" textLength="91.7836" x="312.5545" y="41.8059">:*UMLDiagram</text><rect fill="#E2E2F0" height="47.5999" rx="2.5" ry="2.5" style="stroke:#181818;stroke-width:0.5;" width="110.4596" x="303.2165" y="837.4002"/><text fill="#000000" font-family="sans-serif" font-size="14" lengthAdjust="spacing" textLength="96.4596" x="310.2165" y="857.4061">currentDiagram</text><text fill="#000000" font-family="sans-serif" font-size="14" lengthAdjust="spacing" textLength="91.7836" x="312.5545" y="874.206">:*UMLDiagram</text><rect fill="#E2E2F0" height="30.7999" rx="2.5" ry="2.5" style="stroke:#181818;stroke-width:0.5;" width="97.2576" x="488.0407" y="21.7999"/><text fill="#000000" font-family="sans-serif" font-size="14" lengthAdjust="spacing" textLength="83.2576" x="495.0407" y="41.8059">:Components</text><rect fill="#E2E2F0" height="30.7999" rx="2.5" ry="2.5" style="stroke:#181818;stroke-width:0.5;" width="97.2576" x="488.0407" y="837.4002"/><text fill="#000000" font-family="sans-serif" font-size="14" lengthAdjust="spacing" textLength="83.2576" x="495.0407" y="857.4061">:Components</text><rect fill="#E2E2F0" height="47.5999" rx="2.5" ry="2.5" style="stroke:#181818;stroke-width:0.5;" width="140.8395" x="902.7524" y="5"/><text fill="#000000" font-family="sans-serif" font-size="14" lengthAdjust="spacing" textLength="126.8395" x="909.7524" y="25.0059">SelectedComponent</text><text fill="#000000" font-family="sans-serif" font-size="14" lengthAdjust="spacing" textLength="76.2577" x="935.0433" y="41.8059">:Component</text><rect fill="#E2E2F0" height="47.5999" rx="2.5" ry="2.5" style="stroke:#181818;stroke-width:0.5;" width="140.8395" x="902.7524" y="837.4002"/><text fill="#000000" font-family="sans-serif" font-size="14" lengthAdjust="spacing" textLength="126.8395" x="909.7524" y="857.4061">SelectedComponent</text><text fill="#000000" font-family="sans-serif" font-size="14" lengthAdjust="spacing" textLength="76.2577" x="935.0433" y="874.206">:Component</text><rect fill="#E2E2F0" height="30.7999" rx="2.5" ry="2.5" style="stroke:#181818;stroke-width:0.5;" width="126.0415" x="1113.2386" y="21.7999"/><text fill="#000000" font-family="sans-serif" font-size="14" lengthAdjust="spacing" textLength="112.0415" x="1120.2386" y="41.8059">:PropertyManager</text><rect fill="#E2E2F0" height="30.7999" rx="2.5" ry="2.5" style="stroke:#181818;stroke-width:0.5;" width="126.0415" x="1113.2386" y="837.4002"/><text fill="#000000" font-family="sans-serif" font-size="14" lengthAdjust="spacing" textLength="112.0415" x="1120.2386" y="857.4061">:PropertyManager</text><rect fill="#FFFFFF" height="703.6003" style="stroke:#181818;stroke-width:1.0;" width="10" x="175.2232" y="109.7999"/><rect fill="#FFFFFF" height="608.8002" style="stroke:#181818;stroke-width:1.0;" width="10" x="353.4464" y="174.9999"/><rect fill="#FFFFFF" height="549.6002" style="stroke:#181818;stroke-width:1.0;" width="10" x="531.6695" y="204.5999"/><rect fill="#FFFFFF" height="76.2" style="stroke:#181818;stroke-width:1.0;" width="10" x="536.6695" y="266.7999"/><rect fill="#FFFFFF" height="209.6001" style="stroke:#181818;stroke-width:1.0;" width="10" x="968.1722" y="446.8"/><rect fill="#FFFFFF" height="40.6" style="stroke:#181818;stroke-width:1.0;" width="10" x="973.1722" y="484.4"/><rect fill="#FFFFFF" height="65.2" style="stroke:#181818;stroke-width:1.0;" width="10" x="1171.2594" y="561.6001"/><rect fill="#FFFFFF" height="29.6" style="stroke:#181818;stroke-width:1.0;" width="10" x="1171.2594" y="688.0001"/><path d="M3,70.5999 L157.0701,70.5999 L157.0701,78.1999 L147.0701,88.1999 L3,88.1999 L3,70.5999 " fill="#FFD700" style="stroke:#000000;stroke-width:1.5;"/><rect fill="none" height="750.8003" style="stroke:#000000;stroke-width:1.5;" width="1256.2802" x="3" y="70.5999"/><text fill="#000000" font-family="sans-serif" font-size="13" font-weight="bold" lengthAdjust="spacing" textLength="109.0701" x="18" y="83.6769">selectComponent</text><polygon fill="#181818" points="163.2232,105.7999,173.2232,109.7999,163.2232,113.7999,167.2232,109.7999" style="stroke:#181818;stroke-width:1.0;"/><line style="stroke:#181818;stroke-width:1.0;" x1="0" x2="169.2232" y1="109.7999" y2="109.7999"/><text fill="#000000" font-family="sans-serif" font-size="13" font-weight="bold" lengthAdjust="spacing" textLength="7.228" x="7" y="104.2769">1</text><text fill="#000000" font-family="sans-serif" font-size="13" lengthAdjust="spacing" textLength="137.9952" x="18.228" y="104.2769">selectComponent(point)</text><path d="M75,122.7999 L75,147.7999 L169,147.7999 L169,132.7999 L159,122.7999 L75,122.7999 " fill="#FF0000" style="stroke:#181818;stroke-width:0.5;"/><path d="M159,122.7999 L159,132.7999 L169,132.7999 L159,122.7999 " fill="#FF0000" style="stroke:#181818;stroke-width:0.5;"/><text fill="#000000" font-family="sans-serif" font-size="13" lengthAdjust="spacing" textLength="73.6841" x="81" y="139.8769">by Controller</text><polygon fill="#181818" points="341.4464,170.9999,351.4464,174.9999,341.4464,178.9999,345.4464,174.9999" style="stroke:#181818;stroke-width:1.0;"/><line style="stroke:#181818;stroke-width:1.0;" x1="185.2232" x2="347.4464" y1="174.9999" y2="174.9999"/><text fill="#000000" font-family="sans-serif" font-size="13" font-weight="bold" lengthAdjust="spacing" textLength="7.228" x="192.2232" y="169.4769">2</text><text fill="#000000" font-family="sans-serif" font-size="13" lengthAdjust="spacing" textLength="137.9952" x="203.4512" y="169.4769">selectComponent(point)</text><polygon fill="#181818" points="519.6695,200.5999,529.6695,204.5999,519.6695,208.5999,523.6695,204.5999" style="stroke:#181818;stroke-width:1.0;"/><line style="stroke:#181818;stroke-width:1.0;" x1="363.4464" x2="525.6695" y1="204.5999" y2="204.5999"/><text fill="#000000" font-family="sans-serif" font-size="13" font-weight="bold" lengthAdjust="spacing" textLength="7.228" x="370.4464" y="199.0769">3</text><text fill="#000000" font-family="sans-serif" font-size="13" lengthAdjust="spacing" textLength="137.9952" x="381.6744" y="199.0769">selectComponent(point)</text><path d="M478.0407,219.5999 L550.4837,219.5999 L550.4837,227.1999 L540.4837,237.1999 L478.0407,237.1999 L478.0407,219.5999 " fill="#FFD700" style="stroke:#000000;stroke-width:1.5;"/><rect fill="none" height="174.0001" style="stroke:#000000;stroke-width:1.5;" width="500.1315" x="478.0407" y="219.5999"/><text fill="#000000" font-family="sans-serif" font-size="13" font-weight="bold" lengthAdjust="spacing" textLength="27.443" x="493.0407" y="232.6769">loop</text><text fill="#000000" font-family="sans-serif" font-size="11" font-weight="bold" lengthAdjust="spacing" textLength="145.4519" x="565.4837" y="231.8188">[component covering point]</text><line style="stroke:#181818;stroke-width:1.0;" x1="541.6695" x2="588.6695" y1="253.7999" y2="253.7999"/><line style="stroke:#181818;stroke-width:1.0;" x1="588.6695" x2="588.6695" y1="253.7999" y2="266.7999"/><line style="stroke:#181818;stroke-width:1.0;" x1="547.6695" x2="588.6695" y1="266.7999" y2="266.7999"/><polygon fill="#181818" points="557.6695,262.7999,547.6695,266.7999,557.6695,270.7999,553.6695,266.7999" style="stroke:#181818;stroke-width:1.0;"/><text fill="#000000" font-family="sans-serif" font-size="13" font-weight="bold" lengthAdjust="spacing" textLength="7.228" x="553.6695" y="248.2769">4</text><text fill="#000000" font-family="sans-serif" font-size="13" lengthAdjust="spacing" textLength="391.2746" x="564.8975" y="248.2769">selectedComponents = append(selectedComponents, &amp;component)</text><path d="M551,284.7999 L551,309.7999 L730,309.7999 L730,294.7999 L720,284.7999 L551,284.7999 " fill="#FEFFDD" style="stroke:#181818;stroke-width:0.5;"/><path d="M720,284.7999 L720,294.7999 L730,294.7999 L720,284.7999 " fill="#FEFFDD" style="stroke:#181818;stroke-width:0.5;"/><text fill="#000000" font-family="sans-serif" font-size="13" lengthAdjust="spacing" textLength="158.2492" x="557" y="301.877">append is a built-in function</text><line style="stroke:#181818;stroke-width:1.0;stroke-dasharray:2.0,2.0;" x1="546.6695" x2="588.6695" y1="342" y2="342"/><line style="stroke:#181818;stroke-width:1.0;stroke-dasharray:2.0,2.0;" x1="588.6695" x2="588.6695" y1="342" y2="355"/><line style="stroke:#181818;stroke-width:1.0;stroke-dasharray:2.0,2.0;" x1="541.6695" x2="588.6695" y1="355" y2="355"/><polygon fill="#181818" points="551.6695,351,541.6695,355,551.6695,359,547.6695,355" style="stroke:#181818;stroke-width:1.0;"/><text fill="#000000" font-family="sans-serif" font-size="13" font-weight="bold" lengthAdjust="spacing" textLength="7.228" x="553.6695" y="336.477">5</text><text fill="#000000" font-family="sans-serif" font-size="13" lengthAdjust="spacing" textLength="3.614" x="564.8975" y="336.477">&#160;</text><path d="M546,363 L546,388 L886,388 L886,373 L876,363 L546,363 " fill="#FEFFDD" style="stroke:#181818;stroke-width:0.5;"/><path d="M876,363 L876,373 L886,373 L876,363 " fill="#FEFFDD" style="stroke:#181818;stroke-width:0.5;"/><text fill="#000000" font-family="sans-serif" font-size="13" lengthAdjust="spacing" textLength="319.3844" x="552" y="380.077">add component to a list of selected-component pointers</text><path d="M478.0407,407.6 L543.2557,407.6 L543.2557,415.2 L533.2557,425.2 L478.0407,425.2 L478.0407,407.6 " fill="#FFD700" style="stroke:#000000;stroke-width:1.5;"/><rect fill="none" height="318.0001" style="stroke:#000000;stroke-width:1.5;" width="771.2395" x="478.0407" y="407.6"/><text fill="#000000" font-family="sans-serif" font-size="13" font-weight="bold" lengthAdjust="spacing" textLength="20.215" x="493.0407" y="420.677">opt</text><text fill="#000000" font-family="sans-serif" font-size="11" font-weight="bold" lengthAdjust="spacing" textLength="149.1369" x="558.2557" y="419.8189">[only select one component]</text><polygon fill="#181818" points="956.1722,442.8,966.1722,446.8,956.1722,450.8,960.1722,446.8" style="stroke:#181818;stroke-width:1.0;"/><line style="stroke:#181818;stroke-width:1.0;" x1="541.6695" x2="962.1722" y1="446.8" y2="446.8"/><text fill="#000000" font-family="sans-serif" font-size="13" font-weight="bold" lengthAdjust="spacing" textLength="7.228" x="548.6695" y="441.277">6</text><text fill="#000000" font-family="sans-serif" font-size="13" lengthAdjust="spacing" textLength="89.5831" x="559.8975" y="441.277">setupProperty()</text><line style="stroke:#181818;stroke-width:1.0;" x1="978.1722" x2="1025.1722" y1="471.4" y2="471.4"/><line style="stroke:#181818;stroke-width:1.0;" x1="1025.1722" x2="1025.1722" y1="471.4" y2="484.4"/><line style="stroke:#181818;stroke-width:1.0;" x1="984.1722" x2="1025.1722" y1="484.4" y2="484.4"/><polygon fill="#181818" points="994.1722,480.4,984.1722,484.4,994.1722,488.4,990.1722,484.4" style="stroke:#181818;stroke-width:1.0;"/><text fill="#000000" font-family="sans-serif" font-size="13" font-weight="bold" lengthAdjust="spacing" textLength="7.228" x="990.1722" y="465.877">7</text><text fill="#000000" font-family="sans-serif" font-size="13" lengthAdjust="spacing" textLength="157.8592" x="1001.4002" y="465.877">tree = createPropertyTree()</text><line style="stroke:#181818;stroke-width:1.0;stroke-dasharray:2.0,2.0;" x1="983.1722" x2="1025.1722" y1="524" y2="524"/><line style="stroke:#181818;stroke-width:1.0;stroke-dasharray:2.0,2.0;" x1="1025.1722" x2="1025.1722" y1="524" y2="537"/><line style="stroke:#181818;stroke-width:1.0;stroke-dasharray:2.0,2.0;" x1="978.1722" x2="1025.1722" y1="537" y2="537"/><polygon fill="#181818" points="988.1722,533,978.1722,537,988.1722,541,984.1722,537" style="stroke:#181818;stroke-width:1.0;"/><text fill="#000000" font-family="sans-serif" font-size="13" font-weight="bold" lengthAdjust="spacing" textLength="7.228" x="990.1722" y="518.477">8</text><text fill="#000000" font-family="sans-serif" font-size="13" lengthAdjust="spacing" textLength="3.614" x="1001.4002" y="518.477">&#160;</text><polygon fill="#181818" points="1159.2594,557.6001,1169.2594,561.6001,1159.2594,565.6001,1163.2594,561.6001" style="stroke:#181818;stroke-width:1.0;"/><line style="stroke:#181818;stroke-width:1.0;" x1="978.1722" x2="1165.2594" y1="561.6001" y2="561.6001"/><text fill="#000000" font-family="sans-serif" font-size="13" font-weight="bold" lengthAdjust="spacing" textLength="7.228" x="985.1722" y="556.0771">9</text><text fill="#000000" font-family="sans-serif" font-size="13" lengthAdjust="spacing" textLength="111.9821" x="996.4002" y="556.0771">setupProperty(tree)</text><path d="M791,574.6001 L791,599.6001 L1155,599.6001 L1155,584.6001 L1145,574.6001 L791,574.6001 " fill="#FEFFDD" style="stroke:#181818;stroke-width:0.5;"/><path d="M1145,574.6001 L1145,584.6001 L1155,584.6001 L1145,574.6001 " fill="#FEFFDD" style="stroke:#181818;stroke-width:0.5;"/><text fill="#000000" font-family="sans-serif" font-size="13" lengthAdjust="spacing" textLength="343.2135" x="797" y="591.6771">register the property of this component to property manager</text><polygon fill="#181818" points="989.1722,622.8001,979.1722,626.8001,989.1722,630.8001,985.1722,626.8001" style="stroke:#181818;stroke-width:1.0;"/><line style="stroke:#181818;stroke-width:1.0;stroke-dasharray:2.0,2.0;" x1="983.1722" x2="1175.2594" y1="626.8001" y2="626.8001"/><text fill="#000000" font-family="sans-serif" font-size="13" font-weight="bold" lengthAdjust="spacing" textLength="14.456" x="995.1722" y="621.2771">10</text><text fill="#000000" font-family="sans-serif" font-size="13" lengthAdjust="spacing" textLength="3.614" x="1013.6282" y="621.2771">&#160;</text><polygon fill="#181818" points="552.6695,652.4001,542.6695,656.4001,552.6695,660.4001,548.6695,656.4001" style="stroke:#181818;stroke-width:1.0;"/><line style="stroke:#181818;stroke-width:1.0;stroke-dasharray:2.0,2.0;" x1="546.6695" x2="972.1722" y1="656.4001" y2="656.4001"/><text fill="#000000" font-family="sans-serif" font-size="13" font-weight="bold" lengthAdjust="spacing" textLength="14.456" x="558.6695" y="650.8771">11</text><text fill="#000000" font-family="sans-serif" font-size="13" lengthAdjust="spacing" textLength="3.614" x="577.1255" y="650.8771">&#160;</text><line style="stroke:#000000;stroke-width:1.0;stroke-dasharray:2.0,2.0;" x1="478.0407" x2="1249.2802" y1="665.4001" y2="665.4001"/><polygon fill="#181818" points="1159.2594,684.0001,1169.2594,688.0001,1159.2594,692.0001,1163.2594,688.0001" style="stroke:#181818;stroke-width:1.0;"/><line style="stroke:#181818;stroke-width:1.0;" x1="541.6695" x2="1165.2594" y1="688.0001" y2="688.0001"/><text fill="#000000" font-family="sans-serif" font-size="13" font-weight="bold" lengthAdjust="spacing" textLength="14.456" x="548.6695" y="682.4771">12</text><text fill="#000000" font-family="sans-serif" font-size="13" lengthAdjust="spacing" textLength="85.9561" x="567.1255" y="682.4771">clearProperty()</text><polygon fill="#181818" points="552.6695,713.6001,542.6695,717.6001,552.6695,721.6001,548.6695,717.6001" style="stroke:#181818;stroke-width:1.0;"/><line style="stroke:#181818;stroke-width:1.0;stroke-dasharray:2.0,2.0;" x1="546.6695" x2="1175.2594" y1="717.6001" y2="717.6001"/><text fill="#000000" font-family="sans-serif" font-size="13" font-weight="bold" lengthAdjust="spacing" textLength="14.456" x="558.6695" y="712.0771">13</text><text fill="#000000" font-family="sans-serif" font-size="13" lengthAdjust="spacing" textLength="3.614" x="577.1255" y="712.0771">&#160;</text><polygon fill="#181818" points="374.4464,750.2001,364.4464,754.2001,374.4464,758.2001,370.4464,754.2001" style="stroke:#181818;stroke-width:1.0;"/><line style="stroke:#181818;stroke-width:1.0;stroke-dasharray:2.0,2.0;" x1="368.4464" x2="535.6695" y1="754.2001" y2="754.2001"/><text fill="#000000" font-family="sans-serif" font-size="13" font-weight="bold" lengthAdjust="spacing" textLength="14.456" x="380.4464" y="748.6771">14</text><text fill="#000000" font-family="sans-serif" font-size="13" lengthAdjust="spacing" textLength="3.614" x="398.9024" y="748.6771">&#160;</text><polygon fill="#181818" points="196.2232,779.8002,186.2232,783.8002,196.2232,787.8002,192.2232,783.8002" style="stroke:#181818;stroke-width:1.0;"/><line style="stroke:#181818;stroke-width:1.0;stroke-dasharray:2.0,2.0;" x1="190.2232" x2="357.4464" y1="783.8002" y2="783.8002"/><text fill="#000000" font-family="sans-serif" font-size="13" font-weight="bold" lengthAdjust="spacing" textLength="14.456" x="202.2232" y="778.2772">15</text><text fill="#000000" font-family="sans-serif" font-size="13" lengthAdjust="spacing" textLength="3.614" x="220.6792" y="778.2772">&#160;</text><polygon fill="#181818" points="11,809.4002,1,813.4002,11,817.4002,7,813.4002" style="stroke:#181818;stroke-width:1.0;"/><line style="stroke:#181818;stroke-width:1.0;stroke-dasharray:2.0,2.0;" x1="5" x2="179.2232" y1="813.4002" y2="813.4002"/><text fill="#000000" font-family="sans-serif" font-size="13" font-weight="bold" lengthAdjust="spacing" textLength="14.456" x="17" y="807.8772">16</text><text fill="#000000" font-family="sans-serif" font-size="13" lengthAdjust="spacing" textLength="3.614" x="35.456" y="807.8772">&#160;</text><!--SRC=[bLHDRy8m3BtpAooG9fZ67wYqNTXnI9EstNO9hIcPGXovBXF_VcufXRHyT3cvjlEUxUVKb4A-tAwGHqPDauhT6K4WFygPoZ39oMKm-TrOTHReC9K5RGDvz382FVCN62TVoxTtfXyDZfDkrZIGzJAhapqfYiEr0AtZQp1Xp19OxM51NfYSqugWEN5cnPYMp8hzQatEPlljaqVDQBvkbz1YteGujDK25CCm7L4yiFIOhTOEsVeSwclHhKE7PrnNoJ4xEU4PJ0Zeisa_zWGFBVEinrMBm3RVD2f4H0TCi0KOM9NMoTnwM9TUzq9NeWl5A2NxVp9asTbSX9J8sQBEF7OoFyNhSI4N4OTME8eS52IQEtctRz3KFjDXmE0_kkFKrMZjMWefWovZG9Rzj3_UEm23E8GHLU2KKT_YaUjJdHVuhcWmf8pa2BqqtkJ8lUwgEguiKBNFznjXp5LRpPGDGcXWAwbbeoiMhK4RtHwA6The1JUw0eSyiNxxgKF3DyIzHDPTnaxEsMTZLW-iypVv0m00]--></g></svg>
