<svg xmlns="http://www.w3.org/2000/svg" xmlns:xlink="http://www.w3.org/1999/xlink" contentStyleType="text/css" height="515px" preserveAspectRatio="none" style="width:826px;height:515px;background:#FFFFFF;" version="1.1" viewBox="0 0 826 515" width="826px" zoomAndPan="magnify"><defs/><g><rect fill="#FFFFFF" height="328.0001" style="stroke:#181818;stroke-width:1.0;" width="10" x="182.4382" y="109.7999"/><rect fill="#FFFFFF" height="233.2001" style="stroke:#181818;stroke-width:1.0;" width="10" x="367.8763" y="174.9999"/><rect fill="#FFFFFF" height="174.0001" style="stroke:#181818;stroke-width:1.0;" width="10" x="553.3145" y="204.5999"/><rect fill="#FFFFFF" height="40.6" style="stroke:#181818;stroke-width:1.0;" width="10" x="558.3145" y="242.1999"/><rect fill="#FFFFFF" height="29.6" style="stroke:#181818;stroke-width:1.0;" width="10" x="742.6997" y="319.4"/><rect fill="#FFFFFF" height="375.2002" style="stroke:#000000;stroke-width:1.5;" width="817.7204" x="3" y="70.5999"/><line style="stroke:#181818;stroke-width:0.5;stroke-dasharray:5.0,5.0;" x1="186.9313" x2="186.9313" y1="53.5999" y2="462.8"/><line style="stroke:#181818;stroke-width:0.5;stroke-dasharray:5.0,5.0;" x1="372.6465" x2="372.6465" y1="53.5999" y2="462.8"/><line style="stroke:#181818;stroke-width:0.5;stroke-dasharray:5.0,5.0;" x1="557.6857" x2="557.6857" y1="53.5999" y2="462.8"/><line style="stroke:#181818;stroke-width:0.5;stroke-dasharray:5.0,5.0;" x1="747.6789" x2="747.6789" y1="53.5999" y2="462.8"/><rect fill="#E2E2F0" height="30.7999" rx="2.5" ry="2.5" style="stroke:#181818;stroke-width:0.5;" width="91.0137" x="141.9313" y="21.7999"/><text fill="#000000" font-family="sans-serif" font-size="14" lengthAdjust="spacing" textLength="77.0137" x="148.9313" y="41.8059">:UMLProject</text><rect fill="#E2E2F0" height="30.7999" rx="2.5" ry="2.5" style="stroke:#181818;stroke-width:0.5;" width="91.0137" x="141.9313" y="461.8"/><text fill="#000000" font-family="sans-serif" font-size="14" lengthAdjust="spacing" textLength="77.0137" x="148.9313" y="481.806">:UMLProject</text><rect fill="#E2E2F0" height="47.5999" rx="2.5" ry="2.5" style="stroke:#181818;stroke-width:0.5;" width="110.4596" x="317.6465" y="5"/><text fill="#000000" font-family="sans-serif" font-size="14" lengthAdjust="spacing" textLength="96.4596" x="324.6465" y="25.0059">currentDiagram</text><text fill="#000000" font-family="sans-serif" font-size="14" lengthAdjust="spacing" textLength="91.7836" x="326.9845" y="41.8059">:*UMLDiagram</text><rect fill="#E2E2F0" height="47.5999" rx="2.5" ry="2.5" style="stroke:#181818;stroke-width:0.5;" width="110.4596" x="317.6465" y="461.8"/><text fill="#000000" font-family="sans-serif" font-size="14" lengthAdjust="spacing" textLength="96.4596" x="324.6465" y="481.806">currentDiagram</text><text fill="#000000" font-family="sans-serif" font-size="14" lengthAdjust="spacing" textLength="91.7836" x="326.9845" y="498.6059">:*UMLDiagram</text><rect fill="#E2E2F0" height="30.7999" rx="2.5" ry="2.5" style="stroke:#181818;stroke-width:0.5;" width="97.2576" x="509.6857" y="21.7999"/><text fill="#000000" font-family="sans-serif" font-size="14" lengthAdjust="spacing" textLength="83.2576" x="516.6857" y="41.8059">:Components</text><rect fill="#E2E2F0" height="30.7999" rx="2.5" ry="2.5" style="stroke:#181818;stroke-width:0.5;" width="97.2576" x="509.6857" y="461.8"/><text fill="#000000" font-family="sans-serif" font-size="14" lengthAdjust="spacing" textLength="83.2576" x="516.6857" y="481.806">:Components</text><rect fill="#E2E2F0" height="30.7999" rx="2.5" ry="2.5" style="stroke:#181818;stroke-width:0.5;" width="126.0415" x="684.6789" y="21.7999"/><text fill="#000000" font-family="sans-serif" font-size="14" lengthAdjust="spacing" textLength="112.0415" x="691.6789" y="41.8059">:PropertyManager</text><rect fill="#E2E2F0" height="30.7999" rx="2.5" ry="2.5" style="stroke:#181818;stroke-width:0.5;" width="126.0415" x="684.6789" y="461.8"/><text fill="#000000" font-family="sans-serif" font-size="14" lengthAdjust="spacing" textLength="112.0415" x="691.6789" y="481.806">:PropertyManager</text><rect fill="#FFFFFF" height="328.0001" style="stroke:#181818;stroke-width:1.0;" width="10" x="182.4382" y="109.7999"/><rect fill="#FFFFFF" height="233.2001" style="stroke:#181818;stroke-width:1.0;" width="10" x="367.8763" y="174.9999"/><rect fill="#FFFFFF" height="174.0001" style="stroke:#181818;stroke-width:1.0;" width="10" x="553.3145" y="204.5999"/><rect fill="#FFFFFF" height="40.6" style="stroke:#181818;stroke-width:1.0;" width="10" x="558.3145" y="242.1999"/><rect fill="#FFFFFF" height="29.6" style="stroke:#181818;stroke-width:1.0;" width="10" x="742.6997" y="319.4"/><path d="M3,70.5999 L196.7982,70.5999 L196.7982,78.1999 L186.7982,88.1999 L3,88.1999 L3,70.5999 " fill="#FFD700" style="stroke:#000000;stroke-width:1.5;"/><rect fill="none" height="375.2002" style="stroke:#000000;stroke-width:1.5;" width="817.7204" x="3" y="70.5999"/><text fill="#000000" font-family="sans-serif" font-size="13" font-weight="bold" lengthAdjust="spacing" textLength="148.7982" x="18" y="83.6769">unselectAllComponents</text><polygon fill="#181818" points="170.4382,105.7999,180.4382,109.7999,170.4382,113.7999,174.4382,109.7999" style="stroke:#181818;stroke-width:1.0;"/><line style="stroke:#181818;stroke-width:1.0;" x1="0" x2="176.4382" y1="109.7999" y2="109.7999"/><text fill="#000000" font-family="sans-serif" font-size="13" font-weight="bold" lengthAdjust="spacing" textLength="7.228" x="7" y="104.2769">1</text><text fill="#000000" font-family="sans-serif" font-size="13" lengthAdjust="spacing" textLength="145.2102" x="18.228" y="104.2769">unselectAllComponents()</text><path d="M82,122.7999 L82,147.7999 L176,147.7999 L176,132.7999 L166,122.7999 L82,122.7999 " fill="#FF0000" style="stroke:#181818;stroke-width:0.5;"/><path d="M166,122.7999 L166,132.7999 L176,132.7999 L166,122.7999 " fill="#FF0000" style="stroke:#181818;stroke-width:0.5;"/><text fill="#000000" font-family="sans-serif" font-size="13" lengthAdjust="spacing" textLength="73.6841" x="88" y="139.8769">by Controller</text><polygon fill="#181818" points="355.8763,170.9999,365.8763,174.9999,355.8763,178.9999,359.8763,174.9999" style="stroke:#181818;stroke-width:1.0;"/><line style="stroke:#181818;stroke-width:1.0;" x1="192.4382" x2="361.8763" y1="174.9999" y2="174.9999"/><text fill="#000000" font-family="sans-serif" font-size="13" font-weight="bold" lengthAdjust="spacing" textLength="7.228" x="199.4382" y="169.4769">2</text><text fill="#000000" font-family="sans-serif" font-size="13" lengthAdjust="spacing" textLength="145.2102" x="210.6662" y="169.4769">unselectAllComponents()</text><polygon fill="#181818" points="541.3145,200.5999,551.3145,204.5999,541.3145,208.5999,545.3145,204.5999" style="stroke:#181818;stroke-width:1.0;"/><line style="stroke:#181818;stroke-width:1.0;" x1="377.8763" x2="547.3145" y1="204.5999" y2="204.5999"/><text fill="#000000" font-family="sans-serif" font-size="13" font-weight="bold" lengthAdjust="spacing" textLength="7.228" x="384.8763" y="199.0769">3</text><text fill="#000000" font-family="sans-serif" font-size="13" lengthAdjust="spacing" textLength="145.2102" x="396.1044" y="199.0769">unselectAllComponents()</text><line style="stroke:#181818;stroke-width:1.0;" x1="563.3145" x2="610.3145" y1="229.1999" y2="229.1999"/><line style="stroke:#181818;stroke-width:1.0;" x1="610.3145" x2="610.3145" y1="229.1999" y2="242.1999"/><line style="stroke:#181818;stroke-width:1.0;" x1="569.3145" x2="610.3145" y1="242.1999" y2="242.1999"/><polygon fill="#181818" points="579.3145,238.1999,569.3145,242.1999,579.3145,246.1999,575.3145,242.1999" style="stroke:#181818;stroke-width:1.0;"/><text fill="#000000" font-family="sans-serif" font-size="13" font-weight="bold" lengthAdjust="spacing" textLength="7.228" x="575.3145" y="223.6769">4</text><text fill="#000000" font-family="sans-serif" font-size="13" lengthAdjust="spacing" textLength="144.1571" x="586.5425" y="223.6769">selectedComponents = []</text><line style="stroke:#181818;stroke-width:1.0;stroke-dasharray:2.0,2.0;" x1="568.3145" x2="610.3145" y1="281.7999" y2="281.7999"/><line style="stroke:#181818;stroke-width:1.0;stroke-dasharray:2.0,2.0;" x1="610.3145" x2="610.3145" y1="281.7999" y2="294.7999"/><line style="stroke:#181818;stroke-width:1.0;stroke-dasharray:2.0,2.0;" x1="563.3145" x2="610.3145" y1="294.7999" y2="294.7999"/><polygon fill="#181818" points="573.3145,290.7999,563.3145,294.7999,573.3145,298.7999,569.3145,294.7999" style="stroke:#181818;stroke-width:1.0;"/><text fill="#000000" font-family="sans-serif" font-size="13" font-weight="bold" lengthAdjust="spacing" textLength="7.228" x="575.3145" y="276.2769">5</text><text fill="#000000" font-family="sans-serif" font-size="13" lengthAdjust="spacing" textLength="3.614" x="586.5425" y="276.2769">&#160;</text><polygon fill="#181818" points="730.6997,315.4,740.6997,319.4,730.6997,323.4,734.6997,319.4" style="stroke:#181818;stroke-width:1.0;"/><line style="stroke:#181818;stroke-width:1.0;" x1="563.3145" x2="736.6997" y1="319.4" y2="319.4"/><text fill="#000000" font-family="sans-serif" font-size="13" font-weight="bold" lengthAdjust="spacing" textLength="7.228" x="570.3145" y="313.877">6</text><text fill="#000000" font-family="sans-serif" font-size="13" lengthAdjust="spacing" textLength="85.9561" x="581.5425" y="313.877">clearProperty()</text><polygon fill="#181818" points="574.3145,345,564.3145,349,574.3145,353,570.3145,349" style="stroke:#181818;stroke-width:1.0;"/><line style="stroke:#181818;stroke-width:1.0;stroke-dasharray:2.0,2.0;" x1="568.3145" x2="746.6997" y1="349" y2="349"/><text fill="#000000" font-family="sans-serif" font-size="13" font-weight="bold" lengthAdjust="spacing" textLength="7.228" x="580.3145" y="343.477">7</text><text fill="#000000" font-family="sans-serif" font-size="13" lengthAdjust="spacing" textLength="3.614" x="591.5425" y="343.477">&#160;</text><polygon fill="#181818" points="388.8763,374.6,378.8763,378.6,388.8763,382.6,384.8763,378.6" style="stroke:#181818;stroke-width:1.0;"/><line style="stroke:#181818;stroke-width:1.0;stroke-dasharray:2.0,2.0;" x1="382.8763" x2="557.3145" y1="378.6" y2="378.6"/><text fill="#000000" font-family="sans-serif" font-size="13" font-weight="bold" lengthAdjust="spacing" textLength="7.228" x="394.8763" y="373.077">8</text><text fill="#000000" font-family="sans-serif" font-size="13" lengthAdjust="spacing" textLength="3.614" x="406.1044" y="373.077">&#160;</text><polygon fill="#181818" points="203.4382,404.2,193.4382,408.2,203.4382,412.2,199.4382,408.2" style="stroke:#181818;stroke-width:1.0;"/><line style="stroke:#181818;stroke-width:1.0;stroke-dasharray:2.0,2.0;" x1="197.4382" x2="371.8763" y1="408.2" y2="408.2"/><text fill="#000000" font-family="sans-serif" font-size="13" font-weight="bold" lengthAdjust="spacing" textLength="7.228" x="209.4382" y="402.677">9</text><text fill="#000000" font-family="sans-serif" font-size="13" lengthAdjust="spacing" textLength="3.614" x="220.6662" y="402.677">&#160;</text><polygon fill="#181818" points="11,433.8,1,437.8,11,441.8,7,437.8" style="stroke:#181818;stroke-width:1.0;"/><line style="stroke:#181818;stroke-width:1.0;stroke-dasharray:2.0,2.0;" x1="5" x2="186.4382" y1="437.8" y2="437.8"/><text fill="#000000" font-family="sans-serif" font-size="13" font-weight="bold" lengthAdjust="spacing" textLength="14.456" x="17" y="432.277">10</text><text fill="#000000" font-family="sans-serif" font-size="13" lengthAdjust="spacing" textLength="3.614" x="35.456" y="432.277">&#160;</text><!--SRC=[ZP2zRi9G38Ltdi8Y2wtK5uW4KfMEHUh210oNnAIfRkp8-89uUqmIcb0Y6a-sTSxddrmuL57EFeFez5qeGg03UaprtVk4oue9IGyJ5vGfb3kKEdMf5aTdQgO9MBmjO1glbfzVmZ_cdSR3cDbBhIOsfyUz0k_lVH09PZ7ipf0mgR3tDX3Qk5TUHwP1nBWVXSl5bHkANqtHLl_iy0jzocWEwymZeSssFTi0fw5WrZLX3klj0qTGWz0OlBscGj7pqf7BKMn6wj79hJsmum3xJwjNjYbIrl_11G00]--></g></svg>
