<svg xmlns="http://www.w3.org/2000/svg" xmlns:xlink="http://www.w3.org/1999/xlink" contentStyleType="text/css" height="568px" preserveAspectRatio="none" style="width:942px;height:568px;background:#FFFFFF;" version="1.1" viewBox="0 0 942 568" width="942px" zoomAndPan="magnify"><defs/><g><rect fill="#FFFFFF" height="381.0003" style="stroke:#181818;stroke-width:1.0;" width="10" x="189.6792" y="109.7999"/><rect fill="#FFFFFF" height="286.2002" style="stroke:#181818;stroke-width:1.0;" width="10" x="382.3584" y="174.9999"/><rect fill="#FFFFFF" height="227.0002" style="stroke:#181818;stroke-width:1.0;" width="10" x="575.0376" y="204.5999"/><rect fill="#FFFFFF" height="76.2" style="stroke:#181818;stroke-width:1.0;" width="10" x="580.0376" y="266.7999"/><rect fill="#FFFFFF" height="428.2003" style="stroke:#000000;stroke-width:1.5;" width="933.0047" x="3" y="70.5999"/><rect fill="#FFFFFF" height="138.4001" style="stroke:#000000;stroke-width:1.5;" width="346.5751" x="521.4088" y="219.5999"/><line style="stroke:#181818;stroke-width:0.5;stroke-dasharray:5.0,5.0;" x1="194.1724" x2="194.1724" y1="53.5999" y2="515.8001"/><line style="stroke:#181818;stroke-width:0.5;stroke-dasharray:5.0,5.0;" x1="387.1286" x2="387.1286" y1="53.5999" y2="515.8001"/><line style="stroke:#181818;stroke-width:0.5;stroke-dasharray:5.0,5.0;" x1="579.4088" x2="579.4088" y1="53.5999" y2="515.8001"/><line style="stroke:#181818;stroke-width:0.5;stroke-dasharray:5.0,5.0;" x1="862.9631" x2="862.9631" y1="53.5999" y2="515.8001"/><rect fill="#E2E2F0" height="30.7999" rx="2.5" ry="2.5" style="stroke:#181818;stroke-width:0.5;" width="91.0137" x="149.1724" y="21.7999"/><text fill="#000000" font-family="sans-serif" font-size="14" lengthAdjust="spacing" textLength="77.0137" x="156.1724" y="41.8059">:UMLProject</text><rect fill="#E2E2F0" height="30.7999" rx="2.5" ry="2.5" style="stroke:#181818;stroke-width:0.5;" width="91.0137" x="149.1724" y="514.8001"/><text fill="#000000" font-family="sans-serif" font-size="14" lengthAdjust="spacing" textLength="77.0137" x="156.1724" y="534.8061">:UMLProject</text><rect fill="#E2E2F0" height="47.5999" rx="2.5" ry="2.5" style="stroke:#181818;stroke-width:0.5;" width="110.4596" x="332.1286" y="5"/><text fill="#000000" font-family="sans-serif" font-size="14" lengthAdjust="spacing" textLength="96.4596" x="339.1286" y="25.0059">currentDiagram</text><text fill="#000000" font-family="sans-serif" font-size="14" lengthAdjust="spacing" textLength="91.7836" x="341.4666" y="41.8059">:*UMLDiagram</text><rect fill="#E2E2F0" height="47.5999" rx="2.5" ry="2.5" style="stroke:#181818;stroke-width:0.5;" width="110.4596" x="332.1286" y="514.8001"/><text fill="#000000" font-family="sans-serif" font-size="14" lengthAdjust="spacing" textLength="96.4596" x="339.1286" y="534.8061">currentDiagram</text><text fill="#000000" font-family="sans-serif" font-size="14" lengthAdjust="spacing" textLength="91.7836" x="341.4666" y="551.606">:*UMLDiagram</text><rect fill="#E2E2F0" height="30.7999" rx="2.5" ry="2.5" style="stroke:#181818;stroke-width:0.5;" width="97.2576" x="531.4088" y="21.7999"/><text fill="#000000" font-family="sans-serif" font-size="14" lengthAdjust="spacing" textLength="83.2576" x="538.4088" y="41.8059">:Components</text><rect fill="#E2E2F0" height="30.7999" rx="2.5" ry="2.5" style="stroke:#181818;stroke-width:0.5;" width="97.2576" x="531.4088" y="514.8001"/><text fill="#000000" font-family="sans-serif" font-size="14" lengthAdjust="spacing" textLength="83.2576" x="538.4088" y="534.8061">:Components</text><rect fill="#E2E2F0" height="30.7999" rx="2.5" ry="2.5" style="stroke:#181818;stroke-width:0.5;" width="126.0415" x="799.9631" y="21.7999"/><text fill="#000000" font-family="sans-serif" font-size="14" lengthAdjust="spacing" textLength="112.0415" x="806.9631" y="41.8059">:PropertyManager</text><rect fill="#E2E2F0" height="30.7999" rx="2.5" ry="2.5" style="stroke:#181818;stroke-width:0.5;" width="126.0415" x="799.9631" y="514.8001"/><text fill="#000000" font-family="sans-serif" font-size="14" lengthAdjust="spacing" textLength="112.0415" x="806.9631" y="534.8061">:PropertyManager</text><rect fill="#FFFFFF" height="381.0003" style="stroke:#181818;stroke-width:1.0;" width="10" x="189.6792" y="109.7999"/><rect fill="#FFFFFF" height="286.2002" style="stroke:#181818;stroke-width:1.0;" width="10" x="382.3584" y="174.9999"/><rect fill="#FFFFFF" height="227.0002" style="stroke:#181818;stroke-width:1.0;" width="10" x="575.0376" y="204.5999"/><rect fill="#FFFFFF" height="76.2" style="stroke:#181818;stroke-width:1.0;" width="10" x="580.0376" y="266.7999"/><path d="M3,70.5999 L172.9561,70.5999 L172.9561,78.1999 L162.9561,88.1999 L3,88.1999 L3,70.5999 " fill="#FFD700" style="stroke:#000000;stroke-width:1.5;"/><rect fill="none" height="428.2003" style="stroke:#000000;stroke-width:1.5;" width="933.0047" x="3" y="70.5999"/><text fill="#000000" font-family="sans-serif" font-size="13" font-weight="bold" lengthAdjust="spacing" textLength="124.9561" x="18" y="83.6769">unselectComponent</text><polygon fill="#181818" points="177.6792,105.7999,187.6792,109.7999,177.6792,113.7999,181.6792,109.7999" style="stroke:#181818;stroke-width:1.0;"/><line style="stroke:#181818;stroke-width:1.0;" x1="0" x2="183.6792" y1="109.7999" y2="109.7999"/><text fill="#000000" font-family="sans-serif" font-size="13" font-weight="bold" lengthAdjust="spacing" textLength="7.228" x="7" y="104.2769">1</text><text fill="#000000" font-family="sans-serif" font-size="13" lengthAdjust="spacing" textLength="152.4512" x="18.228" y="104.2769">unselectComponent(point)</text><path d="M89,122.7999 L89,147.7999 L183,147.7999 L183,132.7999 L173,122.7999 L89,122.7999 " fill="#FF0000" style="stroke:#181818;stroke-width:0.5;"/><path d="M173,122.7999 L173,132.7999 L183,132.7999 L173,122.7999 " fill="#FF0000" style="stroke:#181818;stroke-width:0.5;"/><text fill="#000000" font-family="sans-serif" font-size="13" lengthAdjust="spacing" textLength="73.6841" x="95" y="139.8769">by Controller</text><polygon fill="#181818" points="370.3584,170.9999,380.3584,174.9999,370.3584,178.9999,374.3584,174.9999" style="stroke:#181818;stroke-width:1.0;"/><line style="stroke:#181818;stroke-width:1.0;" x1="199.6792" x2="376.3584" y1="174.9999" y2="174.9999"/><text fill="#000000" font-family="sans-serif" font-size="13" font-weight="bold" lengthAdjust="spacing" textLength="7.228" x="206.6792" y="169.4769">2</text><text fill="#000000" font-family="sans-serif" font-size="13" lengthAdjust="spacing" textLength="152.4512" x="217.9072" y="169.4769">unselectComponent(point)</text><polygon fill="#181818" points="563.0376,200.5999,573.0376,204.5999,563.0376,208.5999,567.0376,204.5999" style="stroke:#181818;stroke-width:1.0;"/><line style="stroke:#181818;stroke-width:1.0;" x1="392.3584" x2="569.0376" y1="204.5999" y2="204.5999"/><text fill="#000000" font-family="sans-serif" font-size="13" font-weight="bold" lengthAdjust="spacing" textLength="7.228" x="399.3584" y="199.0769">3</text><text fill="#000000" font-family="sans-serif" font-size="13" lengthAdjust="spacing" textLength="152.4512" x="410.5864" y="199.0769">unselectComponent(point)</text><path d="M521.4088,219.5999 L593.8518,219.5999 L593.8518,227.1999 L583.8518,237.1999 L521.4088,237.1999 L521.4088,219.5999 " fill="#FFD700" style="stroke:#000000;stroke-width:1.5;"/><rect fill="none" height="138.4001" style="stroke:#000000;stroke-width:1.5;" width="346.5751" x="521.4088" y="219.5999"/><text fill="#000000" font-family="sans-serif" font-size="13" font-weight="bold" lengthAdjust="spacing" textLength="27.443" x="536.4088" y="232.6769">loop</text><text fill="#000000" font-family="sans-serif" font-size="11" font-weight="bold" lengthAdjust="spacing" textLength="128.952" x="608.8518" y="231.8188">[component cover point]</text><line style="stroke:#181818;stroke-width:1.0;" x1="585.0376" x2="632.0376" y1="253.7999" y2="253.7999"/><line style="stroke:#181818;stroke-width:1.0;" x1="632.0376" x2="632.0376" y1="253.7999" y2="266.7999"/><line style="stroke:#181818;stroke-width:1.0;" x1="591.0376" x2="632.0376" y1="266.7999" y2="266.7999"/><polygon fill="#181818" points="601.0376,262.7999,591.0376,266.7999,601.0376,270.7999,597.0376,266.7999" style="stroke:#181818;stroke-width:1.0;"/><text fill="#000000" font-family="sans-serif" font-size="13" font-weight="bold" lengthAdjust="spacing" textLength="7.228" x="597.0376" y="248.2769">4</text><text fill="#000000" font-family="sans-serif" font-size="13" lengthAdjust="spacing" textLength="237.7183" x="608.2656" y="248.2769">delete(selectedComponents, component)</text><path d="M595,284.7999 L595,309.7999 L766,309.7999 L766,294.7999 L756,284.7999 L595,284.7999 " fill="#FEFFDD" style="stroke:#181818;stroke-width:0.5;"/><path d="M756,284.7999 L756,294.7999 L766,294.7999 L756,284.7999 " fill="#FEFFDD" style="stroke:#181818;stroke-width:0.5;"/><text fill="#000000" font-family="sans-serif" font-size="13" lengthAdjust="spacing" textLength="150.2932" x="601" y="301.877">delete is a built-in function</text><line style="stroke:#181818;stroke-width:1.0;stroke-dasharray:2.0,2.0;" x1="590.0376" x2="632.0376" y1="342" y2="342"/><line style="stroke:#181818;stroke-width:1.0;stroke-dasharray:2.0,2.0;" x1="632.0376" x2="632.0376" y1="342" y2="355"/><line style="stroke:#181818;stroke-width:1.0;stroke-dasharray:2.0,2.0;" x1="585.0376" x2="632.0376" y1="355" y2="355"/><polygon fill="#181818" points="595.0376,351,585.0376,355,595.0376,359,591.0376,355" style="stroke:#181818;stroke-width:1.0;"/><text fill="#000000" font-family="sans-serif" font-size="13" font-weight="bold" lengthAdjust="spacing" textLength="7.228" x="597.0376" y="336.477">5</text><text fill="#000000" font-family="sans-serif" font-size="13" lengthAdjust="spacing" textLength="3.614" x="608.2656" y="336.477">&#160;</text><rect fill="none" height="40.0001" style="stroke:#000000;stroke-width:1.5;" width="400.5959" x="528.4088" y="365"/><path d="M528.4088,365 L589.4088,365 L589.4088,372 L579.4088,382 L528.4088,382 L528.4088,365 " fill="#EEEEEE" style="stroke:#000000;stroke-width:2.0;"/><text fill="#000000" font-family="sans-serif" font-size="13" font-weight="bold" lengthAdjust="spacing" textLength="16.614" x="541.4088" y="379.077">ref</text><text fill="#000000" font-family="sans-serif" font-size="12" lengthAdjust="spacing" textLength="263.4378" x="596.9878" y="397.1481">updateProperty (same logic as selectComponent)</text><polygon fill="#181818" points="403.3584,427.6001,393.3584,431.6001,403.3584,435.6001,399.3584,431.6001" style="stroke:#181818;stroke-width:1.0;"/><line style="stroke:#181818;stroke-width:1.0;stroke-dasharray:2.0,2.0;" x1="397.3584" x2="579.0376" y1="431.6001" y2="431.6001"/><text fill="#000000" font-family="sans-serif" font-size="13" font-weight="bold" lengthAdjust="spacing" textLength="7.228" x="409.3584" y="426.0771">6</text><text fill="#000000" font-family="sans-serif" font-size="13" lengthAdjust="spacing" textLength="3.614" x="420.5864" y="426.0771">&#160;</text><polygon fill="#181818" points="210.6792,457.2001,200.6792,461.2001,210.6792,465.2001,206.6792,461.2001" style="stroke:#181818;stroke-width:1.0;"/><line style="stroke:#181818;stroke-width:1.0;stroke-dasharray:2.0,2.0;" x1="204.6792" x2="386.3584" y1="461.2001" y2="461.2001"/><text fill="#000000" font-family="sans-serif" font-size="13" font-weight="bold" lengthAdjust="spacing" textLength="7.228" x="216.6792" y="455.6771">7</text><text fill="#000000" font-family="sans-serif" font-size="13" lengthAdjust="spacing" textLength="3.614" x="227.9072" y="455.6771">&#160;</text><polygon fill="#181818" points="11,486.8001,1,490.8001,11,494.8001,7,490.8001" style="stroke:#181818;stroke-width:1.0;"/><line style="stroke:#181818;stroke-width:1.0;stroke-dasharray:2.0,2.0;" x1="5" x2="193.6792" y1="490.8001" y2="490.8001"/><text fill="#000000" font-family="sans-serif" font-size="13" font-weight="bold" lengthAdjust="spacing" textLength="7.228" x="17" y="485.2771">8</text><text fill="#000000" font-family="sans-serif" font-size="13" lengthAdjust="spacing" textLength="3.614" x="28.228" y="485.2771">&#160;</text><!--SRC=[ZLAxSeD03Epv2erf86F_04KQfundtAHBSu30bpaaHjmvux-F0lXnnkFaAZrMkv9E9dYcq9KeYL7JLDuUZKTWIbhXqASjknhIxuFLOA017LP-ortFXEGJqBTvXLNniNlV2tzfSbKiSLdFbdm-mecLoM7ZWPku45B1ke3o15icB-oSTWNpYv6_cbKGKUutQrentISLBugOlR-QkB0-9Pb6kn0C_sLrpF7YgZDQhICAZ3LHoJJYZTG3xLgLFMPJ0rXVS-khGBvW7VSjjZtC2tz02NO00sMmpcyiGHD8pq0lu9vAq0U9mqXraiIO1iOPusdMwkllzIZ-j3DaMfGLw3hxMg_jd81iC9qU1xUs0ZF0tQhpv4apD-viQclBx_e1]--></g></svg>
